<?xml version="1.0" standalone="no"?>
<!DOCTYPE svg PUBLIC "-//W3C//DTD SVG 1.1//EN" "http://www.w3.org/Graphics/SVG/1.1/DTD/svg11.dtd" >
<svg xmlns="http://www.w3.org/2000/svg" xmlns:xlink="http://www.w3.org/1999/xlink" version="1.1">
<metadata>
Created by FontForge 20200427 at Thu Oct  2 22:11:36 2014
 By www
Copyright (c) 2012 by Mika Melvas. All rights reserved.
</metadata>
<defs>
<font id="SignalistW00-Signalist" horiz-adv-x="277" >
  <font-face 
    font-family="SignalistW00-Signalist"
    font-weight="400"
    font-stretch="normal"
    units-per-em="1000"
    panose-1="2 0 0 0 0 0 0 0 0 0"
    ascent="800"
    descent="-200"
    x-height="404"
    cap-height="566"
    bbox="-94 -190 831.8 822"
    underline-thickness="50"
    underline-position="-175"
    unicode-range="U+0020-2260"
  />
<missing-glyph horiz-adv-x="154" 
 />
    <glyph glyph-name=".notdef" horiz-adv-x="154" 
 />
    <glyph glyph-name="glyph1" horiz-adv-x="0" 
 />
    <glyph glyph-name="glyph1" horiz-adv-x="0" 
 />
    <glyph glyph-name="glyph2" horiz-adv-x="154" 
 />
    <glyph glyph-name="space" unicode=" " horiz-adv-x="154" 
 />
    <glyph glyph-name="exclam" unicode="!" horiz-adv-x="213" 
d="M155 50q0 -5 -3.5 -15t-10.5 -20t-18 -17t-27 -7q-22 0 -29.5 15.5t-5 34.5t12 34.5t21.5 15.5q26 0 42.5 -10t17.5 -31zM152 141q-4 0 -13.5 4t-18.5 11t-16 15.5t-6 16.5q2 28 11 68t21.5 84t27 87.5t28 78t24 56t15.5 21.5q8 0 20.5 -3.5t24.5 -9t21.5 -11t11.5 -9.5
q-12 -16 -27 -46.5t-30.5 -68t-31.5 -79.5t-28.5 -82t-21.5 -75t-12 -58z" />
    <glyph glyph-name="quotedbl" unicode="&#x22;" horiz-adv-x="223" 
d="M167 598q9 0 20 -4t20 -9.5t15 -11.5t6 -11q0 -6 -11 -28t-25 -47t-26 -46.5t-14 -25.5q-5 0 -11 3.5t-12 8.5t-10 10.5t-4 10.5q2 9 11.5 31t19.5 46t17 45t4 28zM262 598q9 0 20 -4t20 -9.5t15 -11.5t6 -11q0 -6 -11 -28t-25 -47t-26 -46.5t-14 -25.5q-5 0 -11 3.5
t-12 8.5t-10 10.5t-4 10.5q2 9 11.5 31t19.5 46t17 45t4 28z" />
    <glyph glyph-name="numbersign" unicode="#" horiz-adv-x="394" 
d="M401 352q5 0 8.5 -6t5 -14.5t2 -17.5t0.5 -15q-14 1 -36.5 -0.5t-48.5 -3.5q-13 -41 -22.5 -75t-14.5 -54q-3 0 -11.5 1t-17 3t-15 6t-6.5 10q2 16 8.5 42.5t15.5 58.5l-71 -10q-11 -35 -19.5 -64t-12.5 -47q-3 0 -11 1t-16.5 3t-14.5 6t-6 10q2 14 6.5 35.5t11.5 48.5
q-24 -3 -37 -3q-5 0 -9 6.5t-6 16t-2.5 20.5t0.5 19q8 -2 26.5 -2t44.5 2l12 42t13 41q-33 -3 -50 -3q-5 0 -8 6.5t-5.5 16t-3 20t0.5 18.5q8 -2 31 -1.5t53 2.5q17 48 30 80t18 32q7 0 17.5 -1.5t20 -3.5t17 -5.5t9.5 -7.5q-5 0 -17 -25t-26 -64q16 1 32 2.5t31 2.5
q15 45 27 73.5t17 28.5q7 0 17.5 -1.5t20.5 -3.5t17.5 -5.5t10.5 -7.5q-5 0 -15 -21.5t-24 -56.5q11 1 19.5 1.5t13.5 0.5q4 0 7 -6.5t5 -15t2.5 -17.5t0.5 -14q-25 2 -68 -3l-30 -85q18 2 31.5 3t20.5 1zM245 419q-8 -20 -15 -41.5t-14 -43.5l34 4l34 4l27 85z" />
    <glyph glyph-name="dollar" unicode="$" horiz-adv-x="333" 
d="M344 644q-4 0 -10.5 -14t-15.5 -37q37 -13 55 -45.5t14 -63.5q-2 -14 -23 -28.5t-45 -21.5q10 30 3.5 58t-25.5 38q-14 -46 -30 -102.5t-33 -116.5q26 -18 46.5 -35.5t22.5 -37.5q1 -32 -9 -60.5t-27.5 -50.5t-40.5 -34.5t-47 -11.5h-5q-8 -31 -13.5 -55.5t-8.5 -39.5
q-8 0 -19 5.5t-12 21.5q1 12 4.5 32t8.5 46q-24 9 -49 28t-39 53q-2 6 0 17t5.5 23.5t8 23t7.5 14.5q11 -35 33.5 -58.5t47.5 -35.5l27 111l-28 24t-25.5 27t-19 32.5t-8.5 40.5q-3 49 12 86.5t40.5 63.5t57.5 40t63 17q12 38 20.5 61t12.5 23q2 0 8 -4t13 -9.5t13.5 -12
t9.5 -12.5zM149 404q0 -19 13 -34.5t32 -30.5q13 51 26.5 99.5t25.5 91.5q-19 -5 -37 -15.5t-31.5 -26.5t-21.5 -37t-7 -47zM235 174q0 17 -6 31t-16 26l-23 -87q19 -2 31.5 5.5t13.5 24.5z" />
    <glyph glyph-name="percent" unicode="%" horiz-adv-x="464" 
d="M476 560q-8 -2 -29.5 -32.5t-52 -79t-67 -109.5t-73.5 -124t-72 -122t-63 -104q-1 0 -3 5t-4.5 11.5t-4 14t-1.5 12.5q1 8 14.5 37t34.5 70.5t48 91.5t55.5 101.5t56 99.5t50.5 85.5t38.5 60t19.5 22.5q2 0 10 -4.5t17 -11t17 -13.5t9 -11zM274 523q6 -17 4 -43t-9.5 -54
t-19 -56.5t-25.5 -51.5t-28.5 -37t-28.5 -14q-4 0 -12 2t-17.5 7.5t-18 14t-14.5 22.5q-6 17 -6 43.5t6 56t16 59t24 53t30.5 37.5t34.5 13q7 0 16.5 -4.5t18.5 -11.5t17 -16.5t12 -19.5zM155 311q6 0 15 14t18 36.5t18 49t14.5 52t7.5 46t-3 29.5q-9 0 -19.5 -17
t-20.5 -42.5t-19 -54.5t-13.5 -54.5t-4.5 -42t7 -16.5zM439 251q6 -18 4 -43.5t-9.5 -54t-19 -57t-25.5 -51t-28.5 -36.5t-28.5 -14q-4 0 -12 2t-17.5 7.5t-18 14t-14.5 22.5q-6 17 -6 43.5t5.5 56t16 59t24.5 53t30.5 37.5t34.5 13q7 0 16.5 -4.5t18.5 -12t17 -16.5t12 -19
zM320 38q6 0 15 14t18 36.5t17.5 49t14.5 52t7.5 46t-2.5 29.5q-9 0 -19.5 -17t-21 -42.5t-19 -54.5t-13.5 -54.5t-4.5 -42t7.5 -16.5z" />
    <glyph glyph-name="ampersand" unicode="&#x26;" horiz-adv-x="542" 
d="M531 330q4 -2 6 -13.5t1.5 -26t-3 -28.5t-5.5 -20q-2 9 -26.5 15t-57.5 9q-11 -32 -28.5 -67t-39.5 -68q24 -24 39.5 -47t15.5 -43q0 -7 -7 -19t-16.5 -24t-20.5 -22t-19 -13q2 23 -11 47.5t-35 51.5q-34 -37 -70 -59.5t-70 -22.5q-15 0 -37 9.5t-42.5 25t-35 35
t-14.5 38.5q0 39 23.5 79.5t80.5 71.5q-20 26 -33.5 53t-15.5 53q-5 64 21.5 113t69 81.5t95 49.5t99.5 19q8 0 25.5 -8t36 -23.5t34 -37t19.5 -46.5q-1 -20 -32 -66.5t-82 -98.5q19 2 40.5 3.5t40.5 2t33.5 0t20.5 -3.5zM172 364q-3 -21 11.5 -44t38 -47.5t53 -50
t58.5 -50.5q20 25 36.5 50t28.5 48q-13 1 -25 1.5t-23 0.5q-6 -8 -12 -14t-10 -6q-6 0 -14.5 5t-16.5 12.5t-13.5 15t-5.5 12.5q0 4 6 7.5t15 6.5t20 5.5t22 3.5q21 27 43 62.5t36.5 67t17 53t-14.5 21.5q-32 -2 -73 -10.5t-79 -27t-66 -48.5t-33 -74zM280 110
q-20 20 -39.5 40t-38.5 40q-21 -22 -36.5 -48t-20 -48t2.5 -36.5t31 -14.5q19 0 45.5 18.5t55.5 48.5z" />
    <glyph glyph-name="quotesingle" unicode="'" horiz-adv-x="202" 
d="M167 598q9 0 20 -4t20 -9.5t15 -11.5t6 -11q0 -6 -11 -28t-25 -47t-26 -46.5t-14 -25.5q-5 0 -11 3.5t-12 8.5t-10 10.5t-4 10.5q2 9 11.5 31t19.5 46t17 45t4 28z" />
    <glyph glyph-name="parenleft" unicode="(" horiz-adv-x="204" 
d="M313 568q-38 -12 -76 -57t-70 -107t-55.5 -134.5t-33 -139.5t-2.5 -121.5t37 -81.5q-3 0 -12.5 3t-21 10.5t-23 19.5t-18.5 31q-18 52 -17 117t15.5 132t39 131.5t54 115.5t60 84t57.5 37q5 0 16.5 -4.5t23 -10.5t19.5 -13t7 -12z" />
    <glyph glyph-name="parenright" unicode=")" horiz-adv-x="249" 
d="M-32 -33q38 12 76 57t70 107t55.5 134.5t33 139.5t2.5 121.5t-37 81.5q3 0 12.5 -3t21 -10.5t23 -19.5t18.5 -31q18 -52 17 -117t-15.5 -132t-39 -131.5t-54 -115.5t-60.5 -84t-57 -37q-5 0 -16.5 4.5t-23 10.5t-19.5 13t-7 12z" />
    <glyph glyph-name="asterisk" unicode="*" horiz-adv-x="295" 
d="M180 390q-1 -2 -14 5.5t-23 17.5l46 61l-64 -3q-1 0 -2.5 5.5t-2 13.5t0 16t2.5 13q12 -3 30 -4t38 -2q-10 14 -19 27t-17 23q-3 3 6.5 14t26.5 20q6 -12 16 -30t23 -38q12 19 22.5 36.5t18.5 32.5q1 2 6 0t11 -6t12.5 -9t10.5 -10q-10 -9 -22 -24.5t-26 -34.5
q17 0 32.5 0.5t27.5 0.5q2 0 3 -14.5t-1 -28.5q-6 2 -22 3t-38 1q12 -16 23.5 -30t22.5 -25q2 -3 -9 -14t-22 -19q-10 10 -23.5 30t-28.5 44q-13 -20 -24.5 -38.5t-20.5 -33.5z" />
    <glyph glyph-name="plus" unicode="+" horiz-adv-x="394" 
d="M221 60q-2 0 -9.5 0.5t-17 2.5t-18 6.5t-11.5 13.5q2 21 6 47.5t11 55.5q-22 -1 -40 -1h-32q-6 0 -10.5 7t-7 17.5t-3.5 22t1 21.5q14 -3 43 -4.5t63 -1.5q12 46 24 80.5t19 42.5q12 0 32 -7t30 -16q-6 -5 -16.5 -33t-21.5 -66q27 0 49 0.5t36 0.5q6 0 10.5 -7t7 -17
t4 -20t1.5 -17q-19 1 -53 1t-72 -1q-9 -37 -16 -71t-9 -57z" />
    <glyph glyph-name="comma" unicode="," horiz-adv-x="201" 
d="M74 92q9 0 21 -3.5t22.5 -9t17 -13t5.5 -15.5q-2 -17 -16.5 -38t-34 -40t-41.5 -31.5t-38 -12.5q10 16 21.5 40t21 49t16 45.5t5.5 28.5z" />
    <glyph glyph-name="hyphen" unicode="-" horiz-adv-x="323" 
d="M289 249q6 0 10.5 -7t7 -17t4 -20t1.5 -17q-19 1 -44 0.5t-52.5 -1t-55 -1.5t-50.5 -1q-6 0 -10.5 7t-7 17.5t-3.5 22t1 21.5q16 -3 42.5 -4t55 -1t55.5 0.5t46 0.5z" />
    <glyph glyph-name="period" unicode="." horiz-adv-x="204" 
d="M144 50q0 -5 -3.5 -15t-10.5 -20t-18 -17t-27 -7q-22 0 -29.5 15.5t-5 34.5t12 34.5t21.5 15.5q26 0 42.5 -10t17.5 -31z" />
    <glyph glyph-name="slash" unicode="/" horiz-adv-x="333" 
d="M418 590q-7 -2 -26 -27t-46 -66.5t-60.5 -95.5t-68.5 -113t-70.5 -119t-66 -113.5t-55 -96.5t-38.5 -68q-1 0 -3.5 5.5t-5.5 13t-5 15.5t-2 13q12 31 34 78t50.5 101.5t61 114.5t65 117t63 109t54.5 91t39 62t18 23t12.5 -5t20 -12t19 -14.5t10.5 -12.5z" />
    <glyph glyph-name="zero" unicode="0" horiz-adv-x="319" 
d="M351 505q11 -39 6 -92.5t-21 -111t-41.5 -113t-55.5 -100t-61.5 -71.5t-60.5 -27q-8 0 -20 4.5t-24.5 12.5t-23 19t-15.5 24q-11 33 -7 84.5t19 109.5t39.5 116.5t55.5 106t66 77t71 29.5q6 0 17 -8.5t23 -20t21.5 -22.5t11.5 -17zM116 47q13 0 33.5 29.5t43 75t43.5 101
t35 107.5t17.5 94t-8.5 61q-21 0 -46.5 -34.5t-50 -86.5t-45 -113t-31.5 -113t-10 -86.5t19 -34.5z" />
    <glyph glyph-name="one" unicode="1" horiz-adv-x="241" 
d="M346 541q-11 -9 -32.5 -51t-46.5 -101t-50.5 -126t-45 -125.5t-29.5 -100t-5 -49.5q-5 0 -16 3.5t-22 9.5t-20 13.5t-10 16.5q2 21 14 62.5t29.5 94t39 110t42.5 108.5q-15 -20 -31.5 -40.5t-31.5 -37t-26 -27t-15 -10.5q-5 0 -10.5 6t-10 14.5t-8 18t-4.5 16.5
q5 -4 18 4t31 23t39 35t40.5 41t36 41t26.5 35q8 15 14 25.5t11 14.5q4 4 14.5 3t22 -5t21.5 -10t15 -12z" />
    <glyph glyph-name="two" unicode="2" horiz-adv-x="315" 
d="M-20 69q93 88 163.5 164t115.5 134.5t63.5 95.5t6.5 46q-8 6 -25.5 -2t-39 -24t-44.5 -36.5t-41.5 -40.5t-30.5 -36t-11 -22q-14 21 -25.5 41t-10.5 28q0 7 10.5 21.5t27.5 31.5t39 34.5t45.5 32t46.5 24t43 9.5q6 0 19.5 -7.5t27 -22.5t22.5 -37.5t7 -51.5
q-2 -24 -18 -53.5t-42 -63.5t-59 -70t-69.5 -72t-74 -70.5t-71.5 -64.5q29 10 58 16t53.5 8t41.5 1t22 -4q4 -4 7 -16t4 -26t0.5 -27.5t-3.5 -20.5q-8 10 -31.5 16.5t-55.5 7t-68.5 -5t-69.5 -18.5q-10 0 -18.5 9.5t-14 22.5t-6 26.5t5.5 22.5z" />
    <glyph glyph-name="three" unicode="3" horiz-adv-x="292" 
d="M369 473q-2 -19 -18 -43t-40 -47.5t-52.5 -44t-54.5 -32.5q23 -5 39 -15t25.5 -22t14 -23.5t3.5 -20.5q-2 -23 -16 -49.5t-34.5 -52.5t-46.5 -50t-52.5 -42.5t-51 -29.5t-43.5 -11q-4 0 -13 4t-19.5 10.5t-21.5 15.5t-18 19q26 0 56 12.5t59 32t54.5 43.5t43.5 47t25 42
t-1 29q-5 6 -15 9t-21 3.5t-21.5 -0.5t-16.5 -3q-8 0 -15.5 7.5t-12 17t-6 18.5t2.5 11q73 44 116.5 78.5t65.5 60t26 42t-1 22.5q-9 10 -34.5 2.5t-54 -23t-51.5 -33.5t-26 -27q-4 3 -6.5 13t-4 22t-2 24.5t0.5 20.5q0 7 17.5 17.5t43 20.5t55 17t54.5 7q18 0 31.5 -9
t22 -23.5t12 -32t2.5 -34.5z" />
    <glyph glyph-name="four" unicode="4" horiz-adv-x="327" 
d="M404 544q-9 -7 -24 -35.5t-33.5 -69.5t-39 -91t-39.5 -101q29 3 33 2q6 -3 9.5 -14t5.5 -25.5t2 -29t-3 -24.5q-3 9 -24 11t-51 0q-12 -34 -21.5 -64t-15.5 -53.5t-8 -39t1 -19.5q-5 0 -16 3.5t-22 9.5t-20 13.5t-10 16.5q2 17 10 49t21 74q-29 -5 -54 -9.5t-47 -7.5
q-6 3 -14.5 11t-15 19t-10.5 23.5t-1 24.5q11 14 33.5 39.5t50.5 57t60 66.5t63 69t58.5 64.5t47.5 52.5h1l1 1q4 4 14.5 3t21.5 -5t21.5 -10t14.5 -12zM68 204q22 5 52 12.5t65 15.5q38 106 76 197q-29 -33 -56.5 -66l-52.5 -63t-46.5 -55t-37.5 -41z" />
    <glyph glyph-name="five" unicode="5" horiz-adv-x="290" 
d="M167 374q17 5 30.5 7.5t21.5 2.5q14 0 28 -12.5t24.5 -30.5t17 -37t5.5 -32q-2 -26 -16 -57t-35.5 -62t-48 -60.5t-54 -52.5t-53.5 -36.5t-46 -13.5q-10 0 -21 5.5t-21 13t-19 16t-16 14.5q31 0 64.5 18t65.5 45.5t59.5 60.5t47 63t28.5 53.5t4 32.5q-3 5 -18.5 4
t-36.5 -6t-44.5 -13t-43.5 -17q-6 5 -12 19t-8 31q10 22 25.5 54t30.5 65t27.5 62t16.5 45q30 8 65 12t65.5 4.5t52 -3t24.5 -9.5q2 -5 4 -13.5t3 -16.5t0.5 -15t-2.5 -9q-3 9 -22.5 11t-44.5 0t-50.5 -7t-39.5 -11z" />
    <glyph glyph-name="six" unicode="6" horiz-adv-x="301" 
d="M354 530q-16 0 -38.5 -14t-48.5 -39t-53 -60t-51 -78q16 11 30.5 16.5t30.5 5.5q14 0 28 -9t25 -23t18 -31.5t7 -34.5q-1 -35 -16 -82t-40 -89.5t-59 -72.5t-73 -30q-12 0 -28 5.5t-30.5 16.5t-25.5 27t-15 37q-5 44 6.5 97.5t33.5 108t52 106.5t62 92t63 64.5t57 24.5
q6 0 16 -5t20 -11.5t18 -13t11 -8.5zM214 307q-7 3 -21 -3.5t-31 -22.5t-34 -42.5t-30 -62.5q-16 -55 -17 -91.5t17 -42.5q15 -5 32.5 11.5t34.5 44.5t31.5 62.5t22.5 65.5t7.5 53.5t-12.5 27.5z" />
    <glyph glyph-name="seven" unicode="7" horiz-adv-x="301" 
d="M285 294q5 -6 8 -19.5t3 -26.5q-16 -2 -32 -3.5t-32 -3.5q-26 -45 -49.5 -88t-40.5 -78t-26 -58.5t-5 -27.5q-5 0 -16.5 8.5t-23 20t-19 24t-4.5 20.5q19 35 44 79.5t54 92.5l-70 -5q-3 0 -7 5.5t-6.5 14.5t-4 19.5t0.5 19.5q0 -4 10.5 -6t27 -2t37.5 0.5t42 2.5
q38 63 76 120.5t67 98.5q-20 -5 -46.5 -13t-52 -15.5t-46 -13t-28.5 -5.5q-6 0 -10.5 10.5t-8.5 25t-6 30t-2 25.5q8 -7 39.5 -7.5t70.5 3t77 10t60 14.5q4 2 6 2q3 0 6.5 -10t6.5 -23t4.5 -27t0.5 -21q-6 -6 -19 -23.5t-30.5 -44t-37.5 -59t-41 -68.5q8 1 14.5 1.5t8.5 0.5
z" />
    <glyph glyph-name="eight" unicode="8" horiz-adv-x="309" 
d="M333 564q7 -3 15.5 -10.5t16.5 -17.5t14.5 -19.5t8.5 -15.5q6 -15 -3.5 -37.5t-30.5 -49t-50.5 -55t-63.5 -54.5q14 -28 24 -58t12 -56q3 -39 -8 -75.5t-32 -64.5t-49.5 -45t-59.5 -17q-21 0 -42 8.5t-38.5 21t-29.5 27.5t-15 29q-3 22 0.5 48.5t20 56.5t48 63t84.5 66
q-25 55 -27.5 100.5t9.5 79.5q15 36 44 57t69 21q4 0 11.5 -4.5t16 -12t16 -16t11.5 -15.5q-34 5 -56.5 -5t-33.5 -26q-9 -14 -11.5 -31t-1.5 -35t5 -35.5t10 -32.5q27 25 50 56.5t39 61.5t23.5 55t3.5 37zM198 156q5 29 -2 55t-18 49q-40 -28 -66.5 -63t-39 -67.5
t-11 -56.5t17.5 -31q14 -6 33 0.5t37 22.5t31.5 39.5t17.5 51.5z" />
    <glyph glyph-name="nine" unicode="9" horiz-adv-x="312" 
d="M177 148q23 32 42.5 73t36.5 85q-32 -46 -62.5 -63t-51.5 -17q-12 0 -24.5 8t-22.5 21.5t-16.5 30.5t-5.5 35q1 41 19.5 85t45 80t58 59.5t60.5 23.5q20 0 38 -14.5t32 -35.5q9 -6 17.5 -16t14 -20.5t8.5 -20t2 -15.5q-6 -45 -21.5 -96.5t-37 -102.5t-48.5 -97.5t-58 -82
t-65 -57t-68 -21.5q-24 0 -40 12t-24.5 27.5t-10 30t4.5 20.5q11 -22 29.5 -30t41.5 -0.5t50 32t56 66.5zM155 285q10 -2 30.5 11t43 39.5t44 65.5t35.5 90q-1 0 -1 1q-21 18 -43.5 10t-43.5 -30.5t-38 -54t-27 -60t-11 -49.5t11 -23z" />
    <glyph glyph-name="colon" unicode=":" horiz-adv-x="222" 
d="M144 50q0 -5 -3.5 -15t-10.5 -20t-18 -17t-27 -7q-22 0 -29.5 15.5t-5 34.5t12 34.5t21.5 15.5q26 0 42.5 -10t17.5 -31zM212 300q0 -5 -3.5 -15t-10.5 -20t-18 -17t-27 -7q-22 0 -29.5 15.5t-5 34.5t12 34.5t21.5 15.5q26 0 42.5 -10t17.5 -31z" />
    <glyph glyph-name="semicolon" unicode=";" horiz-adv-x="223" 
d="M213 300q0 -5 -3.5 -15t-10.5 -20t-18 -17t-27 -7q-22 0 -29.5 15.5t-5 34.5t12 34.5t21.5 15.5q26 0 42.5 -10t17.5 -31zM74 92q9 0 21 -3.5t22.5 -9t17 -13t5.5 -15.5q-2 -17 -16.5 -38t-34 -40t-41.5 -31.5t-38 -12.5q10 16 21.5 40t21 49t16 45.5t5.5 28.5z" />
    <glyph glyph-name="less" unicode="&#x3c;" horiz-adv-x="407" 
d="M310 111q-6 0 -29.5 12.5t-52 29.5t-55.5 34t-41 26q-17 -2 -33.5 -3t-20.5 2q-3 2 1.5 14.5t12.5 27t19 26t20 11.5q3 0 10.5 -2.5t15.5 -5.5q27 13 65 31.5t72.5 37t59 33.5t24.5 22q3 -2 6.5 -10t6 -18.5t4 -20.5t0.5 -15q-8 -5 -32.5 -18t-55.5 -27t-63 -27.5
t-55 -20.5q26 -11 53.5 -23.5t50 -22.5t38.5 -15.5t20 -2.5q2 -3 -2 -14t-11 -24t-15 -23.5t-13 -13.5z" />
    <glyph glyph-name="equal" unicode="=" horiz-adv-x="401" 
d="M367 341q6 0 10.5 -7t7 -16.5t4 -19.5t1.5 -17q-7 0 -38.5 0.5t-71 0.5h-78.5h-62q-6 0 -10.5 6t-7 15.5t-3.5 20.5t1 21q16 -3 50 -4t71.5 -1t72 0.5t53.5 0.5zM337 231q12 0 19.5 -19t5.5 -41q-7 2 -36.5 2.5t-67 0t-75.5 -1t-61 -0.5q-6 0 -10.5 7.5t-7 17.5
t-3.5 20.5t0 17.5q16 -3 48 -4t67.5 -1t68.5 0.5t52 0.5z" />
    <glyph glyph-name="greater" unicode="&#x3e;" horiz-adv-x="389" 
d="M150 407q6 0 29.5 -12.5t51.5 -30t55 -34.5t41 -26q17 3 33.5 3.5t21.5 -1.5q3 -2 -1.5 -15t-12.5 -27t-19 -25.5t-20 -11.5q-8 0 -27 7q-26 -13 -61.5 -31t-67 -36t-53.5 -33t-22 -21q-3 2 -9 10t-11.5 17.5t-9.5 19.5t-3 15q7 5 32 18t56 27t63 27.5t55 20.5
q-26 11 -52.5 22t-49 20.5t-38.5 15.5t-22 6q-2 3 2 14t11 24t15 23.5t13 13.5z" />
    <glyph glyph-name="question" unicode="?" horiz-adv-x="297" 
d="M108 209q0 12 19 38.5t47 60t59 70t55 69t35.5 56.5t-0.5 32q-9 6 -25 3t-35 -12t-39 -22t-35.5 -26.5t-25 -25t-7.5 -17.5q-17 22 -31 43t-14 29q0 9 18 24.5t46 30.5t61.5 26t64.5 11q7 0 22 -7.5t30 -22.5t26.5 -36t11.5 -48q0 -22 -17 -50.5t-42.5 -60t-55 -64
t-55 -63t-42.5 -57t-17 -44.5q-12 4 -21.5 12.5t-17 17.5t-11.5 18t-4 15zM154 50q0 -5 -3.5 -15t-10.5 -20t-18 -17t-27 -7q-22 0 -29.5 15.5t-5 34.5t12 34.5t21.5 15.5q26 0 42.5 -10t17.5 -31z" />
    <glyph glyph-name="at" unicode="@" horiz-adv-x="497" 
d="M365 162q29 24 51.5 61.5t35.5 79t15.5 83t-7 75t-32 54.5t-60.5 21t-72 -20t-63 -53.5t-51.5 -76.5t-36.5 -88.5t-19.5 -90.5t0.5 -82t23.5 -62.5t48.5 -32.5q31 0 68.5 21.5t71.5 52.5q9 -11 0.5 -33t-24 -44.5t-35 -39t-32.5 -16.5q-19 0 -45.5 7.5t-53.5 21.5
t-50.5 33.5t-35.5 43.5q-19 37 -21 89.5t10.5 110.5t38 115t62 102.5t82 74t98.5 28.5q31 0 57.5 -9.5t48.5 -23t38 -30t26 -29.5q15 -21 21.5 -57.5t2.5 -79.5t-20 -89t-45 -87q-5 -8 -15 -19.5t-22 -22.5t-24.5 -19t-21.5 -8q-7 0 -21 6.5t-28.5 15.5t-25 19t-10.5 16
q0 19 3 42q-8 -20 -16.5 -40.5t-17.5 -36.5t-18 -26t-16 -10q-4 0 -11.5 2.5t-15.5 8t-14.5 14.5t-9.5 22q-4 17 -1.5 46t10.5 62.5t20.5 67.5t27.5 60.5t32.5 41t35.5 9.5q14 -4 26.5 -11.5t23.5 -17.5q6 14 11 22t8 8q7 0 16.5 -2.5t18.5 -6.5t15.5 -8.5t9.5 -8.5
q-6 -9 -17 -32.5t-21.5 -58t-18.5 -77t-9 -88.5zM228 167q2 0 11 13.5t22.5 36.5t29.5 54t33 67q4 13 7.5 24.5t8.5 22.5q-10 9 -17 9t-14 -8q-15 -15 -30 -47.5t-27 -68t-19 -65t-5 -38.5z" />
    <glyph glyph-name="A" unicode="A" horiz-adv-x="479" 
d="M485 572q9 0 20.5 -15t21.5 -35t16.5 -39t5.5 -28q-89 -215 -123 -330t-26 -131q-8 0 -20.5 5t-24.5 12.5t-21 16.5t-9 17q0 18 10 55t26 84q-33 -4 -76 -10.5t-88 -13.5q-25 -34 -45.5 -64.5t-35 -54.5t-21 -40.5t-2.5 -22.5q-12 3 -23.5 9.5t-21 15.5t-15.5 18t-6 16
q0 11 18 39t48 68q-23 -3 -40 -5t-24 -2q-3 0 -7 9t-7 21.5t-4.5 26t0.5 22.5q1 -3 13 -4t30.5 -1t43.5 1.5t52 3.5q47 59 101.5 122t103.5 115t84.5 85.5t45.5 33.5zM486 505q-12 -8 -37.5 -35t-58.5 -65.5t-71 -85t-74 -94.5q45 5 81.5 9t54.5 6q15 40 30.5 80.5t30 76.5
t26 64.5t18.5 43.5z" />
    <glyph glyph-name="B" unicode="B" horiz-adv-x="436" 
d="M484 397q0 -29 -13.5 -56t-37.5 -51t-58 -42.5t-75 -28.5q42 -16 70 -39.5t28 -53.5q0 -28 -19.5 -54.5t-52.5 -46t-76 -29.5t-91 -6q-42 3 -73 20t-48 40t-18 49.5t17 48.5q-8 -25 7 -46t38 -34q-6 15 -6 25q0 13 7.5 43t20.5 68q-7 10 -10 19t-1 13q6 5 26 10
q12 35 25.5 71t26.5 68t25 57t20 39q-31 -7 -58 -17t-47.5 -22.5t-33 -26.5t-15.5 -28q-4 5 -9.5 20t-8.5 32.5t-3 33t6 20.5q21 18 50.5 31.5t61 22.5t61.5 13.5t53 4.5q45 0 83.5 -17.5t67 -43t44.5 -54.5t16 -53zM301 490q-14 0 -26.5 -1t-25.5 -3q17 -8 34 -21.5
t20 -20.5q-6 1 -17 -14t-24.5 -42t-28.5 -62.5t-30 -74.5q7 0 17 -2q41 13 79 36.5t66.5 50.5t43 55t9.5 50q-5 23 -34 36t-83 13zM317 130q5 24 -20.5 42.5t-87.5 18.5l-6 -3q-8 -5 -14.5 -7t-12.5 -4q-13 -36 -23 -68t-16 -57q34 -5 65.5 0.5t55.5 17.5t39.5 28t19.5 32z
" />
    <glyph glyph-name="C" unicode="C" horiz-adv-x="346" 
d="M418 261q1 -11 -9.5 -36t-29.5 -55t-44.5 -62t-54 -58.5t-57 -43.5t-53.5 -17q-21 0 -44 8.5t-43.5 25t-36 40t-21.5 53.5q-8 36 -1.5 83t24.5 97.5t45 99t59 86.5t67.5 61.5t70.5 23.5q15 0 35.5 -8.5t39.5 -22.5t32.5 -31.5t13.5 -35.5q0 -24 -16.5 -57.5t-40 -64.5
t-48.5 -52.5t-42 -21.5q10 14 21.5 36.5t22.5 48.5t20 52.5t13 47.5t1.5 34.5t-14.5 13.5q-35 0 -72.5 -34t-70 -85.5t-56 -111.5t-30.5 -111.5t6.5 -85.5t54.5 -34q22 0 56 23t71 56.5t72 71t59 66.5z" />
    <glyph glyph-name="D" unicode="D" horiz-adv-x="472" 
d="M79 97q0 11 7.5 40t20 67.5t28 81.5t31.5 82.5t30.5 70.5t24.5 45q-31 -6 -58.5 -16.5t-48.5 -23.5t-34.5 -27.5t-15.5 -29.5q-2 1 -8 14t-10.5 30t-5 34.5t8.5 28.5q9 10 32.5 22.5t54.5 23.5t65.5 19t65.5 8q47 0 88.5 -19t72 -51.5t48.5 -75t18 -89.5
q0 -61 -28.5 -122.5t-76 -110.5t-108 -79.5t-123.5 -30.5q-47 0 -78 16.5t-46 41t-14 52t19 50.5q-8 -27 5 -49.5t42 -33.5q-3 9 -5 17t-2 14zM423 321q7 33 5.5 63.5t-16.5 54t-45 38t-79 14.5q-20 0 -39 -3q15 -8 33.5 -20.5t22.5 -23.5q-7 2 -19.5 -17.5t-28 -52.5
t-33 -75t-33.5 -86t-29.5 -85t-21.5 -71q47 0 93 23t84.5 60t66.5 84.5t39 96.5z" />
    <glyph glyph-name="E" unicode="E" horiz-adv-x="371" 
d="M450 250q-25 -52 -62 -99t-77.5 -83t-79.5 -57t-66 -21q-34 0 -60.5 11t-45.5 27.5t-28.5 34t-9.5 31.5q0 24 11 48t29.5 46.5t43.5 42t53 34.5q-26 23 -43 51.5t-17 63.5q0 36 23 70.5t61.5 60.5t88 42t103.5 16q11 0 24 -7.5t24 -18.5t18 -23.5t7 -22.5q0 -14 -13 -38
t-34 -49t-46 -46.5t-49 -30.5q18 25 32.5 51t24 47.5t12.5 36.5t-1 19q-7 6 -25 4.5t-41 -8t-48.5 -19t-46 -29t-34 -36.5t-13.5 -42q-2 -18 11.5 -36.5t39.5 -30.5q36 11 69 11q6 0 7.5 -14.5t0 -31.5t-6.5 -31.5t-12 -14.5q-19 0 -42 10q-38 -12 -64.5 -34t-41.5 -45.5
t-19 -44.5t4 -32q12 -17 44 -12.5t77.5 28.5t101.5 67t116 104z" />
    <glyph glyph-name="F" unicode="F" horiz-adv-x="348" 
d="M22 520q7 12 34 20t64 12.5t78.5 7t77.5 3t62.5 0.5h33.5q14 14 31 25t25 11q6 0 9.5 -12t4.5 -27t-0.5 -29.5t-6.5 -19.5q-7 -7 -29 -9q-19 -41 -44.5 -99t-51.5 -121q11 -6 20.5 -20.5t9.5 -25.5q-12 -2 -24.5 -3.5t-26.5 -3.5q-17 -43 -31 -83t-23 -72t-12 -55t3 -31
q-6 0 -19 6t-26.5 15.5t-24 21.5t-10.5 25q1 15 14.5 56.5t36.5 98.5q-42 -8 -73.5 -15t-42.5 -8q-3 0 -7 8.5t-7 21t-4.5 26t0.5 22.5q2 -5 17.5 -5.5t39 1t51 5t53.5 7.5q23 53 51.5 111t60.5 117q-51 -5 -97.5 -10.5t-83 -14.5t-60.5 -22t-28 -32q-6 2 -15 16t-16.5 30.5
t-12 31.5t-1.5 19z" />
    <glyph glyph-name="G" unicode="G" horiz-adv-x="393" 
d="M370 235q5 0 8.5 -6t5 -14t2 -16.5t0.5 -13.5q-13 1 -26.5 0.5t-27.5 -2.5q8 -14 11 -32.5t-5 -35.5q-12 -29 -31.5 -52.5t-42 -40t-47 -25t-47.5 -8.5q-21 0 -44 8.5t-43.5 25t-36 40t-21.5 53.5q-8 36 -1.5 83t24.5 97.5t45 99t59 86.5t68 61.5t71 23.5q14 0 36 -8.5
t42.5 -22.5t35 -31.5t14.5 -35.5q0 -24 -12 -51.5t-30 -50.5t-38.5 -38.5t-37.5 -15.5q13 25 25.5 58t18.5 63t3.5 51t-20.5 21q-35 0 -72.5 -34t-70 -85.5t-56 -111.5t-30.5 -111.5t6.5 -85.5t54.5 -34q19 0 39 11.5t38.5 30.5t34 43t26.5 49q-30 -5 -57 -10.5t-47 -5.5
q-5 0 -10.5 8t-10 19.5t-7 23.5t-1.5 20q13 -3 41 -3t60 1t61 2.5t43 1.5z" />
    <glyph glyph-name="H" unicode="H" horiz-adv-x="501" 
d="M308 570q7 0 19.5 -6t24.5 -14t21 -17t11 -15q-9 0 -25 -26.5t-36 -69t-41.5 -96t-41.5 -106.5q51 5 94 9.5t60 6.5q20 57 43 116.5t43.5 107.5t36.5 79t23 31t19.5 -6t24.5 -14t21 -17t11 -15q-8 0 -21.5 -21t-30.5 -56t-36 -80t-37.5 -92.5t-34.5 -94.5t-28 -85.5
t-18 -65t-4 -33.5q-8 0 -19.5 5t-23 13t-19.5 17t-8 17q0 13 10.5 50.5t27.5 88.5q-31 -4 -72 -10t-83 -12q-23 -64 -35.5 -111t-9.5 -58q-7 0 -19 5t-23 13t-19.5 17t-8.5 17q0 11 7 38t20 65q-34 -5 -58.5 -8t-33.5 -3q-3 0 -7 9t-7 21t-4.5 25.5t0.5 22.5q1 -3 12 -4
t29 -1t41.5 1.5t49.5 3.5q21 58 45 121.5t46 116t39.5 86.5t24.5 34z" />
    <glyph glyph-name="I" unicode="I" horiz-adv-x="350" 
d="M302 51q7 -2 8.5 -11t-0.5 -19.5t-7 -20t-11 -11.5q-3 4 -20.5 5t-44 0.5t-57 -2t-58.5 -2t-49.5 -0.5t-29.5 3q-7 3 -11.5 10t-7 15t-3.5 15t1 10q13 -7 52 -5.5t84 5.5q-10 10 -17 19.5t-7 12.5q0 5 6.5 26.5t17.5 54.5t25.5 73.5t30 83t31 83.5t29.5 75
q-25 -2 -47.5 -4t-39.5 -5t-26.5 -8t-8.5 -12q-8 6 -14.5 19.5t-9.5 28t-2 26.5t9 16q6 3 25.5 2t46 -3.5t55.5 -4t54 -0.5q5 2 13.5 7.5t18.5 11.5t21 12t22 9q10 3 26 -6t30.5 -21t22.5 -23.5t2 -13.5q-9 -11 -39.5 -17t-71.5 -9q-17 -36 -39 -92t-44 -117t-42 -119.5
t-32 -100.5q35 3 64.5 4.5t43.5 -0.5z" />
    <glyph glyph-name="J" unicode="J" horiz-adv-x="395" 
d="M476 601q6 0 13 -12.5t12 -28.5t6.5 -29.5t-4.5 -15.5q-4 -2 -10 -2.5t-14 -2.5q-37 -74 -64.5 -151.5t-56.5 -154.5q-26 -69 -54 -111.5t-56.5 -65.5t-56 -30.5t-52.5 -7.5q-24 0 -45.5 14t-38 34.5t-26 44t-9.5 41.5q0 10 8.5 21t21.5 19.5t26.5 14t24.5 6.5
q-9 -14 -5.5 -38.5t12.5 -48.5t20.5 -41.5t19.5 -17.5q20 0 47 24t49 72q18 39 37 87.5t37.5 99t35 97t30.5 81.5q-34 -5 -69 -11t-63.5 -15t-47 -20.5t-19.5 -27.5q-8 6 -17 20.5t-15 30t-7.5 28.5t5.5 18q21 13 53.5 18.5t68.5 6.5t70.5 0t59.5 0q3 3 12.5 11.5t20.5 18
t22 17t18 7.5z" />
    <glyph glyph-name="K" unicode="K" horiz-adv-x="424" 
d="M224 574q7 0 19.5 -6t24.5 -14t21 -17t11 -15q-8 0 -21.5 -21t-30.5 -56t-36 -80t-37 -93q5 0 9 -0.5t9 -1.5q27 20 59 49.5t63.5 62t60.5 65t50 59.5t32 45.5t7 22.5q7 -3 16 -13.5t17.5 -22.5t14.5 -23.5t6 -16.5q0 -11 -28 -41t-69.5 -67.5t-90 -77.5t-89.5 -71
q26 -48 51 -84.5t46 -61t37.5 -35.5t25.5 -6q-3 -6 -12.5 -16t-21.5 -19.5t-23.5 -17t-17.5 -7.5q-12 0 -29.5 19t-38 49t-41 66t-36.5 70q-5 -3 -9 -5.5t-8 -4.5q-12 -7 -25 -10q-12 -35 -22 -66t-17 -55.5t-10 -41t-1 -21.5q-8 0 -19.5 5t-23 13t-19.5 17t-8 17
q0 7 3.5 23t10 38.5t15.5 50t20 57.5q-5 10 -7.5 18.5t-0.5 12.5q4 2 9 5t13 5q20 55 42.5 112t42 102.5t35 74.5t21.5 29z" />
    <glyph glyph-name="L" unicode="L" horiz-adv-x="339" 
d="M240 563q7 0 19.5 -6t24.5 -14t21 -17t11 -15q-9 0 -24.5 -24t-34 -63t-38.5 -89t-39.5 -100.5t-36.5 -98t-29 -82.5q27 14 56 29t54.5 27t44.5 18.5t27 3.5q10 -5 22.5 -14.5t23 -20t17.5 -19.5t8 -12q-10 6 -33.5 1.5t-53.5 -14.5t-63 -23.5t-61.5 -25.5t-50 -20.5
t-27.5 -8.5t-14.5 4t-17 10t-16 13.5t-10.5 15.5q9 0 22.5 4.5t30.5 12.5q-7 13 -12.5 26t-8.5 22q3 17 16.5 59.5t32 96t40 111t41.5 105t35.5 78t22.5 30.5z" />
    <glyph glyph-name="M" unicode="M" horiz-adv-x="571" 
d="M574 572q9 0 20.5 -15t21.5 -35t16.5 -39t5.5 -28q-89 -215 -123 -330t-26 -131q-8 0 -20.5 5t-24.5 12.5t-21 16.5t-9 17q0 18 10 54t25 81t34 94.5t36.5 94.5t32.5 81.5t23 54.5q-14 -10 -36 -36t-48.5 -62.5t-54.5 -80t-54 -88.5t-47.5 -87t-34.5 -76q-2 -12 -3.5 -22
t-1.5 -18q-7 0 -18.5 5.5t-23 13t-19.5 15t-8 12.5q10 35 24 81.5t29.5 95t30.5 95t26.5 82.5t18 57.5t4.5 20.5q-11 -5 -29.5 -29t-41 -60.5t-47.5 -81.5t-48.5 -92t-44.5 -93t-35.5 -83.5t-21.5 -63t-3 -32.5q-6 1 -17.5 9t-22.5 18.5t-19.5 22.5t-8.5 21q0 10 11.5 37.5
t30 66t43.5 84.5t51.5 92.5t53 90t50 77t41 54t26.5 20.5q13 0 29 -11.5t30 -27t23.5 -30.5t8.5 -22q-1 -16 -13 -56.5t-29 -92.5q31 48 62.5 92t58.5 77t47.5 52.5t29.5 19.5z" />
    <glyph glyph-name="N" unicode="N" horiz-adv-x="430" 
d="M469 568q7 0 19.5 -6t24.5 -14t21 -16.5t11 -14.5q-8 0 -21.5 -21t-30.5 -56t-36 -80t-37.5 -92.5t-34.5 -94.5t-28 -85.5t-18 -65t-4 -33.5q-8 0 -20.5 3t-25.5 8.5t-22 12.5t-9 15q0 7 1 12q-1 29 0.5 74t4 95.5t5.5 100.5t5 90t2.5 64.5t-1.5 23.5q-3 -2 -14 -23.5
t-26 -56t-32.5 -78t-35 -89.5t-33.5 -91t-27 -82t-16 -62.5t-1 -32.5q-6 1 -17.5 9t-23.5 18.5t-20.5 22.5t-8.5 21q0 13 14.5 56.5t37.5 101.5t50.5 122.5t53.5 118t46.5 88.5t30.5 35q13 0 29 -11.5t30 -27t23.5 -30.5t8.5 -22q-1 -12 -4 -37.5t-6.5 -59t-7.5 -73
t-8 -79.5q21 58 44.5 119t45 110.5t38 81t23.5 31.5z" />
    <glyph glyph-name="O" unicode="O" horiz-adv-x="404" 
d="M180 -11q-19 0 -46 9t-51.5 30t-40.5 55.5t-13 85.5q2 43 13 89t28.5 90t41 83t51.5 68.5t58.5 47t63.5 17.5q27 0 53.5 -15.5t46.5 -42.5t32.5 -63t11.5 -78q-1 -34 -10 -75.5t-26 -83t-40 -81t-50.5 -69.5t-58.5 -48.5t-64 -18.5zM135 46q34 -12 70 16.5t67 78.5
t53.5 111.5t31 116.5t-1.5 93t-43 41q-35 0 -68.5 -31.5t-61.5 -79.5t-47.5 -105t-27.5 -107.5t-2 -88t30 -45.5z" />
    <glyph glyph-name="P" unicode="P" horiz-adv-x="416" 
d="M207 155q-8 0 -25 4.5t-28 12.5q-11 -33 -20.5 -63.5t-16.5 -55.5t-9.5 -41.5t-0.5 -22.5q-6 0 -17.5 4.5t-23 12t-20.5 17.5t-9 22q0 11 8.5 42.5t22.5 74t31.5 90.5t35.5 93t34.5 81t29.5 55q-32 -6 -59 -16.5t-48 -23t-34 -27t-16 -28.5q-4 5 -9 19.5t-8.5 31t-3.5 32
t6 24.5q7 9 30 21t54 23.5t67.5 19t70.5 7.5q48 0 87.5 -17.5t68 -44.5t44 -58.5t15.5 -59.5q0 -39 -26 -79.5t-65 -73.5t-84 -54.5t-82 -21.5zM281 490q-22 0 -43 -3q16 -8 31.5 -20.5t17.5 -20.5q-8 0 -21.5 -20.5t-29.5 -53.5t-33.5 -75.5t-33.5 -85.5q59 17 104.5 46.5
t75 62.5t42.5 65.5t7 54.5q-13 50 -117 50z" />
    <glyph glyph-name="Q" unicode="Q" horiz-adv-x="404" 
d="M180 -11q-19 0 -46 9t-51.5 30t-40.5 55.5t-13 85.5q2 43 13 89t28.5 90t41 83t51.5 68.5t58.5 47t63.5 17.5q27 0 53.5 -15.5t46.5 -42.5t32.5 -63t11.5 -78q-1 -37 -12 -82t-30 -90t-45.5 -86t-57.5 -70q20 -32 37.5 -59t26.5 -38q-2 -7 -12 -15.5t-22 -16t-23 -12.5
t-17 -5q-5 11 -18.5 41.5t-29.5 66.5q-11 -5 -22.5 -7.5t-23.5 -2.5zM135 46q16 -6 32 -2.5t32 14.5q-13 29 -24 51t-17 30q1 2 7 6.5t13.5 9t16.5 8.5t16 5q4 -8 13 -25t22 -39q24 31 45 72t37 84.5t24.5 86t7.5 76.5t-12.5 56t-35.5 24q-35 0 -68.5 -31.5t-61.5 -79.5
t-47.5 -105t-27.5 -107.5t-2 -88t30 -45.5z" />
    <glyph glyph-name="R" unicode="R" horiz-adv-x="412" 
d="M72 241q6 5 26 10q13 36 27 71.5t27.5 66.5t25.5 55.5t21 38.5q-32 -6 -59 -16.5t-48 -23.5t-34 -27.5t-16 -28.5q-4 5 -9 19t-8.5 30.5t-3.5 32.5t6 25q7 9 29.5 21t53.5 23.5t67.5 19t71.5 7.5q48 0 87.5 -16.5t68 -41.5t44 -55.5t15.5 -58.5q0 -34 -20 -64t-51 -54
t-69 -41t-74 -25q49 -83 89 -125.5t57 -34.5q-3 -6 -12.5 -16t-21.5 -19.5t-23.5 -17t-17.5 -7.5q-12 0 -29 18t-36.5 46.5t-39.5 63.5t-36 68l-4 -2q-12 -6 -21 -9q-12 -33 -21.5 -63.5t-16.5 -55.5t-9.5 -42t-0.5 -23q-6 0 -17.5 4.5t-23 12t-20.5 17.5t-9 22
q0 14 12.5 58t32.5 101q-7 11 -9.5 21.5t-0.5 14.5zM185 256q11 -1 24 -5q45 16 82.5 41t63 51.5t37 52.5t6.5 45q-13 50 -117 50q-22 0 -43 -3q15 -8 31 -21t18 -20q-7 0 -18.5 -15.5t-25 -42t-28.5 -61t-30 -72.5z" />
    <glyph glyph-name="S" unicode="S" horiz-adv-x="376" 
d="M74 335q-2 60 23.5 103.5t65.5 72.5t87.5 43t90.5 14q7 0 24.5 -10t36.5 -27t35 -40.5t20 -50.5q-1 -15 -25 -35.5t-54.5 -38t-59 -29.5t-38.5 -10q38 51 63 82.5t35.5 49.5t7 24t-21.5 6q-29 0 -66.5 -7t-72.5 -23t-61.5 -42.5t-32.5 -66.5q-4 -22 12 -38t41.5 -29
t56 -25t56 -25.5t41.5 -29.5t13 -37q-14 -90 -62 -135.5t-113 -41.5q-34 2 -64.5 21t-53 46t-34.5 58t-9 58q1 12 6 25.5t11.5 25.5t13.5 21t12 11q8 -63 26 -104t41 -64.5t48 -32t46.5 -5t36.5 15.5t18 29q4 24 -9.5 42.5t-35.5 35t-49 32.5t-50.5 35t-39.5 42t-16 54z" />
    <glyph glyph-name="T" unicode="T" horiz-adv-x="332" 
d="M359 563q2 0 4 1t4 1t5 1q14 7 30 14.5t30 13t24.5 9t14.5 3.5q6 0 14 -13t15 -29.5t11 -30.5t2 -15q-4 -2 -17 -4t-31 -3.5t-38 -2.5t-38 -2q-16 -35 -37.5 -83.5t-44.5 -103t-44 -109t-36 -100.5t-21 -79t1 -43q-6 0 -19 6t-26.5 15.5t-24 21.5t-10.5 25
q1 16 15.5 60.5t40 105.5t60 134t74.5 146q-51 -5 -94.5 -10.5t-76.5 -14.5t-54 -22t-25 -32q-6 2 -15 16t-16.5 30.5t-12 31.5t-1.5 19q6 9 23.5 16t42.5 12t54.5 8t59.5 5q70 4 157 2z" />
    <glyph glyph-name="U" unicode="U" horiz-adv-x="379" 
d="M489 520q-16 -10 -37 -48.5t-42 -91.5t-39.5 -114.5t-30.5 -116.5t-16 -98t5 -59q-5 0 -15.5 4t-22 10t-21.5 13.5t-13 15.5q-4 9 -3.5 27.5t4 43t10 54t14.5 61.5q-20 -50 -39 -92.5t-38 -73t-37.5 -48t-37.5 -17.5q-16 0 -35.5 11t-36 30t-27.5 42.5t-11 49.5
q0 29 10.5 73t26.5 94t35 100t37 90.5t31.5 65.5t19.5 25q8 0 20 -6t24 -14.5t21 -17t11 -13.5q-8 -1 -22 -21t-30 -52.5t-33.5 -73.5t-32.5 -84.5t-27 -85.5t-18 -75.5t-4 -55.5t15 -25q14 -4 39 29t54.5 86t61.5 117.5t60.5 123.5t51 103.5t34.5 58.5l3 3l1 1h1l1 1
q6 1 16.5 -3t22 -11.5t22 -17t17.5 -18.5z" />
    <glyph glyph-name="V" unicode="V" horiz-adv-x="344" 
d="M90 46q14 9 34 36t43 64t48 82t48 90.5t42.5 89t33 78t18.5 56.5t-1 26q10 0 23.5 -9t25.5 -21.5t19.5 -25.5t5.5 -20q-16 -50 -41.5 -107t-55 -113t-61.5 -107t-61 -90t-52 -62.5t-35 -23.5q-9 0 -25.5 8.5t-33.5 22t-30 31t-14 34.5q-1 22 6 67t19.5 99t27.5 110.5
t30 103.5t26.5 76.5t17.5 29.5q8 0 21 -6t26.5 -14.5t23.5 -17t12 -14.5q-11 -1 -27.5 -34.5t-33.5 -84t-33.5 -110.5t-28.5 -112t-17.5 -89t-0.5 -43z" />
    <glyph glyph-name="W" unicode="W" horiz-adv-x="516" 
d="M91 47q21 14 48 57.5t54.5 100.5t53 119.5t44.5 114.5q10 44 18.5 72t14.5 28h2q9 -1 21 -7.5t24 -14.5t21 -16t11 -13q-5 0 -12.5 -18t-16 -47.5t-18 -68t-18 -78.5t-16 -79.5t-12 -71t-5.5 -53t3 -25.5q14 9 31.5 36t37 64t39 82t37 90.5t32.5 89t24 78t12 56.5t-3 26
q10 0 25 -9t28.5 -21.5t22.5 -25.5t8 -20q-16 -50 -36.5 -107t-44 -113t-47.5 -107t-47 -90t-44 -62.5t-36 -23.5q-9 0 -26 8.5t-34 22t-30 31t-14 34.5q-2 23 2 65t11 93q-18 -52 -36 -98t-36 -80.5t-35 -55t-32 -20.5q-9 0 -24.5 8.5t-31 22t-27.5 31t-13 34.5
q-1 22 6.5 67t19.5 99t27.5 110.5t30.5 103.5t26.5 76.5t17.5 29.5q7 0 20.5 -6t26.5 -14.5t23 -17t12 -14.5q-11 -1 -27 -34.5t-33.5 -84t-33.5 -110.5t-28 -112t-17.5 -89t-0.5 -43z" />
    <glyph glyph-name="X" unicode="X" horiz-adv-x="410" 
d="M139 518q1 7 13 15.5t27.5 15.5t30.5 10t22 0q5 -40 20 -97t32 -120q37 40 71.5 78t60.5 69t41.5 52t16.5 28q4 -2 13 -9.5t17.5 -17t13.5 -19t2 -15.5q-10 -16 -32 -41t-51.5 -56.5t-64.5 -67.5t-71 -74q13 -47 26 -89t24.5 -74t21.5 -50.5t17 -18.5q-11 -17 -35 -32.5
t-46 -15.5q-4 0 -11 17.5t-17 46.5t-21.5 68t-23.5 81q-31 -33 -62.5 -65t-58 -60.5t-44 -51.5t-21.5 -38q-5 0 -13.5 8.5t-16 20.5t-11.5 24.5t1 20.5q4 7 22.5 27.5t47 49t63.5 63t71 71.5q-12 46 -24.5 89.5t-22.5 77.5t-17.5 55.5t-10.5 23.5z" />
    <glyph glyph-name="Y" unicode="Y" horiz-adv-x="376" 
d="M256 518q-8 -1 -22 -20.5t-30 -52t-33.5 -74t-32.5 -85t-27 -85.5t-18 -75.5t-4 -55.5t15 -25q10 -3 25.5 13t34 44.5t39.5 66.5t42.5 80.5t43 86.5t40.5 83.5t35.5 71.5t27.5 52q9 20 16 25q6 4 18 -0.5t24.5 -13.5t23.5 -19t15 -17q-15 -11 -32.5 -42.5t-36 -76
t-37 -98t-34.5 -109t-28.5 -109t-20.5 -98t-9.5 -76.5t5.5 -44q-5 0 -16 4t-23 10t-22 13.5t-13 15.5q-5 12 -2.5 40.5t10 68.5t19.5 89t27 100q-19 -47 -37.5 -87t-36.5 -69t-36 -45.5t-36 -16.5q-16 0 -35.5 11.5t-36 30t-27.5 42.5t-11 49q0 29 10.5 73.5t26.5 94.5
t35 100t37 90.5t31.5 65.5t19.5 25q8 0 20 -6t24 -14.5t21 -17t11 -14.5z" />
    <glyph glyph-name="Z" unicode="Z" horiz-adv-x="379" 
d="M448 450q-2 -17 -24 -48.5t-56 -70t-75.5 -81t-82 -81.5t-76 -71.5t-56.5 -51.5q30 13 71 30.5t80.5 32t70 23t39.5 4.5q4 -2 12.5 -8.5t18 -16.5t18.5 -21.5t16 -22.5q-12 5 -35.5 3t-53.5 -8.5t-63 -16t-65 -20t-60 -20.5t-47 -17q-8 0 -19.5 11.5t-21.5 27t-15.5 31.5
t-0.5 24q9 15 42.5 49t77 77.5t90.5 91.5t85.5 89.5t60.5 72t16 40.5q-5 7 -27.5 2.5t-53 -17t-65 -31t-63 -38t-47.5 -38.5t-19 -33q-7 4 -15 14t-14.5 22.5t-9.5 25.5t0 23q4 11 22.5 26.5t45 31.5t58.5 31.5t63.5 27t59.5 17t48 3.5q18 -3 32 -16.5t22.5 -31.5
t12.5 -37.5t3 -33.5z" />
    <glyph glyph-name="bracketleft" unicode="[" horiz-adv-x="314" 
d="M159 -20q6 0 10.5 -5.5t7 -13.5t4 -17t1.5 -16q-20 0 -29.5 -0.5t-17 -1.5t-18 -1.5t-32.5 -0.5q-4 0 -12 6t-16.5 14t-14.5 17.5t-6 17.5q7 21 18.5 58.5t26.5 85t32 101l34 107t33 103t28.5 88.5t20.5 64t10 29h30t25.5 1t26 1.5t32.5 0.5q6 0 10.5 -6.5t8 -16t5 -19.5
t1.5 -17h-82l-193 -579h56v0z" />
    <glyph glyph-name="backslash" unicode="\" horiz-adv-x="338" 
d="M167 635q4 -23 14.5 -77t26 -124.5t33.5 -150.5t37 -155t37 -138t33 -99q-2 -1 -17 1t-24 6q-20 34 -42.5 96.5t-45 137t-43 152.5t-36 144.5t-25 113t-9.5 56.5q0 3 7.5 9t17.5 12.5t20.5 11.5t15.5 4z" />
    <glyph glyph-name="bracketright" unicode="]" horiz-adv-x="242" 
d="M204 562q-6 0 -10.5 5.5t-7 13.5t-4 17t-1.5 16q20 0 29.5 0.5t17 1.5t18 1.5t32.5 0.5q4 0 12 -6t16.5 -14t14.5 -18t6 -17q-7 -21 -18.5 -58.5t-26.5 -85t-32 -101.5t-34 -107t-33 -102.5t-28.5 -88.5t-20.5 -64t-10 -29h-30t-25.5 -1t-26 -1.5t-32.5 -0.5
q-6 0 -10.5 6.5t-8 16t-5 19.5t-1.5 17h81q7 20 20.5 59.5t30.5 91t37 110.5t39 116.5t36.5 110l30.5 91.5h-56v0z" />
    <glyph glyph-name="asciicircum" unicode="^" horiz-adv-x="311" 
d="M285 627q2 -11 8 -38.5t13 -60t14 -62t11 -44.5q-11 -10 -28 -19t-29 -11q-5 8 -13 27t-15.5 41t-13.5 43t-8 33q-8 -8 -21 -26.5t-28 -39.5t-29.5 -41.5t-24.5 -32.5q-2 1 -5 6.5t-6.5 12.5t-6 15t-2.5 16q6 15 25 47t41 65.5t41 61.5t27 34q3 0 10 -3t15 -7t15 -8.5
t10 -8.5z" />
    <glyph glyph-name="underscore" unicode="_" horiz-adv-x="317" 
d="M292 -21q6 0 10.5 -7t7 -17t4 -20t1.5 -17q-19 1 -60 0.5t-87.5 -1t-89.5 -1.5t-66 -1q-6 0 -10.5 7t-7 17.5t-3.5 22t1 21.5q11 -2 34 -3.5t52 -1.5h61.5h62t53.5 0.5t37 0.5z" />
    <glyph glyph-name="grave" unicode="`" horiz-adv-x="168" 
d="M236 483q-28 -2 -51.5 10.5t-40 29.5t-25.5 33t-9 21t6.5 12t16.5 13.5t21.5 11t20.5 4.5q0 -8 5 -26.5t13.5 -39.5t19.5 -40t23 -29z" />
    <glyph glyph-name="a" unicode="a" 
d="M316 376q-7 -11 -19.5 -36.5t-26 -63t-27 -84t-21.5 -98.5q15 18 32 41t31.5 46t26 44t16.5 34q9 -2 6.5 -21t-12 -46t-24 -57.5t-30.5 -56.5t-30.5 -43.5t-23.5 -17.5t-20 8t-21 19t-17 23t-7 20q0 11 1 25t3 29q-9 -25 -20 -50t-22 -45.5t-21.5 -33t-19.5 -12.5
q-5 0 -14 3t-19 10t-18.5 18t-11.5 26q-5 20 -1.5 56t13 76.5t24.5 82t33.5 73.5t39.5 50t43 12q17 -5 32 -14.5t29 -20.5q7 17 13 26.5t10 9.5q9 0 20.5 -3.5t22 -8t19 -10.5t11.5 -10zM186 279q5 15 9.5 29t9.5 27q-11 11 -20 10.5t-17 -8.5q-12 -12 -24 -34.5t-23.5 -50
t-21 -56.5t-16.5 -54.5t-10.5 -44.5t-2.5 -26q3 0 13.5 16.5t26.5 44.5t35.5 66t40.5 81z" />
    <glyph glyph-name="b" unicode="b" horiz-adv-x="278" 
d="M432 340q-7 -14 -23 -26t-36.5 -22.5t-43.5 -18t-45 -12.5q-9 -43 -26 -91t-39.5 -87t-47.5 -62t-50 -16q-15 4 -28.5 12t-26.5 18q-3 -20 -3 -33q-4 0 -14 7.5t-20 19t-17.5 24.5t-6.5 23q5 41 18.5 94.5t30.5 110t36.5 110.5t36.5 97t30 69t18 26q8 0 19 -3.5t21.5 -9
t19 -11t10.5 -9.5q-7 -6 -18.5 -29.5t-26.5 -59.5t-31 -80.5t-32 -91.5q27 53 51.5 85t38.5 32q5 0 15 -6t20.5 -14.5t18.5 -18.5t10 -18q3 -12 1 -37q32 1 67 9t73 19zM120 75q11 11 23 31t23 44.5t21.5 51.5t18.5 53q-6 8 -8 23.5t-1 32.5q-23 -37 -56.5 -99t-64.5 -137
q26 -20 44 0z" />
    <glyph glyph-name="c" unicode="c" horiz-adv-x="219" 
d="M272 243q8 -8 2.5 -29.5t-19 -48.5t-33 -56t-40 -53.5t-39.5 -40t-32 -15.5q-21 0 -40.5 10t-34.5 24.5t-23.5 31t-8.5 29.5q0 45 14 100t35 102.5t46.5 79.5t48.5 32q4 0 18.5 -8t30.5 -20.5t29 -27.5t14 -28q3 -27 -9 -51t-29.5 -41t-35 -24t-25.5 -1q10 16 19 37.5
t15 42t8.5 38t-0.5 27.5q-9 0 -23 -19.5t-28 -49.5t-27.5 -65.5t-21.5 -68t-10 -56.5t7 -30q7 -5 22 3t34.5 24t41 37t40.5 42.5t33.5 41t20.5 31.5z" />
    <glyph glyph-name="d" unicode="d" horiz-adv-x="272" 
d="M205 19q-4 0 -14 7.5t-20.5 19.5t-18 25t-6.5 23q2 11 3.5 23t4.5 25q-10 -26 -21 -51t-22 -45.5t-21.5 -33t-19.5 -12.5q-5 0 -14 3t-19 10t-18.5 18t-11.5 26q-5 20 -1.5 56t13 76.5t24.5 82t33.5 73.5t39.5 50t43 12q16 -5 31 -14t28 -20q15 43 29 81t26.5 66.5
t21.5 45t13 16.5q8 0 19 -3.5t21.5 -9t19 -11t10.5 -9.5q-7 -6 -19 -30.5t-27 -61t-31 -82t-31.5 -93t-29 -93.5t-22.5 -84q17 20 35.5 45t34 49.5t27.5 45.5t17 33q8 -1 4.5 -21t-14.5 -48.5t-27 -62t-33 -61.5t-32.5 -47t-24.5 -19zM70 71q3 0 14.5 17.5t28.5 47.5
t38 70.5t42 85.5q3 11 6 21.5t7 21.5q-12 11 -21 11t-17 -9q-12 -12 -24.5 -34t-24 -49.5t-21 -56.5t-16.5 -55t-10 -45t-2 -26z" />
    <glyph glyph-name="e" unicode="e" horiz-adv-x="219" 
d="M272 243q8 -8 2.5 -29.5t-19 -48.5t-33 -56t-40 -53.5t-39.5 -40t-32 -15.5q-21 0 -40.5 10t-34.5 24.5t-23.5 31t-8.5 29.5q0 45 14 100t35 102.5t46.5 79.5t48.5 32q4 0 18.5 -8t30.5 -20.5t29 -27.5t14 -28q2 -26 -12 -57.5t-35.5 -54t-47.5 -29t-47 17.5
q-8 -24 -14 -47t-9 -41.5t-2 -32t7 -17.5q7 -5 22 3t34.5 24t41 37t40.5 42.5t33.5 41t20.5 31.5zM183 353q-7 0 -16.5 -11t-20 -29t-21 -42t-19.5 -49q22 6 37.5 22.5t25 36.5t13 39.5t1.5 32.5z" />
    <glyph glyph-name="f" unicode="f" horiz-adv-x="229" 
d="M337 280q-33 -48 -121 -68q-13 -68 -33.5 -128.5t-43 -106t-43.5 -72t-35 -26.5q-8 0 -20.5 9t-24 21.5t-20.5 25t-10 20.5q-3 22 3 60t17 86.5t27 102.5t33.5 107.5t35 102.5t32.5 86.5t26 59.5t16 22q8 0 19.5 -3.5t23 -9t20.5 -11t11 -9.5q-8 -6 -20 -29.5t-27 -59.5
t-32 -81t-34 -93q14 10 31 18t25 8q4 0 9 -6.5t10 -15t8 -17.5t3 -15q67 2 114 22zM161 214q-9 4 -19.5 12.5t-17.5 21.5q-20 -57 -36.5 -112.5t-28 -98.5t-15 -69.5t3.5 -26.5q3 0 11 14.5t19 37.5t23 53l24 60t21.5 58.5t14.5 49.5z" />
    <glyph glyph-name="g" unicode="g" horiz-adv-x="256" 
d="M166 409q2 0 9 -4.5t15.5 -10.5t15.5 -13.5t10 -13.5q15 2 30.5 -5.5t20.5 -30.5q14 3 31.5 7t35.5 9.5t35 11.5t29 13q-2 -6 -7 -13q-5 -6 -12.5 -14t-18.5 -18q-25 -20 -50 -31.5t-48 -17.5q-5 -24 -16 -49t-26 -45t-33.5 -33t-39.5 -13q-8 0 -12 1q-11 -6 -18 -11.5
t-9 -8.5q33 -18 61 -36.5t46.5 -37t27 -36.5t2.5 -36q-6 -16 -23.5 -37.5t-41 -40.5t-51 -32.5t-54.5 -13.5q-31 0 -53.5 12t-37 30t-20 39.5t-2.5 39.5q1 15 13 28.5t28.5 24t36.5 18t38 10.5q-10 7 -22.5 19.5t-18 27t2.5 30t38 29.5q2 1 4 1t5 1q-14 9 -25 20.5t-16 25.5
q-7 30 1 65.5t25.5 66.5t42 51.5t51.5 20.5zM163 -60q3 5 2.5 15t-6 22.5t-17.5 26.5t-33 28q-24 -8 -41 -21t-24 -28t-2.5 -30t22.5 -26q14 -8 29.5 -9.5t29.5 1.5t25 9t15 12zM139 185q21 0 40 27t30 61q-17 3 -21 12q-4 14 -0.5 36t5.5 33q-20 -13 -37 -41t-26 -56.5
t-8 -50t17 -21.5z" />
    <glyph glyph-name="h" unicode="h" horiz-adv-x="284" 
d="M249 385q4 0 13 -4t19.5 -10.5t19.5 -14.5t13 -17q-8 -14 -20.5 -41.5t-25.5 -61.5t-25 -72.5t-18 -75.5q15 17 32.5 40.5t33 48t27.5 46.5t17 36q8 -1 6 -19.5t-11 -45t-22.5 -57.5t-28 -57t-28.5 -43.5t-23 -17.5t-22 6.5t-25 15.5t-20.5 19t-8.5 17q0 16 4 37.5
t10.5 46t15.5 50t18 50.5q-18 -27 -40.5 -64.5t-42.5 -76t-35 -71.5t-19 -49q-4 0 -14 7.5t-20 19t-17.5 24.5t-6.5 23q5 41 18.5 94.5t30.5 110t36.5 110.5t36.5 97t30 69t18 26q8 0 19 -3.5t21.5 -9t19 -11t10.5 -9.5q-9 -8 -25 -43t-35.5 -85.5t-40 -110.5t-38.5 -117
q19 36 41.5 71t43 62t36.5 43.5t22 16.5z" />
    <glyph glyph-name="i" unicode="i" horiz-adv-x="136" 
d="M177 376q-7 -11 -20 -38t-28 -66.5t-29.5 -88t-24.5 -101.5q16 19 34 44.5t33.5 50.5t27.5 47t17 35q9 -2 6.5 -22t-13 -49t-26.5 -62t-32.5 -61t-32 -46.5t-24.5 -18.5q-8 0 -18.5 8t-20 19t-16 23t-6.5 20q1 26 7.5 61t16.5 72.5t22 74.5t23.5 65.5t20.5 46.5t14 18
q9 0 20 -3.5t21 -8t17.5 -10.5t10.5 -10zM268 612q-6 -5 -15.5 -18.5t-19 -31t-17.5 -37t-12 -37.5q-6 0 -13 5t-14 12t-11.5 14.5t-4.5 12.5q0 22 5.5 42.5t13.5 36t16.5 24.5t14.5 9q8 0 16.5 -3.5t16.5 -8.5t14.5 -10.5t9.5 -9.5z" />
    <glyph glyph-name="j" unicode="j" horiz-adv-x="125" 
d="M-42 -171q-3 0 -11.5 6t-17.5 15t-16 18t-7 15t7 21t17.5 35t22 41t20.5 39q8 39 19 82.5t23 86.5t25 82.5t25 70t21 48.5t15 18q20 0 41 -11t26 -19q-26 -51 -52.5 -120.5t-50.5 -148.5q36 36 72 78t56 80q4 -23 -10.5 -55.5t-38.5 -68.5t-53.5 -71.5t-54.5 -63.5
q-8 -27 -19 -58t-22 -57.5t-21 -44.5t-16 -18zM260 612q-6 -5 -15.5 -18.5t-19 -31t-17.5 -37t-12 -37.5q-6 0 -13 5t-14 12t-11.5 14.5t-4.5 12.5q0 22 5.5 42.5t13.5 36t16.5 24.5t14.5 9q8 0 16.5 -3.5t16.5 -8.5t14.5 -10.5t9.5 -9.5z" />
    <glyph glyph-name="k" unicode="k" horiz-adv-x="272" 
d="M63 1q-4 0 -14 7.5t-20 19t-17.5 24.5t-6.5 23q5 41 18.5 94.5t30.5 110t36.5 110.5t36.5 97t30 69t18 26q8 0 19 -3.5t21.5 -9t19 -11t10.5 -9.5q-6 -6 -17 -27t-24.5 -52.5t-28 -71.5t-29.5 -83q23 40 47.5 67t41.5 27q4 0 12.5 -8t18 -20.5t17 -27.5t8.5 -28
q1 -18 -9.5 -43t-28.5 -49.5t-41 -46t-46 -33.5q5 -15 17 -36t30 -42q16 17 33 40t33 46.5t28 44.5t17 34q9 -2 4.5 -25t-17.5 -55.5t-31.5 -67.5t-35.5 -59q-11 -15 -29.5 -24t-25.5 -9q-16 6 -30.5 20t-27 33.5t-22.5 42.5t-17 47q-14 -48 -21.5 -85t-7.5 -57zM234 353
q-7 0 -22.5 -16t-34 -41.5t-38 -56.5t-33.5 -61q25 9 49 33t42.5 51.5t28.5 53t8 37.5z" />
    <glyph glyph-name="l" unicode="l" horiz-adv-x="184" 
d="M62 -1q-6 0 -15.5 9t-18.5 22.5t-15.5 27.5t-6.5 25q0 40 11.5 93t29 108.5t39.5 109.5t42.5 96t37.5 68t25 26h1q7 -1 21.5 -11t29 -25t25.5 -33.5t11 -34.5q0 -9 -8.5 -29.5t-23 -48.5t-34 -60t-40 -63t-42 -57.5t-39.5 -43.5q-7 -26 -12 -51.5t-10 -50.5
q22 18 48.5 43.5t52 52.5t46.5 51.5t32 39.5q4 -11 -6 -34.5t-28.5 -52t-42.5 -59.5t-46 -56.5t-39.5 -42.5t-24.5 -18v-1zM224 518q-10 -17 -23.5 -44t-28 -61t-29.5 -74t-28 -83q27 45 51 91.5t40.5 84.5t22 62t-4.5 24z" />
    <glyph glyph-name="m" unicode="m" horiz-adv-x="412" 
d="M356 19q-9 0 -22 6.5t-24 15.5t-19 19t-8 17q0 16 4 37.5t10.5 46t15.5 50t18 50.5q-17 -26 -37 -60.5t-37 -69.5t-30 -65.5t-17 -46.5q-9 0 -22 6.5t-24 15.5t-19 19t-8 17q0 16 4 37t10.5 45t15 49.5t17.5 49.5q-17 -27 -36 -64.5t-36 -75t-29 -70t-16 -48.5
q-8 0 -18.5 8t-20 19t-16 23t-6.5 20q0 26 6 61t15.5 72.5t21 74.5t22 65.5t19.5 46.5t14 18q9 0 20 -3.5t21 -8t17.5 -10t10.5 -9.5q-5 -9 -14.5 -28t-20.5 -46.5t-22.5 -62t-21.5 -73.5q17 39 38.5 78t42 70t36.5 50.5t23 19.5q4 0 12.5 -4t18.5 -10.5t18.5 -14.5
t12.5 -17q-8 -14 -19.5 -39t-24 -56.5t-24 -67.5t-18.5 -71q13 43 38 92t51.5 91t49.5 69.5t31 27.5q4 0 12.5 -4t18.5 -10.5t18.5 -14.5t12.5 -17q-8 -14 -20.5 -41.5t-25.5 -61.5t-25 -72.5t-18 -75.5q15 17 32.5 40.5t33 48t27.5 46.5t17 36q8 -1 6 -19.5t-11 -45
t-22.5 -57.5t-28 -57t-28.5 -43.5t-23 -17.5z" />
    <glyph glyph-name="n" unicode="n" horiz-adv-x="276" 
d="M241 385q4 0 13 -4t19.5 -10.5t19.5 -14.5t13 -17q-8 -14 -20.5 -41.5t-26 -62.5t-25.5 -73.5t-18 -75.5q15 17 32.5 41t33 48.5t28 47t17.5 36.5q8 -1 6 -19.5t-11 -45t-22.5 -57.5t-28 -57t-28.5 -43.5t-23 -17.5t-22 6.5t-25 15.5t-20.5 19t-8.5 17q0 16 4.5 38
t11.5 47t16.5 51t18.5 51q-18 -26 -39 -64t-40 -77t-33 -72.5t-18 -50.5q-8 0 -18.5 8t-20 19t-16 23t-6.5 20q0 26 6 61t15.5 72.5t21 74.5t22 65.5t19.5 46.5t14 18q9 0 20 -3.5t21 -8t17.5 -10t10.5 -9.5q-6 -9 -15.5 -29t-20.5 -48.5t-23 -64.5t-22 -76q18 40 41 80.5
t45 72.5t40 52.5t25 20.5z" />
    <glyph glyph-name="o" unicode="o" horiz-adv-x="251" 
d="M367 333q-5 -8 -17 -18.5t-28 -20.5t-35.5 -19t-39.5 -15q-4 -42 -18 -88t-34 -84.5t-44 -63t-48 -24.5q-10 0 -26.5 6t-32 19t-26.5 31.5t-11 44.5t6 59t16.5 66.5t26 65.5t33.5 57t38.5 40t42.5 15q11 0 21.5 -7.5t20.5 -19t18.5 -25t15.5 -24.5l3 -23q26 2 51.5 9
t66.5 19zM172 249q-15 3 -15 30q0 11 2.5 25t5.5 29q-14 -17 -28.5 -49.5t-26 -69.5t-19 -72t-7.5 -56q0 -24 10 -24t23.5 16.5t26.5 43.5t25 60.5t19 67.5q-5 -1 -9.5 -1h-6.5z" />
    <glyph glyph-name="p" unicode="p" horiz-adv-x="271" 
d="M7 -171q-4 0 -15 3.5t-21.5 9.5t-18.5 15t-6 19q10 56 25 117t31.5 120t33 111.5t30 92.5t22.5 64t10 24q9 1 21.5 0.5t24.5 -2.5t21 -5t12 -6q-8 -3 -23 -38t-33 -88q28 61 53 98.5t41 37.5q5 0 14.5 -6t19.5 -14.5t18 -18.5t10 -18q3 -13 1.5 -32t-6 -41.5t-12 -47
t-16.5 -49.5q29 21 53.5 42.5t38.5 41.5q5 -16 -4 -36t-28 -41.5t-44 -42.5t-51 -40q-12 -21 -25 -39t-27 -30t-28 -17.5t-27 -1.5q-16 4 -28.5 13t-21.5 20q-10 -35 -18 -68t-14 -61t-9.5 -50.5t-3.5 -35.5zM210 347q-3 0 -17 -17t-33.5 -49t-43 -78t-45.5 -104l11 -15
q22 8 45 20q16 25 32 63t27.5 74.5t18 66.5t5.5 39z" />
    <glyph glyph-name="q" unicode="q" horiz-adv-x="268" 
d="M152 -172q-4 0 -15 3.5t-21.5 9.5t-18.5 15t-6 19q11 63 31 136.5t39 138.5q-10 -26 -21 -53t-22.5 -48.5t-23 -35t-20.5 -13.5q-5 0 -14 3t-19 10t-18.5 18t-11.5 26q-5 20 -1.5 56t13 76.5t24.5 82t33.5 73.5t39.5 50t43 12q17 -5 33 -15t30 -23q12 33 14 35q8 4 20 4
t23.5 -2.5t21 -7t11.5 -8.5q-15 -35 -33 -83.5t-36.5 -103t-35.5 -111t-30 -107t-21 -92t-8 -65.5zM74 71q3 0 16 20t32 54.5t42 79.5t46 95l3 11q-13 14 -22.5 15t-18.5 -9q-12 -12 -24.5 -34t-24 -49.5t-21 -56.5t-16.5 -55t-10 -45t-2 -26z" />
    <glyph glyph-name="r" unicode="r" horiz-adv-x="251" 
d="M180 306q-2 8 -11 19.5t-23 22.5q-11 -22 -24.5 -53.5t-27 -66.5t-26.5 -71t-22.5 -67.5t-13.5 -55t0 -34.5q-7 0 -16.5 5.5t-18.5 13.5t-15 18t-6 19q0 11 7.5 35t19 54.5t26 65t29 66t27 58t20.5 42.5q-11 7 -10.5 24t7 35t17.5 32.5t22 16.5q6 1 15.5 -3t19 -10.5
t18 -13.5t13.5 -12q-7 -5 -14.5 -13.5t-12 -17.5t-4.5 -18.5t8 -16.5q35 -31 49.5 -50.5t17 -33.5t-3 -25.5t-10.5 -26.5q-12 -32 -26 -75t-23 -88q16 19 34 44.5t34 51t28.5 47.5t17.5 35q9 -2 6 -22t-14 -49t-27 -62t-32.5 -61t-32 -46.5t-24.5 -18.5q-8 0 -20.5 8
t-23.5 19.5t-19 23t-8 17.5q0 21 7.5 48.5t18 58.5t23 64.5t24.5 66.5z" />
    <glyph glyph-name="s" unicode="s" horiz-adv-x="217" 
d="M345 348q-17 -17 -50.5 -43t-75.5 -42q-11 -20 -23 -35.5t-22 -15.5q-9 4 -13.5 17t-6.5 28t-0.5 27.5t4.5 15.5q10 0 27 3q4 16 3.5 28.5t-2.5 18.5q-8 0 -17.5 -6t-19 -15.5t-16.5 -22.5t-9 -27q-3 -19 6.5 -41.5t22 -45t23 -44.5t9.5 -39q-1 -12 -9.5 -30.5t-23 -36
t-35 -30t-45.5 -12.5q-19 0 -34.5 19.5t-25.5 46t-13.5 54t1.5 42.5q10 -28 26.5 -48t33 -32t30 -15.5t18.5 1.5q8 9 -1 31t-23 51.5t-26.5 63t-11.5 64.5q1 33 13.5 57.5t28.5 41t32.5 25t26.5 8.5t27 -8.5t33.5 -20.5t28 -24.5t11.5 -20.5q0 -6 -5 -21q17 4 33.5 8.5
t30.5 9t24.5 8.5t14.5 7z" />
    <glyph glyph-name="t" unicode="t" horiz-adv-x="145" 
d="M16 433q-23 2 -35.5 14t-8.5 17q20 1 52 3.5t97 4.5q15 39 27 62.5t17 23.5q8 0 19 -3.5t21.5 -9t19 -11t10.5 -9.5q-5 -5 -12.5 -17.5t-16.5 -32.5q55 1 97 0.5t54 -5.5q5 -2 9.5 -9t7.5 -15t4.5 -15.5t0.5 -10.5q-10 3 -29 5.5t-44.5 3.5t-56 2t-61.5 1
q-14 -36 -29.5 -80t-30.5 -89.5t-28 -90.5t-22 -82q17 18 36 42.5t36 48.5t30 45t18 34q10 -2 6.5 -21.5t-16 -48.5t-30.5 -62.5t-36.5 -61.5t-34.5 -47t-24 -19q-4 0 -14 7.5t-20 19.5t-17.5 25t-6.5 23q4 36 14.5 81.5t24.5 93t30 94.5t31 87h-38h-23t-15 0.5t-13 1.5z
" />
    <glyph glyph-name="u" unicode="u" 
d="M103 408q9 0 20.5 -3.5t22 -9t17.5 -11t9 -8.5q-10 -15 -21.5 -41.5t-23.5 -58.5t-22.5 -65t-19 -62t-12.5 -50t-3 -28q3 0 13.5 16.5t26.5 44.5t35.5 66t40.5 81q15 49 30 83.5t23 34.5q9 0 20.5 -3.5t22 -8t19 -10.5t11.5 -10q-7 -11 -18.5 -35.5t-25 -59.5t-26 -80
t-20.5 -96q16 18 32.5 41t31.5 46.5t26 44t16 33.5q9 -2 6.5 -21t-12 -46t-24 -57.5t-30.5 -56.5t-30.5 -43.5t-23.5 -17.5t-20 8t-21 19t-17 23t-7 20q0 12 1.5 25.5t3.5 28.5q-10 -25 -21 -50t-22 -45.5t-21.5 -33t-19.5 -12.5q-5 0 -14 3t-19 10t-18.5 18t-11.5 26
q-5 21 -1 54.5t13 72.5t21.5 79t24.5 72t22.5 52.5t15.5 20.5z" />
    <glyph glyph-name="v" unicode="v" horiz-adv-x="264" 
d="M101 71q10 7 36.5 63t60.5 150q-7 28 -2.5 51t14 39t20.5 24.5t17 8.5q3 0 10.5 -4t16 -9.5t16.5 -12t11 -12.5l-16 -44q13 3 31 8.5t36 12t34.5 13.5t27.5 13q-1 -6 -5 -13q-4 -6 -11 -14t-18 -18q-29 -24 -60 -36.5t-55 -16.5q-21 -51 -43.5 -100t-43.5 -88t-39 -62.5
t-30 -23.5q-5 0 -17.5 5t-25.5 13t-24 18t-12 21q-3 23 -1 58t7 73.5t12.5 77.5t15.5 70t15.5 51t12.5 20q9 0 21 -3.5t22.5 -8.5t18 -10.5t9.5 -8.5q-5 -2 -13 -24t-16 -54.5t-15.5 -70.5t-12.5 -71.5t-7 -57t2 -27.5z" />
    <glyph glyph-name="w" unicode="w" horiz-adv-x="401" 
d="M101 71q10 7 33.5 55.5t55.5 136.5q10 54 21 91.5t19 38.5q9 0 20.5 -3.5t22 -8.5t17.5 -10.5t9 -8.5q-5 -1 -12.5 -22.5t-16 -52.5t-15.5 -67t-12.5 -68t-7 -54.5t2.5 -26.5q10 7 36.5 63t60.5 150q-7 28 -2.5 51t14 39t20.5 24.5t17 8.5q3 0 10.5 -4t16 -9.5t16.5 -12
t11 -12.5l-16 -44q13 3 31 8.5t36 12t34.5 13.5t27.5 13q-1 -6 -5 -13q-4 -6 -11 -14t-18 -18q-29 -24 -60 -36.5t-55 -16.5q-21 -51 -43.5 -100t-43.5 -88t-39 -62.5t-30 -23.5q-5 0 -16.5 5t-23.5 13t-22 18t-11 21q-2 14 -2.5 32.5t1.5 39.5q-23 -57 -44.5 -93t-37.5 -36
q-5 0 -14.5 5t-19 13t-17.5 18t-9 21q-3 23 -0.5 58t8.5 73.5t15 77.5t18 70t17 51t13 20q9 0 20.5 -3.5t22 -8.5t17.5 -10.5t9 -8.5q-5 -2 -13.5 -24t-17 -54.5t-17.5 -70.5t-14.5 -71.5t-8 -57t1.5 -27.5z" />
    <glyph glyph-name="x" unicode="x" horiz-adv-x="267" 
d="M189 19q-7 0 -17 3t-20 7.5t-18 10t-11 11.5q-7 11 -12.5 30t-10.5 44q-29 -34 -56.5 -65.5t-52.5 -59.5q-3 7 -2.5 17t3.5 20.5t7 21t9 18.5q16 23 37.5 52t44.5 60q-3 28 -5.5 57t-3.5 54t-0.5 44t2.5 29q2 7 10 13t20 10.5t25.5 7t25.5 1.5q-2 -23 -3 -56.5t1 -71.5
q22 27 42.5 50.5t36.5 41t27 27.5t15 10q8 0 15.5 -3.5t14 -9t11 -10.5t5.5 -8q-28 -25 -71 -71.5t-92 -102.5q3 -35 8 -66.5t13 -54.5q19 16 41 40.5t43 50.5t37.5 50t23.5 38q8 -1 3.5 -19.5t-17.5 -45t-31.5 -57.5t-37 -57t-35 -43.5t-25.5 -17.5z" />
    <glyph glyph-name="y" unicode="y" horiz-adv-x="261" 
d="M148 -172q-4 0 -15 3.5t-21.5 9.5t-18.5 15t-6 19q11 62 27.5 126.5t33.5 126.5q-9 -24 -19.5 -47t-20.5 -41t-19.5 -29t-18.5 -11q-5 0 -14 3t-19 10t-18.5 18t-11.5 26q-5 21 -1 54.5t13 72.5t21.5 79t24.5 72t22.5 52.5t15.5 20.5q9 0 20.5 -3.5t22 -9t17.5 -11
t9 -8.5q-10 -15 -21.5 -41.5t-23.5 -58.5t-22.5 -65t-19 -62t-12.5 -50t-3 -28q3 0 16 20t31.5 54t41.5 79t46 95q11 34 18.5 54t9.5 21q8 4 19.5 2t22.5 -7.5t20 -12t11 -10.5q-15 -35 -33 -81.5t-35.5 -98.5t-33.5 -105.5t-28.5 -101.5t-20 -87.5t-7.5 -63.5z" />
    <glyph glyph-name="z" unicode="z" horiz-adv-x="249" 
d="M33 245q0 7 8 21.5t21 32.5t30.5 37t36 35t37 26t35.5 10h2q10 -1 18 -11q9 -8 18.5 -19t17 -23t13 -23.5t6.5 -18.5q0 -21 -12.5 -49t-33.5 -58t-47.5 -61t-54.5 -58q45 -3 87.5 -0.5t73.5 0.5q-6 -6 -34.5 -16t-63.5 -19t-70.5 -15.5t-56.5 -5.5q-26 -21 -46 -29
q-11 5 -14 17.5t0 27.5t11 31.5t20 29.5q11 -5 28 -10q22 27 48 65t48 76.5t35.5 71t12.5 49.5q-15 -8 -37.5 -33t-43 -53t-34.5 -51.5t-12 -28.5q-4 0 -12 5t-15.5 12.5t-13.5 16.5t-6 18z" />
    <glyph glyph-name="braceleft" unicode="{" horiz-adv-x="254" 
d="M35 31q4 19 10.5 41t13.5 43.5t13.5 40t9.5 30.5q14 47 11 63q-12 -3 -25 -4t-26 -1q-3 0 -2.5 12t3 27t6.5 27t8 12q11 0 22.5 -3.5t22.5 -8.5q22 14 31.5 39t17.5 53l34 119q16 54 45.5 72t68.5 18q3 0 11 -7.5t16 -17.5t14 -19.5t6 -13.5q-17 0 -30.5 -1t-25 -6.5
t-20 -18t-15.5 -35.5l-32 -112q-11 -42 -30.5 -69t-45.5 -42q11 -18 15 -40.5t-3 -46.5t-15.5 -50t-16.5 -49.5t-14 -43t-9 -29.5q-3 -15 0.5 -23.5t10.5 -13t15.5 -6t13.5 -2.5q-3 -6 -10 -13.5t-14.5 -15t-14.5 -12.5t-10 -5q-19 0 -32.5 9t-21 24.5t-9.5 36t3 42.5z" />
    <glyph glyph-name="bar" unicode="|" horiz-adv-x="240" 
d="M325 598q-5 0 -16.5 -26t-28 -69t-36.5 -99.5t-40.5 -118t-40.5 -123t-36.5 -115t-28.5 -95t-17 -61.5q-4 0 -11 1t-13.5 4t-11.5 7.5t-5 12.5q2 19 12.5 60t25 95t33 117t38 125.5t38.5 120.5t34.5 102.5t26 71t14.5 26.5q9 0 19 -3.5t19 -9t15.5 -11.5t9.5 -12z" />
    <glyph glyph-name="braceright" unicode="}" horiz-adv-x="346" 
d="M323 499q-4 -19 -10.5 -41t-13.5 -43.5t-13.5 -40t-9.5 -30.5q-7 -24 -10.5 -39t-1.5 -24q13 2 25.5 3.5t26.5 1.5q3 0 2.5 -12t-3 -27t-6.5 -27t-8 -12q-24 0 -46 12q-22 -14 -31 -39.5t-17 -52.5l-34 -119q-16 -54 -45.5 -72t-68.5 -18q-3 0 -11 7.5t-16 17.5t-14 19.5
t-6 13.5q17 0 30.5 1t25 6.5t20 18t15.5 35.5l32 112q11 42 30.5 68.5t45.5 42.5q-11 18 -15.5 40t3.5 47q7 24 15.5 50t16.5 49.5t14 43t9 29.5q3 15 -6.5 23.5t-23 13t-27.5 6t-19 2.5q3 6 10 13.5t14.5 15t14.5 12.5t10 5q28 0 48.5 -9t32.5 -24.5t16 -36t-1 -42.5z" />
    <glyph glyph-name="asciitilde" unicode="~" horiz-adv-x="392" 
d="M164 181q-15 0 -28.5 9t-24 21t-17 24.5t-6.5 20.5q0 4 4 8t8.5 7.5t9 6t5.5 2.5q12 -24 38.5 -27.5t57 2t60 14t47.5 8.5q15 0 26.5 -9t20 -21t12.5 -24t4 -19q0 -4 -4 -8.5t-8.5 -8.5t-9 -7t-5.5 -3q-14 22 -35 25.5t-46.5 -1t-53.5 -12.5t-55 -8z" />
    <glyph glyph-name="uni00A0" unicode="&#xa0;" horiz-adv-x="154" 
 />
    <glyph glyph-name="exclamdown" unicode="&#xa1;" horiz-adv-x="230" 
d="M177 545q0 5 3.5 15t10.5 19.5t18 17t27 7.5q22 0 29 -15.5t5 -34.5t-11.5 -34.5t-21.5 -15.5q-26 0 -42.5 10t-17.5 31zM180 454q4 0 13.5 -4t18.5 -11t16 -15.5t6 -16.5q-2 -28 -11 -68t-21.5 -84t-27 -87.5t-28 -78t-24 -56t-15.5 -21.5q-8 0 -20.5 3.5t-24.5 9
t-21.5 11t-11.5 9.5q12 16 27 46.5t30.5 68t31.5 79.5t28.5 82t21.5 75t12 58z" />
    <glyph glyph-name="cent" unicode="&#xa2;" horiz-adv-x="267" 
d="M256 596q2 0 8 -4t13 -9.5t13.5 -12t9.5 -12.5q-7 -4 -16 -20t-18 -38q14 -13 25 -26.5t13 -26.5q3 -27 -9 -51t-29.5 -41t-35 -24t-25.5 -1q10 16 19 37.5t15 42t8.5 38t-0.5 27.5q-10 0 -22.5 -16.5t-25.5 -42t-24.5 -56t-18.5 -58.5t-8 -49t8 -27q10 -8 24 -5t29 11
t29.5 18.5t24.5 18.5q8 -6 1 -23.5t-23 -36t-37 -33t-40 -14.5q-6 0 -9 1q-7 -20 -11.5 -38.5t-7.5 -33.5q-4 0 -11 1.5t-13 4.5t-10.5 8.5t-4.5 13.5q1 12 5.5 31.5t10.5 41.5q-14 15 -23.5 33t-9.5 32q0 45 13 93.5t33 88.5t45 66t48 26q1 0 2 -0.5t2 -0.5q4 12 9 23.5
t9.5 21t8.5 15.5t6 6z" />
    <glyph glyph-name="sterling" unicode="&#xa3;" horiz-adv-x="337" 
d="M271 337q5 0 8.5 -6t5 -14.5t2 -17.5t0.5 -15q-28 2 -62 -1t-66 -8q-7 -16 -13 -32t-13 -33q20 -9 40.5 -21t41.5 -22.5t43.5 -17.5t47.5 -7q-1 -3 -6 -11t-11.5 -17.5t-14 -18.5t-13.5 -13q-11 -8 -28.5 -3t-38 16.5t-43 27t-45 29.5t-43.5 24t-38 10q5 13 19.5 26.5
t24.5 13.5h4q8 22 14 40h-13q-5 0 -9 6.5t-6 16t-2.5 20.5t0.5 19q8 -2 21.5 -2.5t30.5 0.5q22 59 45 109t44.5 86t40.5 56t34 20q7 0 23.5 -9t32.5 -23.5t28.5 -33.5t12.5 -39q0 -21 -11 -36.5t-27 -27t-33 -17.5t-29 -7q17 24 26 47t12 40.5t0.5 28.5t-8.5 11
q-7 0 -19.5 -15t-28 -42t-33.5 -64t-37 -80q28 2 52 4.5t37 2.5z" />
    <glyph glyph-name="currency" unicode="&#xa4;" horiz-adv-x="351" 
d="M325 448q15 -45 5 -83.5t-32 -66.5q8 -13 21 -32t21 -28q-9 -16 -25.5 -26t-29.5 -16q-5 8 -15 25.5t-20 35.5q-13 -7 -26 -7q-14 0 -33.5 3t-38.5 13q-15 -14 -28 -25.5t-22 -19.5q-6 0 -23 8t-30 26q14 11 29 23t31 26q-2 4 -4.5 8t-4.5 9q-6 24 -4 49t10 47.5t21 41.5
t29 32l-30 57q2 6 10 12t18.5 11t20.5 8t17 3q3 -14 8.5 -31t12.5 -37q12 0 30 -5t35 -15q12 11 28.5 29t22.5 37q10 -1 29.5 -11t27.5 -29q-13 -9 -32.5 -28t-34.5 -33zM191 293q10 0 22 10.5t23 27.5t19.5 38t11.5 41t-1 37t-17 27q-16 -1 -31 -14.5t-26 -33.5
t-18.5 -43.5t-8.5 -43t5 -33t21 -13.5z" />
    <glyph glyph-name="yen" unicode="&#xa5;" horiz-adv-x="339" 
d="M290 249q5 0 8.5 -6t5 -14.5t2 -17.5t0.5 -15q-19 2 -39.5 0.5t-40.5 -3.5q-27 -103 -15 -111q-6 0 -18 5.5t-23.5 13.5t-20.5 18t-9 19q0 8 2.5 18.5t6.5 24.5q-23 -3 -41 -3q-5 0 -9 6.5t-6 16t-2.5 20.5t0.5 19q11 -3 31.5 -3t44.5 2l8 26q-26 -3 -45 -3q-5 0 -9 6.5
t-6.5 16t-3 20.5t0.5 19q10 -3 29.5 -3t42.5 1q-7 27 -17.5 62t-21.5 67.5t-20.5 57t-15.5 32.5q3 5 10.5 12t17 14t19.5 13t17 9q6 -25 13.5 -56.5t15 -63.5t13.5 -61t10 -49q5 13 14.5 35.5t20.5 48.5t22 53t19.5 49.5t12.5 37.5t2 18q5 0 18 -4.5t26 -11.5t23 -14t10 -11
t-6.5 -19t-17.5 -36t-24 -46t-26.5 -49t-25 -45.5t-19.5 -35.5q18 2 33 3t24 1q5 0 8.5 -6t5 -14.5t2 -17.5t0.5 -15q-21 2 -46.5 0t-51.5 -5l-9 -29q30 3 50 3z" />
    <glyph glyph-name="brokenbar" unicode="&#xa6;" horiz-adv-x="241" 
d="M183 219q-6 -17 -19 -55t-28 -85t-30 -97t-25 -91q-4 0 -11 1t-13.5 4t-11.5 7.5t-5 12.5q5 25 13.5 57t17.5 66.5t18.5 68.5t17.5 63t13.5 49.5t7.5 27.5q2 0 10 -2.5t17 -6.5t17 -9t11 -11zM326 598q-8 -1 -23 -35t-33 -82t-35.5 -99.5t-30.5 -88.5q-4 0 -11.5 1.5
t-16 5t-15.5 8.5t-10 12q5 17 14 46.5t20.5 64.5t24 71t23 65.5t19 48t11.5 18.5q9 0 19 -3.5t19 -9t15.5 -11.5t9.5 -12z" />
    <glyph glyph-name="section" unicode="&#xa7;" horiz-adv-x="482" 
d="M562 549q-1 -11 -13 -24.5t-31 -27t-41.5 -26.5t-43 -22.5t-37.5 -14.5t-24 -4q41 54 67.5 87t37.5 51.5t7.5 25t-22.5 6.5q-31 0 -71.5 -7t-78 -24t-66 -45t-34.5 -70q-4 -23 13 -40t44.5 -31t60 -26.5t60 -26.5t44.5 -31t14 -39q-8 -48 -29.5 -82t-50.5 -57
q22 -13 34.5 -28t9.5 -35q-15 -94 -66.5 -142t-121.5 -44q-36 2 -69 22t-57.5 48.5t-37.5 61t-9 61.5q1 12 6.5 26t12.5 27t14 22.5t13 11.5q8 -66 28 -109.5t44.5 -68t51.5 -33.5t50 -5.5t39 16t19 30.5q4 25 -10.5 45t-38.5 37.5t-52.5 34t-53.5 36.5t-42 44.5t-17 56.5
q0 34 26 61t62 46q-23 19 -37.5 42t-14.5 53q-2 63 25.5 109t70 76t93.5 45t97 15q8 0 27 -10.5t39 -28.5t37 -42.5t22 -52.5zM192 249q-3 -20 8 -35t31 -27.5t45.5 -23t49.5 -21.5q34 13 39 42q3 20 -6 36.5t-25 31t-37 28t-43 27.5q-24 -10 -41.5 -24t-20.5 -34z" />
    <glyph glyph-name="dieresis" unicode="&#xa8;" horiz-adv-x="223" 
d="M195 550q0 -6 -2.5 -16t-8 -19.5t-14.5 -16.5t-21 -7q-18 0 -24 15.5t-4 34.5t9.5 34.5t16.5 15.5q20 0 33.5 -11t14.5 -30zM313 553q0 -6 -3 -16.5t-9.5 -21t-16.5 -18t-23 -7.5q-19 0 -25.5 16.5t-4.5 36.5t10 36.5t19 16.5q23 0 37.5 -10.5t15.5 -32.5z" />
    <glyph glyph-name="copyright" unicode="&#xa9;" horiz-adv-x="329" 
d="M230 343q24 0 43 9t33.5 24t23 34t11.5 39q3 22 -0.5 43t-14 37.5t-28.5 27t-44 10.5q-23 0 -41.5 -9t-32 -24t-22 -34.5t-11.5 -39.5q-3 -22 -0.5 -43t12.5 -37.5t27.5 -26.5t43.5 -10zM229 312q-33 0 -57.5 13t-39.5 34t-21 48t-2 55q3 26 14.5 50.5t30 43.5t44 30.5
t57.5 11.5q36 0 60.5 -12.5t39.5 -33.5t20.5 -47.5t2.5 -53.5q-3 -26 -14.5 -51t-30.5 -44.5t-45 -31.5t-59 -12zM302 503q0 -7 -3 -15.5t-9 -16t-14.5 -12.5t-18.5 -4q4 7 7.5 16.5t5 18.5t1 15.5t-3.5 6.5q-14 0 -26.5 -18t-18.5 -39.5t-3 -39.5t20 -18q6 0 12.5 4
t12.5 10t11 12t8 10q4 -3 2.5 -13t-7.5 -21t-16 -19.5t-22 -8.5q-11 0 -29 9t-23 23q-7 17 -4 41t13 45.5t25 36.5t32 15q3 0 11 -3.5t16 -9.5t14.5 -12.5t6.5 -12.5z" />
    <glyph glyph-name="ordfeminine" unicode="&#xaa;" horiz-adv-x="319" 
d="M269 235q-6 0 -15.5 7.5t-18 18t-15 21t-6.5 16.5v10t1 10q-8 -16 -16 -31t-15.5 -26.5t-14.5 -18.5t-12 -7q-3 0 -11 2.5t-16.5 7.5t-16 13t-10.5 19q-3 14 -0.5 39.5t9.5 55t17.5 59.5t23.5 53t28 36t31 9q14 -4 27.5 -12t24.5 -17q13 29 19 29t15.5 -2.5t18.5 -6
t16.5 -7.5t9.5 -7q-6 -9 -17.5 -35t-23 -63t-21 -82t-12.5 -91zM271 213q6 0 10.5 -6t7 -15t4 -18.5t1.5 -16.5q-19 1 -44 0.5t-52.5 -1t-55 -1.5t-50.5 -1q-6 0 -10.5 6t-7 15.5t-3.5 20.5t1 21q16 -3 42.5 -4t55 -1t55.5 0.5t46 0.5zM250 465q-9 9 -15 9t-12 -6
q-13 -14 -24.5 -39.5t-20 -52t-13 -49t-3.5 -29.5q2 0 9 10.5t18 28.5t24 43t27 54z" />
    <glyph glyph-name="guillemotleft" unicode="&#xab;" horiz-adv-x="414" 
d="M232 277q5 4 18 13.5t29 22t33.5 27t31.5 28t22.5 24t7.5 16.5q3 -2 10 -9t13.5 -16t11.5 -18t4 -14q-9 -8 -31.5 -26t-63.5 -48q7 -11 17.5 -24.5t21 -26.5t19.5 -23.5t14 -14.5q-3 -8 -10.5 -16.5t-16 -15.5t-16.5 -12t-13 -5q-5 3 -19 21.5t-30 41.5t-31 44.5
t-22 30.5zM90 277q5 4 18 13.5t29 22t33.5 27t31.5 28t22.5 24t7.5 16.5q3 -2 10 -9t13.5 -16t11.5 -18t4 -14q-9 -8 -31.5 -26t-63.5 -48q7 -11 17.5 -24.5t21 -26.5t19.5 -23.5t14 -14.5q-3 -8 -10.5 -16.5t-16 -15.5t-16.5 -12t-13 -5q-5 3 -19 21.5t-30 41.5t-31 44.5
t-22 30.5z" />
    <glyph glyph-name="logicalnot" unicode="&#xac;" horiz-adv-x="465" 
d="M372 71q-2 0 -11 3t-19 9.5t-18 15.5t-8 21q0 1 2 8.5t6 17.5t8 21.5t9 21.5q-29 0 -63 -1t-66 -1.5t-59 -1t-43 -0.5q-6 0 -10.5 7t-7 17.5t-3.5 22t1 21.5q16 -3 54 -4t80.5 -1t81 0.5t57.5 0.5q6 0 14.5 -7t16.5 -17t13.5 -20t5.5 -17q-6 -10 -12 -25.5t-11.5 -32
t-10 -32.5t-7.5 -27z" />
    <glyph glyph-name="uni00AD" unicode="&#xad;" horiz-adv-x="323" 
d="M293 249q6 0 10.5 -7t7 -17t4 -20t1.5 -17q-19 1 -44 0.5t-52.5 -1t-55 -1.5t-50.5 -1q-6 0 -10.5 7t-7 17.5t-3.5 22t1 21.5q16 -3 42.5 -4t55 -1t55.5 0.5t46 0.5z" />
    <glyph glyph-name="registered" unicode="&#xae;" horiz-adv-x="329" 
d="M229 312q-33 0 -57.5 13t-39.5 34t-21 48t-2 55q3 26 14.5 50.5t30 43.5t44 30.5t57.5 11.5q36 0 60.5 -12.5t39.5 -33.5t20.5 -47.5t2.5 -53.5q-3 -26 -14.5 -51t-30.5 -44.5t-45 -31.5t-59 -12zM230 343q24 0 43 9t33.5 24t23 34t11.5 39q3 22 -0.5 43t-14 37.5
t-28.5 27t-44 10.5q-23 0 -41.5 -9t-32 -24t-22 -34.5t-11.5 -39.5q-3 -22 -0.5 -43t12.5 -37.5t27.5 -26.5t43.5 -10zM312 499q0 -18 -17.5 -35t-44.5 -26q19 -23 28 -30t13 -7q0 -2 -3 -6t-7 -7.5t-8 -6t-6 -2.5q-8 0 -22.5 17t-24.5 36q-2 0 -2.5 -0.5t-1.5 -0.5
q-6 -18 -8.5 -33t1.5 -20q-2 0 -6.5 1t-10 3t-10 4t-4.5 4q0 9 4 24.5t9.5 32.5t11.5 33t11 27q-10 -4 -10 -7q-2 2 -0.5 16t6.5 19q5 2 17.5 4t25.5 2q32 0 45.5 -13t13.5 -29zM226 461q16 2 31.5 10t23 17.5t2 17t-32.5 7.5q-5 -7 -11.5 -21t-12.5 -31z" />
    <glyph glyph-name="macron" unicode="&#xaf;" horiz-adv-x="833" 
 />
    <glyph glyph-name="degree" unicode="&#xb0;" horiz-adv-x="191" 
d="M254 557q9 -26 5.5 -52t-16.5 -47t-31.5 -34.5t-39.5 -13.5q-4 0 -13 2t-19.5 6.5t-20 13t-15.5 22.5q-7 27 -1.5 52.5t17.5 46t28.5 33t31.5 12.5q7 0 18.5 -2.5t22.5 -8t20 -13t13 -17.5zM162 449q9 0 20 15t18.5 34t8.5 37.5t-9 25.5q-13 0 -24.5 -17.5t-18.5 -38.5
t-6.5 -38.5t11.5 -17.5z" />
    <glyph glyph-name="plusminus" unicode="&#xb1;" horiz-adv-x="363" 
d="M218 88q-2 0 -9.5 0.5t-17 2.5t-18 6.5t-11.5 13.5q1 32 11 75q-21 -1 -39.5 -1h-31.5q-6 0 -10.5 7t-7 17.5t-3.5 22t1 21.5q14 -3 42.5 -4.5t62.5 -1.5q12 45 24.5 80t19.5 43q12 0 32 -7t30 -16q-6 -5 -17.5 -33t-22.5 -66q27 0 50 0.5t37 0.5q6 0 10.5 -7t7 -17
t4 -20t1.5 -17q-19 1 -53.5 1t-72.5 -1q-8 -28 -12.5 -54t-6.5 -46zM280 62q6 0 10.5 -7t7 -17t4 -20t1.5 -17q-19 1 -53.5 0.5t-73 -1t-75 -1.5t-59.5 -1q-6 0 -10.5 7t-7 17.5t-3.5 22t1 21.5q16 -3 51.5 -4t75 -1t76 0.5t55.5 0.5z" />
    <glyph glyph-name="uni00B2" unicode="&#xb2;" horiz-adv-x="319" 
d="M97 300q53 54 93 99.5t65 79t34.5 54.5t1.5 27q-5 3 -21.5 -9.5t-35 -29.5t-32.5 -34t-13 -23q-17 14 -27 28t-10 19q0 7 12.5 21.5t31 29t40 25.5t39.5 11q7 0 19.5 -6t24.5 -16t21 -23.5t9 -27.5q0 -22 -16 -48.5t-40.5 -56t-55 -59.5t-59.5 -59q17 6 34.5 10t32.5 5.5
t26 0.5t14 -3t3 -10.5t-1.5 -19t-3.5 -21t-3 -14.5q-5 6 -23 10t-41 4.5t-48 -3t-44 -11.5q-7 3 -12.5 10t-9.5 15t-5.5 15t0.5 10z" />
    <glyph glyph-name="uni00B3" unicode="&#xb3;" horiz-adv-x="306" 
d="M336 543q0 -12 -8.5 -27t-22 -30t-30 -28t-32.5 -20q14 -3 24.5 -9t17 -13.5t10 -15t3.5 -12.5q0 -22 -15 -45.5t-36.5 -43.5t-45.5 -33t-41 -13q-3 0 -12 2.5t-20 6.5t-21.5 10t-16.5 12q24 0 50.5 13t47 30.5t30.5 35.5t2 27q-8 8 -23.5 8t-23.5 -2q-3 3 -5.5 11t-4 16
t-2 14.5t1.5 7.5q43 28 68 48.5t37 35t14 22t0 9.5q-4 3 -20.5 -3.5t-35 -17t-34 -21t-16.5 -16.5q-3 1 -7.5 7.5t-9 14t-7.5 15t-3 12.5t13.5 13.5t33 17t40.5 15t37 6.5q11 0 22 -7t20 -16.5t15 -20t6 -16.5z" />
    <glyph glyph-name="acute" unicode="&#xb4;" horiz-adv-x="167" 
d="M110 488q12 10 28 28.5t30 38t24 37.5t10 26q9 0 20.5 -4.5t21.5 -11t16.5 -13.5t6.5 -12t-14 -20t-36.5 -31t-50.5 -28t-56 -10z" />
    <glyph glyph-name="mu" unicode="&#xb5;" horiz-adv-x="281" 
d="M332 259q9 -2 6.5 -21t-12 -46t-24 -57.5t-30.5 -56.5t-30.5 -43.5t-23.5 -17.5t-20 8t-21 19t-17 23t-7 20q0 12 1 25.5t3 28.5q-9 -25 -20 -50t-22 -45.5t-21.5 -33t-19.5 -12.5q-10 0 -20 5q-7 -34 -12 -64t-7 -53.5t-1 -39t5 -19.5q-4 0 -16 3.5t-24.5 10.5
t-23.5 15.5t-12 17.5q8 80 22 152.5t28.5 129.5t27 96.5t18.5 53.5q15 43 28.5 71t19.5 29q9 0 20.5 -3.5t22 -9t17.5 -11t9 -8.5q-10 -15 -21.5 -41.5t-23.5 -58.5t-22.5 -65t-19 -62t-12.5 -50t-3 -28q3 0 13.5 16.5t26.5 44.5t35.5 65.5t40.5 80.5q15 50 30 84.5t23 34.5
q9 0 20.5 -3.5t22 -8t19 -10.5t11.5 -10q-7 -11 -19 -35.5t-25 -59.5t-25.5 -80t-20.5 -96q16 18 32.5 41t31.5 46.5t26 44t16 33.5z" />
    <glyph glyph-name="paragraph" unicode="&#xb6;" horiz-adv-x="519" 
d="M514 599q8 0 17.5 -6t18.5 -15t15.5 -18t8.5 -15q-8 0 -23.5 -26.5t-35.5 -70t-42.5 -99.5t-44.5 -115.5t-41.5 -117.5t-34 -105.5t-22 -79.5t-5.5 -40q-5 0 -14 7t-18 16t-15.5 18t-6.5 13q0 12 10 49t27 89.5t38.5 114t44 123t44.5 117t40 94.5h-43q-12 -17 -29 -51.5
t-36.5 -80.5t-40 -99.5t-40 -108t-36.5 -105.5t-29.5 -92.5t-18.5 -69t-4 -34.5q-5 0 -14 7t-18 16t-15.5 18t-6.5 13q0 10 6.5 36t18 63.5t27 83.5t33.5 96q-59 0 -91.5 27.5t-40.5 69.5t7.5 90t53 90t95 69.5t134.5 27.5h1h25.5h32.5h35t33 1z" />
    <glyph glyph-name="periodcentered" unicode="&#xb7;" horiz-adv-x="274" 
d="M229 263q0 -5 -3.5 -15t-10.5 -20t-18 -17t-27 -7q-22 0 -29.5 15.5t-5 34.5t12 34.5t21.5 15.5q26 0 42.5 -10t17.5 -31z" />
    <glyph glyph-name="cedilla" unicode="&#xb8;" horiz-adv-x="197" 
d="M107 27q0 -21 -7 -47t-16.5 -48.5t-20.5 -37.5t-19 -15q-14 0 -28.5 8t-25.5 21t-18 28t-7 29q9 -11 24 -18.5t26 -7.5q6 0 13 8.5t14.5 22t14.5 28.5t13 29h37z" />
    <glyph glyph-name="uni00B9" unicode="&#xb9;" horiz-adv-x="252" 
d="M302 581q-6 -6 -16.5 -31t-22 -60.5t-23.5 -75.5t-20.5 -74.5t-12.5 -59.5t0 -29q-3 0 -12 2t-18.5 5.5t-17.5 8t-9 9.5q0 12 4.5 34t11 50t15.5 59.5t18 60.5q-17 -18 -34 -32t-22 -14q-3 0 -6.5 6.5t-7 15.5t-6 17.5t-3.5 12.5q4 -3 18.5 4.5t31.5 20.5t33.5 28.5
t25.5 27.5q10 23 15 28q3 2 11 1.5t17.5 -3t18 -6t11.5 -6.5z" />
    <glyph glyph-name="ordmasculine" unicode="&#xba;" horiz-adv-x="273" 
d="M293 474q7 -29 1 -68t-19.5 -75t-33 -61t-39.5 -25q-5 0 -18 3t-27.5 9.5t-27 16t-15.5 22.5q-6 24 -1 63t18 76.5t31 64.5t39 27q10 0 27 -8t30 -20q14 -4 22.5 -11t12.5 -14zM240 213q6 0 10.5 -6t7 -15t4 -18.5t1.5 -16.5q-38 2 -77 -0.5t-85 -2.5q-6 0 -10.5 6
t-7 15.5t-3.5 20.5t1 21q16 -3 36 -4t41 -1t42 0.5t40 0.5zM224 478q-12 -14 -23 -44.5t-18 -61.5t-8.5 -54.5t7.5 -23.5q8 0 17.5 13t18.5 33.5t15.5 46t9.5 50.5h-2q-20 4 -17 41z" />
    <glyph glyph-name="guillemotright" unicode="&#xbb;" horiz-adv-x="414" 
d="M272 270q-5 -4 -18 -13.5t-29 -22t-33.5 -27t-31.5 -28t-22.5 -24.5t-7.5 -16q-3 2 -10 9t-13.5 16t-11.5 18t-4 14q9 8 31.5 26t63.5 48q-7 10 -17.5 24t-21 27t-20 23.5t-13.5 14.5q3 7 10.5 16t16 16t16.5 12t13 5q5 -3 19 -21.5t30 -41.5t31 -44.5t22 -30.5zM414 270
q-5 -4 -18 -13.5t-29 -22t-33.5 -27t-31.5 -28t-22.5 -24.5t-7.5 -16q-3 2 -10 9t-13.5 16t-11.5 18t-4 14q9 8 31.5 26t63.5 48q-7 10 -17.5 24t-21 27t-20 23.5t-13.5 14.5q3 7 10.5 16t16 16t16.5 12t13 5q5 -3 19 -21.5t30 -41.5t31 -44.5t22 -30.5z" />
    <glyph glyph-name="onequarter" unicode="&#xbc;" horiz-adv-x="565" 
d="M551 319q-5 -5 -12.5 -21.5t-16.5 -41.5t-18.5 -55t-18.5 -60q10 1 16 1.5t8 -0.5q3 -2 6 -10.5t5.5 -19.5t3 -22t-0.5 -17q-3 5 -18 7t-36 0q-9 -35 -13 -60.5t0 -30.5q-3 0 -12 2t-18.5 5.5t-17.5 8t-9 9.5q0 20 9 59l-74 -11q-5 2 -10 9t-9.5 16t-7.5 18.5t-3 16.5
q9 14 33 41.5t53 59t57.5 61.5t45.5 50h1q3 1 11.5 0t17.5 -3t17 -5.5t11 -6.5zM555 555q-8 3 -35.5 -29t-66 -84.5t-83 -118t-87 -129.5t-77.5 -119t-54 -86q-2 0 -9 12t-7 23q9 22 35 69t61 106t75 123.5t77 121t66 98.5t43 57q3 0 12.5 -5t20 -12t19 -14.5t10.5 -12.5z
M302 583q-6 -6 -16.5 -31t-22 -60.5t-23.5 -75t-20.5 -74.5t-12.5 -60t0 -29q-3 0 -12 2t-18.5 5.5t-17.5 8t-9 9.5q0 12 4.5 34t11 50t15.5 59.5t18 60.5q-17 -18 -34 -32t-22 -14q-3 0 -6.5 6.5t-7 15.5t-6 17.5t-3.5 12.5q4 -3 18.5 4.5t31.5 20.5t33.5 28.5t25.5 27.5
q10 23 15 28q3 2 11 1.5t17.5 -3t18 -6t11.5 -6.5zM345 115q12 3 33.5 7.5t44.5 8.5q8 28 16.5 56t16.5 54q-16 -18 -32 -37t-30.5 -36t-27 -30.5t-21.5 -22.5z" />
    <glyph glyph-name="onehalf" unicode="&#xbd;" horiz-adv-x="591" 
d="M326 39q53 54 93 99.5t65 79t34.5 54.5t1.5 27q-5 3 -21.5 -9.5t-35 -29.5t-32.5 -34t-13 -23q-17 14 -27 28t-10 19q0 7 12.5 21.5t31 29t40 25.5t39.5 11q7 0 19.5 -6t24.5 -16t21 -23.5t9 -27.5q0 -22 -16 -48.5t-40.5 -56t-55 -59.5t-59.5 -59q17 6 34.5 10t32.5 5.5
t26 0.5t14 -3t3 -10.5t-1.5 -19t-3.5 -21t-3 -14.5q-5 6 -23 10t-41 4.5t-48 -3t-44 -11.5q-7 3 -12.5 10t-9.5 15t-5.5 15t0.5 10zM555 555q-8 3 -35.5 -29t-66 -84.5t-83 -118t-87 -129.5t-77.5 -119t-54 -86q-2 0 -9 12t-7 23q9 22 35 69t61 106t75 123.5t77 121t66 98.5
t43 57q3 0 12.5 -5t20 -12t19 -14.5t10.5 -12.5zM302 583q-6 -6 -16.5 -31t-22 -60.5t-23.5 -75t-20.5 -74.5t-12.5 -60t0 -29q-3 0 -12 2t-18.5 5.5t-17.5 8t-9 9.5q0 12 4.5 34t11 50t15.5 59.5t18 60.5q-17 -18 -34 -32t-22 -14q-3 0 -6.5 6.5t-7 15.5t-6 17.5t-3.5 12.5
q4 -3 18.5 4.5t31.5 20.5t33.5 28.5t25.5 27.5q10 23 15 28q3 2 11 1.5t17.5 -3t18 -6t11.5 -6.5z" />
    <glyph glyph-name="threequarters" unicode="&#xbe;" horiz-adv-x="590" 
d="M576 319q-5 -5 -12.5 -21.5t-16.5 -41.5t-18.5 -55t-18.5 -60q10 1 16 1.5t8 -0.5q3 -2 6 -10.5t5.5 -19.5t3 -22t-0.5 -17q-3 5 -18 7t-36 0q-9 -35 -13 -60.5t0 -30.5q-3 0 -12 2t-18.5 5.5t-17.5 8t-9 9.5q0 20 9 59l-74 -11q-5 2 -10 9t-9.5 16t-7.5 18.5t-3 16.5
q9 14 33 41.5t53 59t57.5 61.5t45.5 50h1q3 1 11.5 0t17.5 -3t17 -5.5t11 -6.5zM580 555q-8 3 -35.5 -29t-66 -84.5t-83 -118t-87 -129.5t-77.5 -119t-54 -86q-2 0 -9 12t-7 23q9 22 35 69t61 106t75 123.5t77 121t66 98.5t43 57q3 0 12.5 -5t20 -12t19 -14.5t10.5 -12.5z
M336 543q0 -12 -8.5 -27t-22 -30t-30 -28t-32.5 -20q14 -3 24.5 -9t17 -13.5t10 -15t3.5 -12.5q0 -22 -15 -45.5t-36.5 -43.5t-45.5 -33t-41 -13q-3 0 -12 2.5t-20 6.5t-21.5 10t-16.5 12q24 0 50.5 13t47 30.5t30.5 35.5t2 27q-8 8 -23.5 8t-23.5 -2q-3 3 -5.5 11t-4 16
t-2 14.5t1.5 7.5q43 28 68 48.5t37 35t14 22t0 9.5q-4 3 -20.5 -3.5t-35 -17t-34 -21t-16.5 -16.5q-3 1 -7.5 7.5t-9 14t-7.5 15t-3 12.5t13.5 13.5t33 17t40.5 15t37 6.5q11 0 22 -7t20 -16.5t15 -20t6 -16.5zM370 115q12 3 33.5 7.5t44.5 8.5q8 28 16.5 56t16.5 54
q-16 -18 -32 -37t-30.5 -36t-27 -30.5t-21.5 -22.5z" />
    <glyph glyph-name="questiondown" unicode="&#xbf;" horiz-adv-x="358" 
d="M330 381q0 -12 -19 -38.5t-47 -60t-59 -70t-55 -69t-35.5 -56.5t0.5 -32q9 -6 25 -3t35 12t39 22t35.5 26.5t24.5 25t8 17.5q17 -22 31 -43t14 -29q0 -9 -18 -24.5t-46 -30.5t-61.5 -26t-64.5 -11q-7 0 -22 7.5t-30 22.5t-26.5 36t-11.5 48q0 22 17 50.5t42.5 60t55 64
t55 63t42.5 56.5t17 45q12 -4 21.5 -12.5t17 -17.5t11.5 -18t4 -15zM284 540q0 5 3.5 15t10.5 19.5t18 17t27 7.5q22 0 29 -15.5t5 -34.5t-11.5 -34.5t-21.5 -15.5q-26 0 -42.5 10t-17.5 31z" />
    <glyph glyph-name="Agrave" unicode="&#xc0;" horiz-adv-x="479" 
d="M534 629q-28 -2 -51.5 10.5t-40 29.5t-25.5 33t-9 21t6.5 12t16.5 13.5t21.5 11t20.5 4.5q0 -8 5 -26.5t13.5 -39.5t19.5 -40t23 -29zM485 572q9 0 20.5 -15t21.5 -35t16.5 -39t5.5 -28q-89 -215 -123 -330t-26 -131q-8 0 -20.5 5t-24.5 12.5t-21 16.5t-9 17q0 18 10 55
t26 84q-33 -4 -76 -10.5t-88 -13.5q-25 -34 -45.5 -64.5t-35 -54.5t-21 -40.5t-2.5 -22.5q-12 3 -23.5 9.5t-21 15.5t-15.5 18t-6 16q0 11 18 39t48 68q-23 -3 -40 -5t-24 -2q-3 0 -7 9t-7 21.5t-4.5 26t0.5 22.5q1 -3 13 -4t30.5 -1t43.5 1.5t52 3.5q47 59 101.5 122
t103.5 115t84.5 85.5t45.5 33.5zM486 505q-12 -8 -37.5 -35t-58.5 -65.5t-71 -85t-74 -94.5q45 5 81.5 9t54.5 6q15 40 30.5 80.5t30 76.5t26 64.5t18.5 43.5z" />
    <glyph glyph-name="Aacute" unicode="&#xc1;" horiz-adv-x="479" 
d="M440 628q12 10 28 28.5t30 38t24 37.5t10 26q9 0 20.5 -4.5t21.5 -11t16.5 -13.5t6.5 -12t-14 -20t-36.5 -31t-50.5 -28t-56 -10zM485 572q9 0 20.5 -15t21.5 -35t16.5 -39t5.5 -28q-89 -215 -123 -330t-26 -131q-8 0 -20.5 5t-24.5 12.5t-21 16.5t-9 17q0 18 10 55
t26 84q-33 -4 -76 -10.5t-88 -13.5q-25 -34 -45.5 -64.5t-35 -54.5t-21 -40.5t-2.5 -22.5q-12 3 -23.5 9.5t-21 15.5t-15.5 18t-6 16q0 11 18 39t48 68q-23 -3 -40 -5t-24 -2q-3 0 -7 9t-7 21.5t-4.5 26t0.5 22.5q1 -3 13 -4t30.5 -1t43.5 1.5t52 3.5q47 59 101.5 122
t103.5 115t84.5 85.5t45.5 33.5zM486 505q-12 -8 -37.5 -35t-58.5 -65.5t-71 -85t-74 -94.5q45 5 81.5 9t54.5 6q15 40 30.5 80.5t30 76.5t26 64.5t18.5 43.5z" />
    <glyph glyph-name="Acircumflex" unicode="&#xc2;" horiz-adv-x="479" 
d="M592 762q4 -18 6.5 -47.5t5.5 -58.5q-9 -9 -24.5 -17.5t-26.5 -10.5q-5 17 -9.5 38t-9.5 42q-14 -15 -29.5 -36t-34.5 -44q-3 3 -7.5 16t-3.5 27q6 13 18 32t26 37.5t27 33.5t20 21q3 0 9 -4t12 -9t12 -10.5t9 -9.5zM485 572q9 0 20.5 -15t21.5 -35t16.5 -39t5.5 -28
q-89 -215 -123 -330t-26 -131q-8 0 -20.5 5t-24.5 12.5t-21 16.5t-9 17q0 18 10 55t26 84q-33 -4 -76 -10.5t-88 -13.5q-25 -34 -45.5 -64.5t-35 -54.5t-21 -40.5t-2.5 -22.5q-12 3 -23.5 9.5t-21 15.5t-15.5 18t-6 16q0 11 18 39t48 68q-23 -3 -40 -5t-24 -2q-3 0 -7 9
t-7 21.5t-4.5 26t0.5 22.5q1 -3 13 -4t30.5 -1t43.5 1.5t52 3.5q47 59 101.5 122t103.5 115t84.5 85.5t45.5 33.5zM486 505q-12 -8 -37.5 -35t-58.5 -65.5t-71 -85t-74 -94.5q45 5 81.5 9t54.5 6q15 40 30.5 80.5t30 76.5t26 64.5t18.5 43.5z" />
    <glyph glyph-name="Atilde" unicode="&#xc3;" horiz-adv-x="479" 
d="M440 628q-9 0 -16.5 8t-12.5 18.5t-8 22t-3 19.5q11 -4 26 -4q18 0 37.5 4t39 9t37.5 9t32 4q10 0 18.5 -10.5t13.5 -25t7.5 -29t0.5 -22.5q-8 9 -20.5 12.5t-26.5 3.5q-16 0 -33 -3t-33.5 -6.5t-31.5 -6.5t-27 -3zM485 572q9 0 20.5 -15t21.5 -35t16.5 -39t5.5 -28
q-89 -215 -123 -330t-26 -131q-8 0 -20.5 5t-24.5 12.5t-21 16.5t-9 17q0 18 10 55t26 84q-33 -4 -76 -10.5t-88 -13.5q-25 -34 -45.5 -64.5t-35 -54.5t-21 -40.5t-2.5 -22.5q-12 3 -23.5 9.5t-21 15.5t-15.5 18t-6 16q0 11 18 39t48 68q-23 -3 -40 -5t-24 -2q-3 0 -7 9
t-7 21.5t-4.5 26t0.5 22.5q1 -3 13 -4t30.5 -1t43.5 1.5t52 3.5q47 59 101.5 122t103.5 115t84.5 85.5t45.5 33.5zM486 505q-12 -8 -37.5 -35t-58.5 -65.5t-71 -85t-74 -94.5q45 5 81.5 9t54.5 6q15 40 30.5 80.5t30 76.5t26 64.5t18.5 43.5z" />
    <glyph glyph-name="Adieresis" unicode="&#xc4;" horiz-adv-x="479" 
d="M511 688q0 -6 -2.5 -16t-8 -19.5t-14.5 -16.5t-21 -7q-18 0 -24 15.5t-4 34.5t9.5 34.5t16.5 15.5q20 0 33.5 -11t14.5 -30zM629 691q0 -6 -3 -16.5t-9.5 -21t-16.5 -18t-23 -7.5q-19 0 -25.5 16.5t-4.5 36.5t10 36.5t19 16.5q23 0 37.5 -10.5t15.5 -32.5zM485 572
q9 0 20.5 -15t21.5 -35t16.5 -39t5.5 -28q-89 -215 -123 -330t-26 -131q-8 0 -20.5 5t-24.5 12.5t-21 16.5t-9 17q0 18 10 55t26 84q-33 -4 -76 -10.5t-88 -13.5q-25 -34 -45.5 -64.5t-35 -54.5t-21 -40.5t-2.5 -22.5q-12 3 -23.5 9.5t-21 15.5t-15.5 18t-6 16q0 11 18 39
t48 68q-23 -3 -40 -5t-24 -2q-3 0 -7 9t-7 21.5t-4.5 26t0.5 22.5q1 -3 13 -4t30.5 -1t43.5 1.5t52 3.5q47 59 101.5 122t103.5 115t84.5 85.5t45.5 33.5zM486 505q-12 -8 -37.5 -35t-58.5 -65.5t-71 -85t-74 -94.5q45 5 81.5 9t54.5 6q15 40 30.5 80.5t30 76.5t26 64.5
t18.5 43.5z" />
    <glyph glyph-name="Aring" unicode="&#xc5;" horiz-adv-x="479" 
d="M582 796q22 -6 34 -20.5t15 -33.5t-2.5 -39t-17.5 -37t-29.5 -28t-39.5 -11q-27 0 -51 15.5t-32 35.5q-8 23 -1.5 51.5t24 49.5t43.5 28.5t57 -11.5zM527 674q15 -3 26.5 9.5t16.5 28.5t2 31t-17 17q-14 3 -24.5 -9t-15.5 -28.5t-2.5 -31t14.5 -17.5zM485 572
q9 0 20.5 -15t21.5 -35t16.5 -39t5.5 -28q-89 -215 -123 -330t-26 -131q-8 0 -20.5 5t-24.5 12.5t-21 16.5t-9 17q0 18 10 55t26 84q-33 -4 -76 -10.5t-88 -13.5q-25 -34 -45.5 -64.5t-35 -54.5t-21 -40.5t-2.5 -22.5q-12 3 -23.5 9.5t-21 15.5t-15.5 18t-6 16q0 11 18 39
t48 68q-23 -3 -40 -5t-24 -2q-3 0 -7 9t-7 21.5t-4.5 26t0.5 22.5q1 -3 13 -4t30.5 -1t43.5 1.5t52 3.5q47 59 101.5 122t103.5 115t84.5 85.5t45.5 33.5zM486 505q-12 -8 -37.5 -35t-58.5 -65.5t-71 -85t-74 -94.5q45 5 81.5 9t54.5 6q15 40 30.5 80.5t30 76.5t26 64.5
t18.5 43.5z" />
    <glyph glyph-name="AE" unicode="&#xc6;" horiz-adv-x="634" 
d="M577 114q2 0 5.5 -5t7 -12.5t6.5 -15t5 -11.5q-7 4 -23.5 0t-38 -12t-46 -18t-45.5 -19t-36.5 -15.5t-19.5 -6.5q-3 0 -14.5 7.5t-23.5 19t-21.5 24t-7.5 21.5q2 13 14 48.5t29 83.5l-155 -22q-28 -38 -51.5 -72t-40 -61t-24.5 -45.5t-3 -24.5q-12 3 -23.5 9.5t-21 15.5
t-15.5 18t-6 16q0 11 23.5 46.5t61.5 84.5q-27 -3 -47 -5t-28 -2q-3 0 -7 9t-7 21.5t-4.5 26t0.5 22.5q1 -3 13.5 -3.5t33 0t48.5 3t60 5.5q46 57 97 115t95.5 105t77 77t41.5 30q7 0 15.5 -9.5t16.5 -23.5q16 -1 42 2t50.5 6.5t43.5 7t21 3.5q8 0 18.5 -9t19.5 -20.5
t15 -22t6 -13.5q0 -7 -15 -30t-38.5 -50t-51.5 -51.5t-55 -33.5q12 15 30 41.5t33 52t23 44.5t1 19q-5 0 -17 -1.5t-28 -4t-33.5 -5t-34.5 -3.5q2 -5 2 -9.5v-6.5q-22 -51 -39.5 -95t-31.5 -82q38 5 64 7t34 2q6 0 10 -6.5t7 -16t4 -19.5t1 -16q-11 1 -50 -3t-93 -12
q-30 -85 -42 -130q24 4 48 9.5t46 10t39.5 7.5t29.5 3zM487 505q-11 -7 -33.5 -30.5t-52 -58t-64 -76.5t-68.5 -86l124 14l28 72t27 68t23 57.5t16 39.5z" />
    <glyph glyph-name="Ccedilla" unicode="&#xc7;" horiz-adv-x="346" 
d="M418 261q2 -11 -8.5 -35t-29 -53.5t-43.5 -61t-52.5 -58t-56 -44t-53.5 -19.5q-2 -21 -9 -45.5t-16 -45t-19.5 -34t-17.5 -13.5q-14 0 -28.5 8t-25.5 21t-18 28t-7 29q9 -11 24 -18.5t26 -7.5q6 0 12.5 8t13 20t13.5 26.5t13 27.5q-36 11 -69 42.5t-42 79.5
q-8 36 -1.5 83t24.5 97.5t45 99t59 86.5t67.5 61.5t70.5 23.5q15 0 35.5 -8.5t39.5 -22.5t32.5 -31.5t13.5 -35.5q0 -24 -16.5 -57.5t-40 -64.5t-48.5 -52.5t-42 -21.5q10 14 21.5 36.5t22.5 48.5t20 52.5t13 47.5t1.5 34.5t-14.5 13.5q-35 0 -72.5 -34t-70 -85.5
t-56 -111.5t-30.5 -111.5t6.5 -85.5t54.5 -34q22 0 56 23t71 56.5t72 71t59 66.5z" />
    <glyph glyph-name="Egrave" unicode="&#xc8;" horiz-adv-x="371" 
d="M393 628q-28 -2 -51.5 10.5t-40 29.5t-25.5 33t-9 21t6.5 12t16.5 13.5t21.5 11t20.5 4.5q0 -8 5 -26.5t13.5 -39.5t19.5 -40t23 -29zM450 250q-25 -52 -62 -99t-77.5 -83t-79.5 -57t-66 -21q-34 0 -60.5 11t-45.5 27.5t-28.5 34t-9.5 31.5q0 24 11 48t29.5 46.5t43.5 42
t53 34.5q-26 23 -43 51.5t-17 63.5q0 36 23 70.5t61.5 60.5t88 42t103.5 16q11 0 24 -7.5t24 -18.5t18 -23.5t7 -22.5q0 -14 -13 -38t-34 -49t-46 -46.5t-49 -30.5q18 25 32.5 51t24 47.5t12.5 36.5t-1 19q-7 6 -25 4.5t-41 -8t-48.5 -19t-46 -29t-34 -36.5t-13.5 -42
q-2 -18 11.5 -36.5t39.5 -30.5q36 11 69 11q6 0 7.5 -14.5t0 -31.5t-6.5 -31.5t-12 -14.5q-19 0 -42 10q-38 -12 -64.5 -34t-41.5 -45.5t-19 -44.5t4 -32q12 -17 44 -12.5t77.5 28.5t101.5 67t116 104z" />
    <glyph glyph-name="Eacute" unicode="&#xc9;" horiz-adv-x="371" 
d="M283 628q12 10 28 28.5t30 38t24 37.5t10 26q9 0 20.5 -4.5t21.5 -11t16.5 -13.5t6.5 -12t-14 -20t-36.5 -31t-50.5 -28t-56 -10zM450 250q-25 -52 -62 -99t-77.5 -83t-79.5 -57t-66 -21q-34 0 -60.5 11t-45.5 27.5t-28.5 34t-9.5 31.5q0 24 11 48t29.5 46.5t43.5 42
t53 34.5q-26 23 -43 51.5t-17 63.5q0 36 23 70.5t61.5 60.5t88 42t103.5 16q11 0 24 -7.5t24 -18.5t18 -23.5t7 -22.5q0 -14 -13 -38t-34 -49t-46 -46.5t-49 -30.5q18 25 32.5 51t24 47.5t12.5 36.5t-1 19q-7 6 -25 4.5t-41 -8t-48.5 -19t-46 -29t-34 -36.5t-13.5 -42
q-2 -18 11.5 -36.5t39.5 -30.5q36 11 69 11q6 0 7.5 -14.5t0 -31.5t-6.5 -31.5t-12 -14.5q-19 0 -42 10q-38 -12 -64.5 -34t-41.5 -45.5t-19 -44.5t4 -32q12 -17 44 -12.5t77.5 28.5t101.5 67t116 104z" />
    <glyph glyph-name="Ecircumflex" unicode="&#xca;" horiz-adv-x="371" 
d="M411 761q4 -18 6.5 -47.5t5.5 -58.5q-9 -9 -24.5 -17.5t-26.5 -10.5q-5 17 -9.5 38t-9.5 42q-14 -15 -29.5 -36t-34.5 -44q-3 3 -7.5 16t-3.5 27q6 13 18 32t26 37.5t27 33.5t20 21q3 0 9 -4t12 -9t12 -10.5t9 -9.5zM450 250q-25 -52 -62 -99t-77.5 -83t-79.5 -57
t-66 -21q-34 0 -60.5 11t-45.5 27.5t-28.5 34t-9.5 31.5q0 24 11 48t29.5 46.5t43.5 42t53 34.5q-26 23 -43 51.5t-17 63.5q0 36 23 70.5t61.5 60.5t88 42t103.5 16q11 0 24 -7.5t24 -18.5t18 -23.5t7 -22.5q0 -14 -13 -38t-34 -49t-46 -46.5t-49 -30.5q18 25 32.5 51
t24 47.5t12.5 36.5t-1 19q-7 6 -25 4.5t-41 -8t-48.5 -19t-46 -29t-34 -36.5t-13.5 -42q-2 -18 11.5 -36.5t39.5 -30.5q36 11 69 11q6 0 7.5 -14.5t0 -31.5t-6.5 -31.5t-12 -14.5q-19 0 -42 10q-38 -12 -64.5 -34t-41.5 -45.5t-19 -44.5t4 -32q12 -17 44 -12.5t77.5 28.5
t101.5 67t116 104z" />
    <glyph glyph-name="Edieresis" unicode="&#xcb;" horiz-adv-x="371" 
d="M329 687q0 -6 -2.5 -16t-8 -19.5t-14.5 -16.5t-21 -7q-18 0 -24 15.5t-4 34.5t9.5 34.5t16.5 15.5q20 0 33.5 -11t14.5 -30zM447 690q0 -6 -3 -16.5t-9.5 -21t-16.5 -18t-23 -7.5q-19 0 -25.5 16.5t-4.5 36.5t10 36.5t19 16.5q23 0 37.5 -10.5t15.5 -32.5zM450 250
q-25 -52 -62 -99t-77.5 -83t-79.5 -57t-66 -21q-34 0 -60.5 11t-45.5 27.5t-28.5 34t-9.5 31.5q0 24 11 48t29.5 46.5t43.5 42t53 34.5q-26 23 -43 51.5t-17 63.5q0 36 23 70.5t61.5 60.5t88 42t103.5 16q11 0 24 -7.5t24 -18.5t18 -23.5t7 -22.5q0 -14 -13 -38t-34 -49
t-46 -46.5t-49 -30.5q18 25 32.5 51t24 47.5t12.5 36.5t-1 19q-7 6 -25 4.5t-41 -8t-48.5 -19t-46 -29t-34 -36.5t-13.5 -42q-2 -18 11.5 -36.5t39.5 -30.5q36 11 69 11q6 0 7.5 -14.5t0 -31.5t-6.5 -31.5t-12 -14.5q-19 0 -42 10q-38 -12 -64.5 -34t-41.5 -45.5t-19 -44.5
t4 -32q12 -17 44 -12.5t77.5 28.5t101.5 67t116 104z" />
    <glyph glyph-name="Igrave" unicode="&#xcc;" horiz-adv-x="350" 
d="M404 628q-28 -2 -51.5 10.5t-40 29.5t-25.5 33t-9 21t6.5 12t16.5 13.5t21.5 11t20.5 4.5q0 -8 5 -26.5t13.5 -39.5t19.5 -40t23 -29zM302 51q7 -2 8.5 -11t-0.5 -19.5t-7 -20t-11 -11.5q-3 4 -20.5 5t-44 0.5t-57 -2t-58.5 -2t-49.5 -0.5t-29.5 3q-7 3 -11.5 10t-7 15
t-3.5 15t1 10q13 -7 52 -5.5t84 5.5q-10 10 -17 19.5t-7 12.5q0 5 6.5 26.5t17.5 54.5t25.5 73.5t30 83t31 83.5t29.5 75q-25 -2 -47.5 -4t-39.5 -5t-26.5 -8t-8.5 -12q-8 6 -14.5 19.5t-9.5 28t-2 26.5t9 16q6 3 25.5 2t46 -3.5t55.5 -4t54 -0.5q5 2 13.5 7.5t18.5 11.5
t21 12t22 9q10 3 26 -6t30.5 -21t22.5 -23.5t2 -13.5q-9 -11 -39.5 -17t-71.5 -9q-17 -36 -39 -92t-44 -117t-42 -119.5t-32 -100.5q35 3 64.5 4.5t43.5 -0.5z" />
    <glyph glyph-name="Iacute" unicode="&#xcd;" horiz-adv-x="350" 
d="M266 628q12 10 28 28.5t30 38t24 37.5t10 26q9 0 20.5 -4.5t21.5 -11t16.5 -13.5t6.5 -12t-14 -20t-36.5 -31t-50.5 -28t-56 -10zM302 51q7 -2 8.5 -11t-0.5 -19.5t-7 -20t-11 -11.5q-3 4 -20.5 5t-44 0.5t-57 -2t-58.5 -2t-49.5 -0.5t-29.5 3q-7 3 -11.5 10t-7 15
t-3.5 15t1 10q13 -7 52 -5.5t84 5.5q-10 10 -17 19.5t-7 12.5q0 5 6.5 26.5t17.5 54.5t25.5 73.5t30 83t31 83.5t29.5 75q-25 -2 -47.5 -4t-39.5 -5t-26.5 -8t-8.5 -12q-8 6 -14.5 19.5t-9.5 28t-2 26.5t9 16q6 3 25.5 2t46 -3.5t55.5 -4t54 -0.5q5 2 13.5 7.5t18.5 11.5
t21 12t22 9q10 3 26 -6t30.5 -21t22.5 -23.5t2 -13.5q-9 -11 -39.5 -17t-71.5 -9q-17 -36 -39 -92t-44 -117t-42 -119.5t-32 -100.5q35 3 64.5 4.5t43.5 -0.5z" />
    <glyph glyph-name="Icircumflex" unicode="&#xce;" horiz-adv-x="350" 
d="M415 760q4 -18 6.5 -47.5t5.5 -58.5q-9 -9 -24.5 -17.5t-26.5 -10.5q-5 17 -9.5 38t-9.5 42q-14 -15 -29.5 -36t-34.5 -44q-3 3 -7.5 16t-3.5 27q6 13 18 32t26 37.5t27 33.5t20 21q3 0 9 -4t12 -9t12 -10.5t9 -9.5zM302 51q7 -2 8.5 -11t-0.5 -19.5t-7 -20t-11 -11.5
q-3 4 -20.5 5t-44 0.5t-57 -2t-58.5 -2t-49.5 -0.5t-29.5 3q-7 3 -11.5 10t-7 15t-3.5 15t1 10q13 -7 52 -5.5t84 5.5q-10 10 -17 19.5t-7 12.5q0 5 6.5 26.5t17.5 54.5t25.5 73.5t30 83t31 83.5t29.5 75q-25 -2 -47.5 -4t-39.5 -5t-26.5 -8t-8.5 -12q-8 6 -14.5 19.5
t-9.5 28t-2 26.5t9 16q6 3 25.5 2t46 -3.5t55.5 -4t54 -0.5q5 2 13.5 7.5t18.5 11.5t21 12t22 9q10 3 26 -6t30.5 -21t22.5 -23.5t2 -13.5q-9 -11 -39.5 -17t-71.5 -9q-17 -36 -39 -92t-44 -117t-42 -119.5t-32 -100.5q35 3 64.5 4.5t43.5 -0.5z" />
    <glyph glyph-name="Idieresis" unicode="&#xcf;" horiz-adv-x="350" 
d="M330 687q0 -6 -2.5 -16t-8 -19.5t-14.5 -16.5t-21 -7q-18 0 -24 15.5t-4 34.5t9.5 34.5t16.5 15.5q20 0 33.5 -11t14.5 -30zM448 690q0 -6 -3 -16.5t-9.5 -21t-16.5 -18t-23 -7.5q-19 0 -25.5 16.5t-4.5 36.5t10 36.5t19 16.5q23 0 37.5 -10.5t15.5 -32.5zM302 51
q7 -2 8.5 -11t-0.5 -19.5t-7 -20t-11 -11.5q-3 4 -20.5 5t-44 0.5t-57 -2t-58.5 -2t-49.5 -0.5t-29.5 3q-7 3 -11.5 10t-7 15t-3.5 15t1 10q13 -7 52 -5.5t84 5.5q-10 10 -17 19.5t-7 12.5q0 5 6.5 26.5t17.5 54.5t25.5 73.5t30 83t31 83.5t29.5 75q-25 -2 -47.5 -4
t-39.5 -5t-26.5 -8t-8.5 -12q-8 6 -14.5 19.5t-9.5 28t-2 26.5t9 16q6 3 25.5 2t46 -3.5t55.5 -4t54 -0.5q5 2 13.5 7.5t18.5 11.5t21 12t22 9q10 3 26 -6t30.5 -21t22.5 -23.5t2 -13.5q-9 -11 -39.5 -17t-71.5 -9q-17 -36 -39 -92t-44 -117t-42 -119.5t-32 -100.5
q35 3 64.5 4.5t43.5 -0.5z" />
    <glyph glyph-name="Eth" unicode="&#xd0;" horiz-adv-x="472" 
d="M137 292q11 31 23 61t23 55.5t20.5 45t17.5 30.5q-31 -6 -58.5 -16.5t-48.5 -23.5t-34.5 -28t-15.5 -29q-2 1 -8 14t-10.5 30t-5 34.5t8.5 28.5q9 10 32.5 22.5t54.5 23.5t65.5 19t65.5 8q47 0 88.5 -19t72 -51.5t48.5 -75t18 -89.5q0 -61 -28.5 -122.5t-76 -110.5
t-108 -79.5t-123.5 -30.5q-47 0 -78 16.5t-46 41t-14 52t19 50.5q-9 -26 4.5 -49t42.5 -34q-7 17 -7 31t10.5 51.5t27.5 85.5h-42q-3 0 -7 8t-7 19t-4.5 23.5t0.5 21.5q0 -6 23 -9t57 -5zM331 292q3 -7 2 -16t-4.5 -18t-8 -16.5t-7.5 -11.5q-13 2 -44.5 3t-69.5 1
q-18 -49 -34 -96.5t-25 -80.5q47 0 93 23t84.5 60t66.5 84.5t39 96.5q7 33 5.5 63.5t-16.5 54t-45 38t-79 14.5q-20 0 -39 -3q15 -8 33.5 -20.5t22.5 -23.5q-5 1 -14 -10.5t-20 -32.5t-24 -49.5t-26 -61.5q21 0 40.5 0.5t34.5 0.5t24.5 0.5t10.5 0.5z" />
    <glyph glyph-name="Ntilde" unicode="&#xd1;" horiz-adv-x="430" 
d="M321 627q-9 0 -16.5 8t-12.5 18.5t-8 22t-3 19.5q11 -4 26 -4q18 0 37.5 4t39 9t37.5 9t32 4q10 0 18.5 -10.5t13.5 -25t7.5 -29t0.5 -22.5q-8 9 -20.5 12.5t-26.5 3.5q-16 0 -33 -3t-33.5 -6.5t-31.5 -6.5t-27 -3zM469 568q7 0 19.5 -6t24.5 -14t21 -16.5t11 -14.5
q-8 0 -21.5 -21t-30.5 -56t-36 -80t-37.5 -92.5t-34.5 -94.5t-28 -85.5t-18 -65t-4 -33.5q-8 0 -20.5 3t-25.5 8.5t-22 12.5t-9 15q0 7 1 12q-1 29 0.5 74t4 95.5t5.5 100.5t5 90t2.5 64.5t-1.5 23.5q-3 -2 -14 -23.5t-26 -56t-32.5 -78t-35 -89.5t-33.5 -91t-27 -82
t-16 -62.5t-1 -32.5q-6 1 -17.5 9t-23.5 18.5t-20.5 22.5t-8.5 21q0 13 14.5 56.5t37.5 101.5t50.5 122.5t53.5 118t46.5 88.5t30.5 35q13 0 29 -11.5t30 -27t23.5 -30.5t8.5 -22q-1 -12 -4 -37.5t-6.5 -59t-7.5 -73t-8 -79.5q21 58 44.5 119t45 110.5t38 81t23.5 31.5z" />
    <glyph glyph-name="Ograve" unicode="&#xd2;" horiz-adv-x="420" 
d="M399 628q-28 -2 -51.5 10.5t-40 29.5t-25.5 33t-9 21t6.5 12t16.5 13.5t21.5 11t20.5 4.5q0 -8 5 -26.5t13.5 -39.5t19.5 -40t23 -29zM175 -11q-19 0 -46 9t-51.5 30t-40.5 55.5t-13 85.5q2 43 13 89t28.5 90t41 83t51.5 68.5t58.5 47t63.5 17.5q27 0 53.5 -15.5
t46.5 -42.5t32.5 -63t11.5 -78q-1 -34 -10 -75.5t-26 -83t-40 -81t-50.5 -69.5t-58.5 -48.5t-64 -18.5zM130 46q34 -12 70 16.5t67 78.5t53.5 111.5t30.5 116.5t-1.5 93t-42.5 41q-35 0 -68.5 -31.5t-61.5 -79.5t-47.5 -105t-27.5 -107.5t-2 -88t30 -45.5z" />
    <glyph glyph-name="Oacute" unicode="&#xd3;" horiz-adv-x="420" 
d="M258 628q12 10 28 28.5t30 38t24 37.5t10 26q9 0 20.5 -4.5t21.5 -11t16.5 -13.5t6.5 -12t-14 -20t-36.5 -31t-50.5 -28t-56 -10zM175 -11q-19 0 -46 9t-51.5 30t-40.5 55.5t-13 85.5q2 43 13 89t28.5 90t41 83t51.5 68.5t58.5 47t63.5 17.5q27 0 53.5 -15.5t46.5 -42.5
t32.5 -63t11.5 -78q-1 -34 -10 -75.5t-26 -83t-40 -81t-50.5 -69.5t-58.5 -48.5t-64 -18.5zM130 46q34 -12 70 16.5t67 78.5t53.5 111.5t30.5 116.5t-1.5 93t-42.5 41q-35 0 -68.5 -31.5t-61.5 -79.5t-47.5 -105t-27.5 -107.5t-2 -88t30 -45.5z" />
    <glyph glyph-name="Ocircumflex" unicode="&#xd4;" horiz-adv-x="420" 
d="M404 761q4 -18 6.5 -47.5t5.5 -58.5q-9 -9 -24.5 -17.5t-26.5 -10.5q-5 17 -9.5 38t-9.5 42q-14 -15 -29.5 -36t-34.5 -44q-3 3 -7.5 16t-3.5 27q6 13 18 32t26 37.5t27 33.5t20 21q3 0 9 -4t12 -9t12 -10.5t9 -9.5zM175 -11q-19 0 -46 9t-51.5 30t-40.5 55.5t-13 85.5
q2 43 13 89t28.5 90t41 83t51.5 68.5t58.5 47t63.5 17.5q27 0 53.5 -15.5t46.5 -42.5t32.5 -63t11.5 -78q-1 -34 -10 -75.5t-26 -83t-40 -81t-50.5 -69.5t-58.5 -48.5t-64 -18.5zM130 46q34 -12 70 16.5t67 78.5t53.5 111.5t30.5 116.5t-1.5 93t-42.5 41q-35 0 -68.5 -31.5
t-61.5 -79.5t-47.5 -105t-27.5 -107.5t-2 -88t30 -45.5z" />
    <glyph glyph-name="Otilde" unicode="&#xd5;" horiz-adv-x="420" 
d="M254 628q-9 0 -16.5 8t-12.5 18.5t-8 22t-3 19.5q11 -4 26 -4q18 0 37.5 4t39 9t37.5 9t32 4q10 0 18.5 -10.5t13.5 -25t7.5 -29t0.5 -22.5q-8 9 -20.5 12.5t-26.5 3.5q-16 0 -33 -3t-33.5 -6.5t-31.5 -6.5t-27 -3zM175 -11q-19 0 -46 9t-51.5 30t-40.5 55.5t-13 85.5
q2 43 13 89t28.5 90t41 83t51.5 68.5t58.5 47t63.5 17.5q27 0 53.5 -15.5t46.5 -42.5t32.5 -63t11.5 -78q-1 -34 -10 -75.5t-26 -83t-40 -81t-50.5 -69.5t-58.5 -48.5t-64 -18.5zM130 46q34 -12 70 16.5t67 78.5t53.5 111.5t30.5 116.5t-1.5 93t-42.5 41q-35 0 -68.5 -31.5
t-61.5 -79.5t-47.5 -105t-27.5 -107.5t-2 -88t30 -45.5z" />
    <glyph glyph-name="Odieresis" unicode="&#xd6;" horiz-adv-x="420" 
d="M305 687q0 -6 -2.5 -16t-8 -19.5t-14.5 -16.5t-21 -7q-18 0 -24 15.5t-4 34.5t9.5 34.5t16.5 15.5q20 0 33.5 -11t14.5 -30zM423 690q0 -6 -3 -16.5t-9.5 -21t-16.5 -18t-23 -7.5q-19 0 -25.5 16.5t-4.5 36.5t10 36.5t19 16.5q23 0 37.5 -10.5t15.5 -32.5zM175 -11
q-19 0 -46 9t-51.5 30t-40.5 55.5t-13 85.5q2 43 13 89t28.5 90t41 83t51.5 68.5t58.5 47t63.5 17.5q27 0 53.5 -15.5t46.5 -42.5t32.5 -63t11.5 -78q-1 -34 -10 -75.5t-26 -83t-40 -81t-50.5 -69.5t-58.5 -48.5t-64 -18.5zM130 46q34 -12 70 16.5t67 78.5t53.5 111.5
t30.5 116.5t-1.5 93t-42.5 41q-35 0 -68.5 -31.5t-61.5 -79.5t-47.5 -105t-27.5 -107.5t-2 -88t30 -45.5z" />
    <glyph glyph-name="multiply" unicode="&#xd7;" horiz-adv-x="373" 
d="M305 379q4 -1 11.5 -7.5t14.5 -14t12.5 -15.5t6.5 -12q-4 -2 -13.5 -11.5l-23 -23t-29.5 -30.5t-33 -35q22 -28 42.5 -49t36.5 -26q-2 -4 -7.5 -11t-12 -13.5t-13 -11.5t-9.5 -5q-12 0 -33.5 20.5t-46.5 49.5q-21 -23 -38 -41.5t-25 -28.5q-5 -1 -13 4t-17 12t-16.5 15.5
t-10.5 15.5q8 2 30.5 22.5t51.5 49.5q-21 28 -38.5 53t-26.5 40q-2 3 2 10t11.5 15t17.5 17t20 17q1 -10 17.5 -40.5t41.5 -65.5q32 33 57 61.5t33 38.5z" />
    <glyph glyph-name="Oslash" unicode="&#xd8;" horiz-adv-x="458" 
d="M495 573q-5 -2 -17.5 -14.5t-30.5 -34.5l12 -14q19 -29 23 -79t-5.5 -108t-31.5 -118t-54.5 -108.5t-74.5 -79t-91 -30.5q-26 0 -59 10t-62 31q-11 -20 -20.5 -35.5t-16.5 -28.5q-1 0 -3.5 5.5t-5.5 13t-5 15.5t-2 13q4 11 9.5 23t11.5 26q-7 9 -11 18q-17 33 -20 85
t7 109.5t32 115.5t54 105t73.5 76t90.5 29q32 0 55 -12.5t33 -23.5l1 -1q20 26 32 41t14 15q3 0 12.5 -5t20 -12t19 -14.5t10.5 -12.5zM181 41q28 -7 56.5 11.5t55 52.5t48.5 80t36.5 94.5t20 95.5t-0.5 84q-29 -40 -63 -88t-68.5 -98.5t-67.5 -101t-61 -93.5
q8 -14 18.5 -24t25.5 -13zM330 537q-31 -2 -59 -21t-52 -49.5t-43 -70t-32 -82t-19.5 -85t-4.5 -78.5q27 47 58 97.5t63.5 100t63 95t56.5 81.5q-14 9 -31 12z" />
    <glyph glyph-name="Ugrave" unicode="&#xd9;" horiz-adv-x="379" 
d="M404 628q-28 -2 -51.5 10.5t-40 29.5t-25.5 33t-9 21t6.5 12t16.5 13.5t21.5 11t20.5 4.5q0 -8 5 -26.5t13.5 -39.5t19.5 -40t23 -29zM489 520q-16 -10 -37 -48.5t-42 -91.5t-39.5 -114.5t-30.5 -116.5t-16 -98t5 -59q-5 0 -15.5 4t-22 10t-21.5 13.5t-13 15.5
q-4 9 -3.5 27.5t4 43t10 54t14.5 61.5q-20 -50 -39 -92.5t-38 -73t-37.5 -48t-37.5 -17.5q-16 0 -35.5 11t-36 30t-27.5 42.5t-11 49.5q0 29 10.5 73t26.5 94t35 100t37 90.5t31.5 65.5t19.5 25q8 0 20 -6t24 -14.5t21 -17t11 -13.5q-8 -1 -22 -21t-30 -52.5t-33.5 -73.5
t-32.5 -84.5t-27 -85.5t-18 -75.5t-4 -55.5t15 -25q14 -4 39 29t54.5 86t61.5 117.5t60.5 123.5t51 103.5t34.5 58.5l3 3l1 1h1l1 1q6 1 16.5 -3t22 -11.5t22 -17t17.5 -18.5z" />
    <glyph glyph-name="Uacute" unicode="&#xda;" horiz-adv-x="379" 
d="M284 628q12 10 28 28.5t30 38t24 37.5t10 26q9 0 20.5 -4.5t21.5 -11t16.5 -13.5t6.5 -12t-14 -20t-36.5 -31t-50.5 -28t-56 -10zM489 520q-16 -10 -37 -48.5t-42 -91.5t-39.5 -114.5t-30.5 -116.5t-16 -98t5 -59q-5 0 -15.5 4t-22 10t-21.5 13.5t-13 15.5
q-4 9 -3.5 27.5t4 43t10 54t14.5 61.5q-20 -50 -39 -92.5t-38 -73t-37.5 -48t-37.5 -17.5q-16 0 -35.5 11t-36 30t-27.5 42.5t-11 49.5q0 29 10.5 73t26.5 94t35 100t37 90.5t31.5 65.5t19.5 25q8 0 20 -6t24 -14.5t21 -17t11 -13.5q-8 -1 -22 -21t-30 -52.5t-33.5 -73.5
t-32.5 -84.5t-27 -85.5t-18 -75.5t-4 -55.5t15 -25q14 -4 39 29t54.5 86t61.5 117.5t60.5 123.5t51 103.5t34.5 58.5l3 3l1 1h1l1 1q6 1 16.5 -3t22 -11.5t22 -17t17.5 -18.5z" />
    <glyph glyph-name="Ucircumflex" unicode="&#xdb;" horiz-adv-x="379" 
d="M418 762q4 -18 6.5 -47.5t5.5 -58.5q-9 -9 -24.5 -17.5t-26.5 -10.5q-5 17 -9.5 38t-9.5 42q-14 -15 -29.5 -36t-34.5 -44q-3 3 -7.5 16t-3.5 27q6 13 18 32t26 37.5t27 33.5t20 21q3 0 9 -4t12 -9t12 -10.5t9 -9.5zM489 520q-16 -10 -37 -48.5t-42 -91.5t-39.5 -114.5
t-30.5 -116.5t-16 -98t5 -59q-5 0 -15.5 4t-22 10t-21.5 13.5t-13 15.5q-4 9 -3.5 27.5t4 43t10 54t14.5 61.5q-20 -50 -39 -92.5t-38 -73t-37.5 -48t-37.5 -17.5q-16 0 -35.5 11t-36 30t-27.5 42.5t-11 49.5q0 29 10.5 73t26.5 94t35 100t37 90.5t31.5 65.5t19.5 25
q8 0 20 -6t24 -14.5t21 -17t11 -13.5q-8 -1 -22 -21t-30 -52.5t-33.5 -73.5t-32.5 -84.5t-27 -85.5t-18 -75.5t-4 -55.5t15 -25q14 -4 39 29t54.5 86t61.5 117.5t60.5 123.5t51 103.5t34.5 58.5l3 3l1 1h1l1 1q6 1 16.5 -3t22 -11.5t22 -17t17.5 -18.5z" />
    <glyph glyph-name="Udieresis" unicode="&#xdc;" horiz-adv-x="379" 
d="M336 686q0 -6 -2.5 -16t-8 -19.5t-14.5 -16.5t-21 -7q-18 0 -24 15.5t-4 34.5t9.5 34.5t16.5 15.5q20 0 33.5 -11t14.5 -30zM454 689q0 -6 -3 -16.5t-9.5 -21t-16.5 -18t-23 -7.5q-19 0 -25.5 16.5t-4.5 36.5t10 36.5t19 16.5q23 0 37.5 -10.5t15.5 -32.5zM489 520
q-16 -10 -37 -48.5t-42 -91.5t-39.5 -114.5t-30.5 -116.5t-16 -98t5 -59q-5 0 -15.5 4t-22 10t-21.5 13.5t-13 15.5q-4 9 -3.5 27.5t4 43t10 54t14.5 61.5q-20 -50 -39 -92.5t-38 -73t-37.5 -48t-37.5 -17.5q-16 0 -35.5 11t-36 30t-27.5 42.5t-11 49.5q0 29 10.5 73
t26.5 94t35 100t37 90.5t31.5 65.5t19.5 25q8 0 20 -6t24 -14.5t21 -17t11 -13.5q-8 -1 -22 -21t-30 -52.5t-33.5 -73.5t-32.5 -84.5t-27 -85.5t-18 -75.5t-4 -55.5t15 -25q14 -4 39 29t54.5 86t61.5 117.5t60.5 123.5t51 103.5t34.5 58.5l3 3l1 1h1l1 1q6 1 16.5 -3
t22 -11.5t22 -17t17.5 -18.5z" />
    <glyph glyph-name="Yacute" unicode="&#xdd;" horiz-adv-x="376" 
d="M303 628q12 10 28 28.5t30 38t24 37.5t10 26q9 0 20.5 -4.5t21.5 -11t16.5 -13.5t6.5 -12t-14 -20t-36.5 -31t-50.5 -28t-56 -10zM256 518q-8 -1 -22 -20.5t-30 -52t-33.5 -74t-32.5 -85t-27 -85.5t-18 -75.5t-4 -55.5t15 -25q10 -3 25.5 13t34 44.5t39.5 66.5t42.5 80.5
t43 86.5t40.5 83.5t35.5 71.5t27.5 52q9 20 16 25q6 4 18 -0.5t24.5 -13.5t23.5 -19t15 -17q-15 -11 -32.5 -42.5t-36 -76t-37 -98t-34.5 -109t-28.5 -109t-20.5 -98t-9.5 -76.5t5.5 -44q-5 0 -16 4t-23 10t-22 13.5t-13 15.5q-5 12 -2.5 40.5t10 68.5t19.5 89t27 100
q-19 -47 -37.5 -87t-36.5 -69t-36 -45.5t-36 -16.5q-16 0 -35.5 11.5t-36 30t-27.5 42.5t-11 49q0 29 10.5 73.5t26.5 94.5t35 100t37 90.5t31.5 65.5t19.5 25q8 0 20 -6t24 -14.5t21 -17t11 -14.5z" />
    <glyph glyph-name="Thorn" unicode="&#xde;" horiz-adv-x="451" 
d="M274 574q4 0 15.5 -6t23.5 -14t21.5 -16.5t10.5 -14.5q-5 0 -15.5 -17t-20.5 -34q35 -10 63.5 -29t49 -43t31.5 -50t11 -49q0 -39 -26 -78t-65 -70t-84 -50.5t-82 -19.5q-17 0 -29 4t-23 11q-14 -43 -21 -72.5t-4 -37.5q-6 0 -18 6t-23.5 16t-20.5 22t-9 24q0 11 10.5 46
t27.5 83t38.5 102.5t42.5 105.5q-55 -14 -93 -39t-43 -51q-4 5 -9 19t-8.5 30.5t-3.5 32t6 24.5q6 8 24.5 19t45 21t57.5 18t63 11q9 19 17.5 36t16 30.5t13.5 21.5t10 8zM276 406q-14 -29 -28 -62t-28 -68t-27 -70t-24 -68q56 17 101 45t75.5 59.5t44.5 62t8 52.5
q-13 49 -117 49h-5z" />
    <glyph glyph-name="germandbls" unicode="&#xdf;" horiz-adv-x="288" 
d="M321 472q-5 -20 -27 -55.5t-60 -81.5q1 -10 6.5 -40t11.5 -65.5t10 -69.5t3 -51q-1 -12 -9.5 -30.5t-23 -36t-35 -30t-45.5 -12.5q-10 0 -23 12t-22.5 29.5t-13.5 38t3 37.5q12 -15 25.5 -26.5t25.5 -18t21.5 -8t14.5 3.5q8 9 6 38t-7.5 67t-11.5 78t-5 71q0 6 9 20.5
t22.5 34t28.5 42t27 43.5q16 27 21.5 47t-2.5 25q-9 5 -26 -8.5t-37 -51.5q-18 -33 -36.5 -77t-36.5 -95t-33.5 -106t-28 -109t-19.5 -104.5t-8 -91.5q-8 2 -17 8t-18 14.5t-16 17.5t-10 17q1 56 14 128.5t34 148t47.5 147.5t54 128.5t54 91t47.5 34.5q11 0 27.5 -15.5
t31 -38.5t23 -50t3.5 -50z" />
    <glyph glyph-name="agrave" unicode="&#xe0;" 
d="M318 483q-28 -2 -51.5 10.5t-40 29.5t-25.5 33t-9 21t6.5 12t16.5 13.5t21.5 11t20.5 4.5q0 -8 5 -26.5t13.5 -39.5t19.5 -40t23 -29zM316 376q-7 -11 -19.5 -36.5t-26 -63t-27 -84t-21.5 -98.5q15 18 32 41t31.5 46t26 44t16.5 34q9 -2 6.5 -21t-12 -46t-24 -57.5
t-30.5 -56.5t-30.5 -43.5t-23.5 -17.5t-20 8t-21 19t-17 23t-7 20q0 11 1 25t3 29q-9 -25 -20 -50t-22 -45.5t-21.5 -33t-19.5 -12.5q-5 0 -14 3t-19 10t-18.5 18t-11.5 26q-5 20 -1.5 56t13 76.5t24.5 82t33.5 73.5t39.5 50t43 12q17 -5 32 -14.5t29 -20.5q7 17 13 26.5
t10 9.5q9 0 20.5 -3.5t22 -8t19 -10.5t11.5 -10zM186 279q5 15 9.5 29t9.5 27q-11 11 -20 10.5t-17 -8.5q-12 -12 -24 -34.5t-23.5 -50t-21 -56.5t-16.5 -54.5t-10.5 -44.5t-2.5 -26q3 0 13.5 16.5t26.5 44.5t35.5 66t40.5 81z" />
    <glyph glyph-name="aacute" unicode="&#xe1;" 
d="M173 488q12 10 28 28.5t30 38t24 37.5t10 26q9 0 20.5 -4.5t21.5 -11t16.5 -13.5t6.5 -12t-14 -20t-36.5 -31t-50.5 -28t-56 -10zM316 376q-7 -11 -19.5 -36.5t-26 -63t-27 -84t-21.5 -98.5q15 18 32 41t31.5 46t26 44t16.5 34q9 -2 6.5 -21t-12 -46t-24 -57.5
t-30.5 -56.5t-30.5 -43.5t-23.5 -17.5t-20 8t-21 19t-17 23t-7 20q0 11 1 25t3 29q-9 -25 -20 -50t-22 -45.5t-21.5 -33t-19.5 -12.5q-5 0 -14 3t-19 10t-18.5 18t-11.5 26q-5 20 -1.5 56t13 76.5t24.5 82t33.5 73.5t39.5 50t43 12q17 -5 32 -14.5t29 -20.5q7 17 13 26.5
t10 9.5q9 0 20.5 -3.5t22 -8t19 -10.5t11.5 -10zM186 279q5 15 9.5 29t9.5 27q-11 11 -20 10.5t-17 -8.5q-12 -12 -24 -34.5t-23.5 -50t-21 -56.5t-16.5 -54.5t-10.5 -44.5t-2.5 -26q3 0 13.5 16.5t26.5 44.5t35.5 66t40.5 81z" />
    <glyph glyph-name="acircumflex" unicode="&#xe2;" 
d="M314 621q4 -18 6.5 -47.5t5.5 -58.5q-9 -9 -24.5 -17.5t-26.5 -10.5q-5 17 -9.5 38t-9.5 42q-14 -15 -29.5 -36t-34.5 -44q-3 3 -7.5 16t-3.5 27q6 13 18 32t26 37.5t27 33.5t20 21q3 0 9 -4t12 -9t12 -10.5t9 -9.5zM316 376q-7 -11 -19.5 -36.5t-26 -63t-27 -84
t-21.5 -98.5q15 18 32 41t31.5 46t26 44t16.5 34q9 -2 6.5 -21t-12 -46t-24 -57.5t-30.5 -56.5t-30.5 -43.5t-23.5 -17.5t-20 8t-21 19t-17 23t-7 20q0 11 1 25t3 29q-9 -25 -20 -50t-22 -45.5t-21.5 -33t-19.5 -12.5q-5 0 -14 3t-19 10t-18.5 18t-11.5 26q-5 20 -1.5 56
t13 76.5t24.5 82t33.5 73.5t39.5 50t43 12q17 -5 32 -14.5t29 -20.5q7 17 13 26.5t10 9.5q9 0 20.5 -3.5t22 -8t19 -10.5t11.5 -10zM186 279q5 15 9.5 29t9.5 27q-11 11 -20 10.5t-17 -8.5q-12 -12 -24 -34.5t-23.5 -50t-21 -56.5t-16.5 -54.5t-10.5 -44.5t-2.5 -26
q3 0 13.5 16.5t26.5 44.5t35.5 66t40.5 81z" />
    <glyph glyph-name="atilde" unicode="&#xe3;" 
d="M163 496q-9 0 -16.5 8t-12.5 18.5t-8 22t-3 19.5q11 -4 26 -4q18 0 37.5 4t39 9t37.5 9t32 4q10 0 18.5 -10.5t13.5 -25t7.5 -29t0.5 -22.5q-8 9 -20.5 12.5t-26.5 3.5q-16 0 -33 -3t-33.5 -6.5t-31.5 -6.5t-27 -3zM316 376q-7 -11 -19.5 -36.5t-26 -63t-27 -84
t-21.5 -98.5q15 18 32 41t31.5 46t26 44t16.5 34q9 -2 6.5 -21t-12 -46t-24 -57.5t-30.5 -56.5t-30.5 -43.5t-23.5 -17.5t-20 8t-21 19t-17 23t-7 20q0 11 1 25t3 29q-9 -25 -20 -50t-22 -45.5t-21.5 -33t-19.5 -12.5q-5 0 -14 3t-19 10t-18.5 18t-11.5 26q-5 20 -1.5 56
t13 76.5t24.5 82t33.5 73.5t39.5 50t43 12q17 -5 32 -14.5t29 -20.5q7 17 13 26.5t10 9.5q9 0 20.5 -3.5t22 -8t19 -10.5t11.5 -10zM186 279q5 15 9.5 29t9.5 27q-11 11 -20 10.5t-17 -8.5q-12 -12 -24 -34.5t-23.5 -50t-21 -56.5t-16.5 -54.5t-10.5 -44.5t-2.5 -26
q3 0 13.5 16.5t26.5 44.5t35.5 66t40.5 81z" />
    <glyph glyph-name="adieresis" unicode="&#xe4;" 
d="M217 550q0 -6 -2.5 -16t-8 -19.5t-14.5 -16.5t-21 -7q-18 0 -24 15.5t-4 34.5t9.5 34.5t16.5 15.5q20 0 33.5 -11t14.5 -30zM335 553q0 -6 -3 -16.5t-9.5 -21t-16.5 -18t-23 -7.5q-19 0 -25.5 16.5t-4.5 36.5t10 36.5t19 16.5q23 0 37.5 -10.5t15.5 -32.5zM316 376
q-7 -11 -19.5 -36.5t-26 -63t-27 -84t-21.5 -98.5q15 18 32 41t31.5 46t26 44t16.5 34q9 -2 6.5 -21t-12 -46t-24 -57.5t-30.5 -56.5t-30.5 -43.5t-23.5 -17.5t-20 8t-21 19t-17 23t-7 20q0 11 1 25t3 29q-9 -25 -20 -50t-22 -45.5t-21.5 -33t-19.5 -12.5q-5 0 -14 3t-19 10
t-18.5 18t-11.5 26q-5 20 -1.5 56t13 76.5t24.5 82t33.5 73.5t39.5 50t43 12q17 -5 32 -14.5t29 -20.5q7 17 13 26.5t10 9.5q9 0 20.5 -3.5t22 -8t19 -10.5t11.5 -10zM186 279q5 15 9.5 29t9.5 27q-11 11 -20 10.5t-17 -8.5q-12 -12 -24 -34.5t-23.5 -50t-21 -56.5
t-16.5 -54.5t-10.5 -44.5t-2.5 -26q3 0 13.5 16.5t26.5 44.5t35.5 66t40.5 81z" />
    <glyph glyph-name="aring" unicode="&#xe5;" 
d="M286 653q22 -6 34 -20.5t15 -33.5t-2.5 -39t-17.5 -37t-29.5 -28t-39.5 -11q-27 0 -51 15.5t-32 35.5q-8 23 -1.5 51.5t24 49.5t43.5 28.5t57 -11.5zM231 531q15 -3 26.5 9.5t16.5 28.5t2 31t-17 17q-14 3 -24.5 -9t-15.5 -28.5t-2.5 -31t14.5 -17.5zM316 376
q-7 -11 -19.5 -36.5t-26 -63t-27 -84t-21.5 -98.5q15 18 32 41t31.5 46t26 44t16.5 34q9 -2 6.5 -21t-12 -46t-24 -57.5t-30.5 -56.5t-30.5 -43.5t-23.5 -17.5t-20 8t-21 19t-17 23t-7 20q0 11 1 25t3 29q-9 -25 -20 -50t-22 -45.5t-21.5 -33t-19.5 -12.5q-5 0 -14 3t-19 10
t-18.5 18t-11.5 26q-5 20 -1.5 56t13 76.5t24.5 82t33.5 73.5t39.5 50t43 12q17 -5 32 -14.5t29 -20.5q7 17 13 26.5t10 9.5q9 0 20.5 -3.5t22 -8t19 -10.5t11.5 -10zM186 279q5 15 9.5 29t9.5 27q-11 11 -20 10.5t-17 -8.5q-12 -12 -24 -34.5t-23.5 -50t-21 -56.5
t-16.5 -54.5t-10.5 -44.5t-2.5 -26q3 0 13.5 16.5t26.5 44.5t35.5 66t40.5 81z" />
    <glyph glyph-name="ae" unicode="&#xe6;" horiz-adv-x="365" 
d="M418 243q8 -8 2.5 -29.5t-19 -48.5t-33 -56t-40 -53.5t-39.5 -40t-32 -15.5q-21 0 -40.5 10t-34.5 24.5t-23.5 31t-8.5 29.5v17t2 18q-10 -24 -20.5 -47.5t-21.5 -41.5t-21 -29.5t-19 -11.5q-5 0 -14 3t-19 10t-18.5 18t-11.5 26q-5 20 -1.5 56t13 76.5t24.5 82
t33.5 73.5t39.5 50t43 12q21 -5 40 -18.5t33 -28.5q16 23 31.5 36t30.5 13q4 0 18.5 -8t30.5 -20.5t29 -27.5t14 -28q2 -26 -12 -57.5t-35.5 -54t-47.5 -29t-47 17.5q-8 -24 -14 -47t-9 -41.5t-2 -32t7 -17.5q7 -5 22 3t34.5 24t41 37t40.5 42.5t33.5 41t20.5 31.5zM70 71
q3 0 16.5 19t33 53t43 81.5t48.5 105.5q-14 15 -24 16.5t-19 -9.5q-12 -12 -24.5 -34t-24 -49.5t-21 -56.5t-16.5 -55t-10 -45t-2 -26zM329 353q-7 0 -16.5 -11t-20 -29t-21 -42t-19.5 -49q22 6 37.5 22.5t25 36.5t13 39.5t1.5 32.5z" />
    <glyph glyph-name="ccedilla" unicode="&#xe7;" horiz-adv-x="219" 
d="M272 243q7 -8 3 -27t-16 -44t-29.5 -52.5t-36.5 -51.5t-38 -42t-33 -24q-3 -21 -10.5 -42.5t-16.5 -39.5t-18 -29.5t-16 -11.5q-14 0 -28.5 8t-25.5 21t-18 28t-7 29q9 -11 24 -18.5t26 -7.5q10 0 22.5 21.5t23.5 45.5q-16 6 -29.5 17t-23.5 23.5t-15.5 25.5t-5.5 23
q0 45 14 100t35 102.5t46.5 79.5t48.5 32q4 0 18.5 -8t30.5 -20.5t29 -27.5t14 -28q3 -27 -9 -51t-29.5 -41t-35 -24t-25.5 -1q10 16 19 37.5t15 42t8.5 38t-0.5 27.5q-9 0 -23 -19.5t-28 -49.5t-27.5 -65.5t-21.5 -68t-10 -56.5t7 -30q7 -5 22 3t34.5 24t41 37t40.5 42.5
t33.5 41t20.5 31.5z" />
    <glyph glyph-name="egrave" unicode="&#xe8;" horiz-adv-x="219" 
d="M277 483q-28 -2 -51.5 10.5t-40 29.5t-25.5 33t-9 21t6.5 12t16.5 13.5t21.5 11t20.5 4.5q0 -8 5 -26.5t13.5 -39.5t19.5 -40t23 -29zM272 243q8 -8 2.5 -29.5t-19 -48.5t-33 -56t-40 -53.5t-39.5 -40t-32 -15.5q-21 0 -40.5 10t-34.5 24.5t-23.5 31t-8.5 29.5
q0 45 14 100t35 102.5t46.5 79.5t48.5 32q4 0 18.5 -8t30.5 -20.5t29 -27.5t14 -28q2 -26 -12 -57.5t-35.5 -54t-47.5 -29t-47 17.5q-8 -24 -14 -47t-9 -41.5t-2 -32t7 -17.5q7 -5 22 3t34.5 24t41 37t40.5 42.5t33.5 41t20.5 31.5zM183 353q-7 0 -16.5 -11t-20 -29t-21 -42
t-19.5 -49q22 6 37.5 22.5t25 36.5t13 39.5t1.5 32.5z" />
    <glyph glyph-name="eacute" unicode="&#xe9;" horiz-adv-x="219" 
d="M138 488q12 10 28 28.5t30 38t24 37.5t10 26q9 0 20.5 -4.5t21.5 -11t16.5 -13.5t6.5 -12t-14 -20t-36.5 -31t-50.5 -28t-56 -10zM272 243q8 -8 2.5 -29.5t-19 -48.5t-33 -56t-40 -53.5t-39.5 -40t-32 -15.5q-21 0 -40.5 10t-34.5 24.5t-23.5 31t-8.5 29.5q0 45 14 100
t35 102.5t46.5 79.5t48.5 32q4 0 18.5 -8t30.5 -20.5t29 -27.5t14 -28q2 -26 -12 -57.5t-35.5 -54t-47.5 -29t-47 17.5q-8 -24 -14 -47t-9 -41.5t-2 -32t7 -17.5q7 -5 22 3t34.5 24t41 37t40.5 42.5t33.5 41t20.5 31.5zM183 353q-7 0 -16.5 -11t-20 -29t-21 -42t-19.5 -49
q22 6 37.5 22.5t25 36.5t13 39.5t1.5 32.5z" />
    <glyph glyph-name="ecircumflex" unicode="&#xea;" horiz-adv-x="219" 
d="M271 621q4 -18 6.5 -47.5t5.5 -58.5q-9 -9 -24.5 -17.5t-26.5 -10.5q-5 17 -9.5 38t-9.5 42q-14 -15 -29.5 -36t-34.5 -44q-3 3 -7.5 16t-3.5 27q6 13 18 32t26 37.5t27 33.5t20 21q3 0 9 -4t12 -9t12 -10.5t9 -9.5zM272 243q8 -8 2.5 -29.5t-19 -48.5t-33 -56t-40 -53.5
t-39.5 -40t-32 -15.5q-21 0 -40.5 10t-34.5 24.5t-23.5 31t-8.5 29.5q0 45 14 100t35 102.5t46.5 79.5t48.5 32q4 0 18.5 -8t30.5 -20.5t29 -27.5t14 -28q2 -26 -12 -57.5t-35.5 -54t-47.5 -29t-47 17.5q-8 -24 -14 -47t-9 -41.5t-2 -32t7 -17.5q7 -5 22 3t34.5 24t41 37
t40.5 42.5t33.5 41t20.5 31.5zM183 353q-7 0 -16.5 -11t-20 -29t-21 -42t-19.5 -49q22 6 37.5 22.5t25 36.5t13 39.5t1.5 32.5z" />
    <glyph glyph-name="edieresis" unicode="&#xeb;" horiz-adv-x="219" 
d="M188 550q0 -6 -2.5 -16t-8 -19.5t-14.5 -16.5t-21 -7q-18 0 -24 15.5t-4 34.5t9.5 34.5t16.5 15.5q20 0 33.5 -11t14.5 -30zM296 553q0 -6 -3 -16.5t-9.5 -21t-16.5 -18t-23 -7.5q-19 0 -25.5 16.5t-4.5 36.5t10 36.5t19 16.5q23 0 37.5 -10.5t15.5 -32.5zM272 243
q8 -8 2.5 -29.5t-19 -48.5t-33 -56t-40 -53.5t-39.5 -40t-32 -15.5q-21 0 -40.5 10t-34.5 24.5t-23.5 31t-8.5 29.5q0 45 14 100t35 102.5t46.5 79.5t48.5 32q4 0 18.5 -8t30.5 -20.5t29 -27.5t14 -28q2 -26 -12 -57.5t-35.5 -54t-47.5 -29t-47 17.5q-8 -24 -14 -47
t-9 -41.5t-2 -32t7 -17.5q7 -5 22 3t34.5 24t41 37t40.5 42.5t33.5 41t20.5 31.5zM183 353q-7 0 -16.5 -11t-20 -29t-21 -42t-19.5 -49q22 6 37.5 22.5t25 36.5t13 39.5t1.5 32.5z" />
    <glyph glyph-name="igrave" unicode="&#xec;" horiz-adv-x="136" 
d="M252 483q-28 -2 -51.5 10.5t-40 29.5t-25.5 33t-9 21t6.5 12t16.5 13.5t21.5 11t20.5 4.5q0 -8 5 -26.5t13.5 -39.5t19.5 -40t23 -29zM177 376q-7 -11 -20 -38t-28 -66.5t-29.5 -88t-24.5 -101.5q16 19 34 44.5t33.5 50.5t27.5 47t17 35q9 -2 6.5 -22t-13 -49t-26.5 -62
t-32.5 -61t-32 -46.5t-24.5 -18.5q-8 0 -18.5 8t-20 19t-16 23t-6.5 20q1 26 7.5 61t16.5 72.5t22 74.5t23.5 65.5t20.5 46.5t14 18q9 0 20 -3.5t21 -8t17.5 -10.5t10.5 -10z" />
    <glyph glyph-name="iacute" unicode="&#xed;" horiz-adv-x="136" 
d="M119 488q12 10 28 28.5t30 38t24 37.5t10 26q9 0 20.5 -4.5t21.5 -11t16.5 -13.5t6.5 -12t-14 -20t-36.5 -31t-50.5 -28t-56 -10zM177 376q-7 -11 -20 -38t-28 -66.5t-29.5 -88t-24.5 -101.5q16 19 34 44.5t33.5 50.5t27.5 47t17 35q9 -2 6.5 -22t-13 -49t-26.5 -62
t-32.5 -61t-32 -46.5t-24.5 -18.5q-8 0 -18.5 8t-20 19t-16 23t-6.5 20q1 26 7.5 61t16.5 72.5t22 74.5t23.5 65.5t20.5 46.5t14 18q9 0 20 -3.5t21 -8t17.5 -10.5t10.5 -10z" />
    <glyph glyph-name="icircumflex" unicode="&#xee;" horiz-adv-x="136" 
d="M244 621q4 -18 6.5 -47.5t5.5 -58.5q-9 -9 -24.5 -17.5t-26.5 -10.5q-5 17 -9.5 38t-9.5 42q-14 -15 -29.5 -36t-34.5 -44q-3 3 -7.5 16t-3.5 27q6 13 18 32t26 37.5t27 33.5t20 21q3 0 9 -4t12 -9t12 -10.5t9 -9.5zM177 376q-7 -11 -20 -38t-28 -66.5t-29.5 -88
t-24.5 -101.5q16 19 34 44.5t33.5 50.5t27.5 47t17 35q9 -2 6.5 -22t-13 -49t-26.5 -62t-32.5 -61t-32 -46.5t-24.5 -18.5q-8 0 -18.5 8t-20 19t-16 23t-6.5 20q1 26 7.5 61t16.5 72.5t22 74.5t23.5 65.5t20.5 46.5t14 18q9 0 20 -3.5t21 -8t17.5 -10.5t10.5 -10z" />
    <glyph glyph-name="idieresis" unicode="&#xef;" horiz-adv-x="136" 
d="M180 550q0 -6 -2.5 -16.5t-8 -20.5t-13.5 -17.5t-20 -7.5q-18 0 -23.5 16.5t-3.5 36t9 36t16 16.5q20 0 32.5 -11.5t13.5 -31.5zM260 550q0 -6 -2.5 -16.5t-7.5 -20.5t-13 -17.5t-20 -7.5q-18 0 -23.5 16.5t-3.5 36t9 36t16 16.5q20 0 32.5 -11.5t12.5 -31.5zM177 376
q-7 -11 -20 -38t-28 -66.5t-29.5 -88t-24.5 -101.5q16 19 34 44.5t33.5 50.5t27.5 47t17 35q9 -2 6.5 -22t-13 -49t-26.5 -62t-32.5 -61t-32 -46.5t-24.5 -18.5q-8 0 -18.5 8t-20 19t-16 23t-6.5 20q1 26 7.5 61t16.5 72.5t22 74.5t23.5 65.5t20.5 46.5t14 18q9 0 20 -3.5
t21 -8t17.5 -10.5t10.5 -10z" />
    <glyph glyph-name="eth" unicode="&#xf0;" horiz-adv-x="260" 
d="M283 519q3 0 6.5 -6t7 -14t5.5 -17t2 -16q-3 2 -13.5 0.5t-25.5 -6.5q7 -40 5 -90t-10.5 -101t-23 -99.5t-33.5 -86t-41.5 -60.5t-46.5 -23q-6 0 -21 4.5t-32 14t-31.5 23t-19.5 31.5q-6 23 -4 56.5t10.5 70t23 73.5t33 66t40.5 47t46 18q10 0 19 -5.5t17 -13.5
q-2 27 -6 49q-23 -8 -42.5 -14t-28.5 -6q-4 0 -11.5 19.5t-8.5 41.5q5 -7 26.5 -4t47.5 11q-14 24 -35 35q17 16 34 29.5t25 12.5q36 -6 55 -51q13 5 21 8t10 3zM96 62q10 0 26 24.5t31 64t27 88t15 96.5q-4 3 -7 6t-5 4q-12 6 -25.5 -12.5t-26.5 -50t-23.5 -70t-16.5 -72
t-5.5 -56t10.5 -22.5z" />
    <glyph glyph-name="ntilde" unicode="&#xf1;" horiz-adv-x="276" 
d="M148 496q-9 0 -16.5 8t-12.5 18.5t-8 22t-3 19.5q11 -4 26 -4q18 0 37.5 4t39 9t37.5 9t32 4q10 0 18.5 -10.5t13.5 -25t7.5 -29t0.5 -22.5q-8 9 -20.5 12.5t-26.5 3.5q-16 0 -33 -3t-33.5 -6.5t-31.5 -6.5t-27 -3zM241 385q4 0 13 -4t19.5 -10.5t19.5 -14.5t13 -17
q-8 -14 -20.5 -41.5t-26 -62.5t-25.5 -73.5t-18 -75.5q15 17 32.5 41t33 48.5t28 47t17.5 36.5q8 -1 6 -19.5t-11 -45t-22.5 -57.5t-28 -57t-28.5 -43.5t-23 -17.5t-22 6.5t-25 15.5t-20.5 19t-8.5 17q0 16 4.5 38t11.5 47t16.5 51t18.5 51q-18 -26 -39 -64t-40 -77
t-33 -72.5t-18 -50.5q-8 0 -18.5 8t-20 19t-16 23t-6.5 20q0 26 6 61t15.5 72.5t21 74.5t22 65.5t19.5 46.5t14 18q9 0 20 -3.5t21 -8t17.5 -10t10.5 -9.5q-6 -9 -15.5 -29t-20.5 -48.5t-23 -64.5t-22 -76q18 40 41 80.5t45 72.5t40 52.5t25 20.5z" />
    <glyph glyph-name="ograve" unicode="&#xf2;" horiz-adv-x="251" 
d="M269 483q-28 -2 -51.5 10.5t-40 29.5t-25.5 33t-9 21t6.5 12t16.5 13.5t21.5 11t20.5 4.5q0 -8 5 -26.5t13.5 -39.5t19.5 -40t23 -29zM367 333q-5 -8 -17 -18.5t-28 -20.5t-35.5 -19t-39.5 -15q-4 -42 -18 -88t-34 -84.5t-44 -63t-48 -24.5q-10 0 -26.5 6t-32 19
t-26.5 31.5t-11 44.5t6 59t16.5 66.5t26 65.5t33.5 57t38.5 40t42.5 15q11 0 21.5 -7.5t20.5 -19t18.5 -25t15.5 -24.5l3 -23q26 2 51.5 9t66.5 19zM172 249q-15 3 -15 30q0 11 2.5 25t5.5 29q-14 -17 -28.5 -49.5t-26 -69.5t-19 -72t-7.5 -56q0 -24 10 -24t23.5 16.5
t26.5 43.5t25 60.5t19 67.5q-5 -1 -9.5 -1h-6.5z" />
    <glyph glyph-name="oacute" unicode="&#xf3;" horiz-adv-x="251" 
d="M125 488q12 10 28 28.5t30 38t24 37.5t10 26q9 0 20.5 -4.5t21.5 -11t16.5 -13.5t6.5 -12t-14 -20t-36.5 -31t-50.5 -28t-56 -10zM367 333q-5 -8 -17 -18.5t-28 -20.5t-35.5 -19t-39.5 -15q-4 -42 -18 -88t-34 -84.5t-44 -63t-48 -24.5q-10 0 -26.5 6t-32 19t-26.5 31.5
t-11 44.5t6 59t16.5 66.5t26 65.5t33.5 57t38.5 40t42.5 15q11 0 21.5 -7.5t20.5 -19t18.5 -25t15.5 -24.5l3 -23q26 2 51.5 9t66.5 19zM172 249q-15 3 -15 30q0 11 2.5 25t5.5 29q-14 -17 -28.5 -49.5t-26 -69.5t-19 -72t-7.5 -56q0 -24 10 -24t23.5 16.5t26.5 43.5
t25 60.5t19 67.5q-5 -1 -9.5 -1h-6.5z" />
    <glyph glyph-name="ocircumflex" unicode="&#xf4;" horiz-adv-x="251" 
d="M268 621q4 -18 6.5 -47.5t5.5 -58.5q-9 -9 -24.5 -17.5t-26.5 -10.5q-5 17 -9.5 38t-9.5 42q-14 -15 -29.5 -36t-34.5 -44q-3 3 -7.5 16t-3.5 27q6 13 18 32t26 37.5t27 33.5t20 21q3 0 9 -4t12 -9t12 -10.5t9 -9.5zM367 333q-5 -8 -17 -18.5t-28 -20.5t-35.5 -19
t-39.5 -15q-4 -42 -18 -88t-34 -84.5t-44 -63t-48 -24.5q-10 0 -26.5 6t-32 19t-26.5 31.5t-11 44.5t6 59t16.5 66.5t26 65.5t33.5 57t38.5 40t42.5 15q11 0 21.5 -7.5t20.5 -19t18.5 -25t15.5 -24.5l3 -23q26 2 51.5 9t66.5 19zM172 249q-15 3 -15 30q0 11 2.5 25t5.5 29
q-14 -17 -28.5 -49.5t-26 -69.5t-19 -72t-7.5 -56q0 -24 10 -24t23.5 16.5t26.5 43.5t25 60.5t19 67.5q-5 -1 -9.5 -1h-6.5z" />
    <glyph glyph-name="otilde" unicode="&#xf5;" horiz-adv-x="251" 
d="M146 496q-9 0 -16.5 8t-12.5 18.5t-8 22t-3 19.5q11 -4 26 -4q13 0 29 4t33.5 9t34.5 9t31 4q10 0 18.5 -10.5t13.5 -25t7.5 -29t0.5 -22.5q-8 9 -20.5 12.5t-26.5 3.5q-32 0 -58 -9.5t-49 -9.5zM367 333q-5 -8 -17 -18.5t-28 -20.5t-35.5 -19t-39.5 -15q-4 -42 -18 -88
t-34 -84.5t-44 -63t-48 -24.5q-10 0 -26.5 6t-32 19t-26.5 31.5t-11 44.5t6 59t16.5 66.5t26 65.5t33.5 57t38.5 40t42.5 15q11 0 21.5 -7.5t20.5 -19t18.5 -25t15.5 -24.5l3 -23q26 2 51.5 9t66.5 19zM172 249q-15 3 -15 30q0 11 2.5 25t5.5 29q-14 -17 -28.5 -49.5
t-26 -69.5t-19 -72t-7.5 -56q0 -24 10 -24t23.5 16.5t26.5 43.5t25 60.5t19 67.5q-5 -1 -9.5 -1h-6.5z" />
    <glyph glyph-name="odieresis" unicode="&#xf6;" horiz-adv-x="251" 
d="M196 550q0 -6 -2.5 -16t-8 -19.5t-14.5 -16.5t-21 -7q-18 0 -24 15.5t-4 34.5t9.5 34.5t16.5 15.5q20 0 33.5 -11t14.5 -30zM304 553q0 -6 -3 -16.5t-9.5 -21t-16.5 -18t-23 -7.5q-19 0 -25.5 16.5t-4.5 36.5t10 36.5t19 16.5q23 0 37.5 -10.5t15.5 -32.5zM367 333
q-5 -8 -17 -18.5t-28 -20.5t-35.5 -19t-39.5 -15q-4 -42 -18 -88t-34 -84.5t-44 -63t-48 -24.5q-10 0 -26.5 6t-32 19t-26.5 31.5t-11 44.5t6 59t16.5 66.5t26 65.5t33.5 57t38.5 40t42.5 15q11 0 21.5 -7.5t20.5 -19t18.5 -25t15.5 -24.5l3 -23q26 2 51.5 9t66.5 19z
M172 249q-15 3 -15 30q0 11 2.5 25t5.5 29q-14 -17 -28.5 -49.5t-26 -69.5t-19 -72t-7.5 -56q0 -24 10 -24t23.5 16.5t26.5 43.5t25 60.5t19 67.5q-5 -1 -9.5 -1h-6.5z" />
    <glyph glyph-name="divide" unicode="&#xf7;" horiz-adv-x="384" 
d="M338 249q6 0 10.5 -7t7 -17t4 -20t1.5 -17q-19 1 -53.5 0.5t-73 -1t-75 -1.5t-59.5 -1q-6 0 -10.5 7t-7 17.5t-3.5 22t1 21.5q16 -3 51.5 -4t75 -1t76 0.5t55.5 0.5zM240 83q0 -5 -3.5 -15t-10.5 -20t-18 -17t-27 -7q-22 0 -29.5 15.5t-5 34.5t12 34.5t21.5 15.5
q26 0 42.5 -10t17.5 -31zM310 368q0 -5 -3.5 -15t-10.5 -20t-18 -17t-27 -7q-22 0 -29.5 15.5t-5 34.5t12 34.5t21.5 15.5q26 0 42.5 -10t17.5 -31z" />
    <glyph glyph-name="oslash" unicode="&#xf8;" horiz-adv-x="244" 
d="M283 381q-7 -2 -19 -16.5t-28 -38.5l2 -10t1 -11q29 3 64.5 12.5t77.5 21.5q-6 -14 -21.5 -26t-35 -22.5t-41.5 -18t-43 -12.5q-3 -42 -15 -88t-31 -84.5t-42 -63t-47 -24.5q-6 0 -19 4t-27 12l-35 -64q-2 0 -5 15.5t-5 32.5l17 37q-16 16 -22 36q-6 23 -4 56.5t10.5 70
t23 73.5t33 66t40.5 47t46 18q13 0 24 -8.5t21 -22.5q12 20 20 32t11 12t10 -3.5t15.5 -9t15 -12t8.5 -11.5zM94 62q10 0 22.5 15t25.5 39.5t23.5 56.5t15.5 65q-23 -41 -48 -85.5t-48 -87.5q4 -3 9 -3zM180 330q-12 6 -26.5 -11t-28.5 -46t-25.5 -65t-17.5 -68
q26 52 51.5 101.5t46.5 88.5z" />
    <glyph glyph-name="ugrave" unicode="&#xf9;" 
d="M296 483q-28 -2 -51.5 10.5t-40 29.5t-25.5 33t-9 21t6.5 12t16.5 13.5t21.5 11t20.5 4.5q0 -8 5 -26.5t13.5 -39.5t19.5 -40t23 -29zM103 408q9 0 20.5 -3.5t22 -9t17.5 -11t9 -8.5q-10 -15 -21.5 -41.5t-23.5 -58.5t-22.5 -65t-19 -62t-12.5 -50t-3 -28q3 0 13.5 16.5
t26.5 44.5t35.5 66t40.5 81q15 49 30 83.5t23 34.5q9 0 20.5 -3.5t22 -8t19 -10.5t11.5 -10q-7 -11 -18.5 -35.5t-25 -59.5t-26 -80t-20.5 -96q16 18 32.5 41t31.5 46.5t26 44t16 33.5q9 -2 6.5 -21t-12 -46t-24 -57.5t-30.5 -56.5t-30.5 -43.5t-23.5 -17.5t-20 8t-21 19
t-17 23t-7 20q0 12 1.5 25.5t3.5 28.5q-10 -25 -21 -50t-22 -45.5t-21.5 -33t-19.5 -12.5q-5 0 -14 3t-19 10t-18.5 18t-11.5 26q-5 21 -1 54.5t13 72.5t21.5 79t24.5 72t22.5 52.5t15.5 20.5z" />
    <glyph glyph-name="uacute" unicode="&#xfa;" 
d="M153 488q12 10 28 28.5t30 38t24 37.5t10 26q9 0 20.5 -4.5t21.5 -11t16.5 -13.5t6.5 -12t-14 -20t-36.5 -31t-50.5 -28t-56 -10zM103 408q9 0 20.5 -3.5t22 -9t17.5 -11t9 -8.5q-10 -15 -21.5 -41.5t-23.5 -58.5t-22.5 -65t-19 -62t-12.5 -50t-3 -28q3 0 13.5 16.5
t26.5 44.5t35.5 66t40.5 81q15 49 30 83.5t23 34.5q9 0 20.5 -3.5t22 -8t19 -10.5t11.5 -10q-7 -11 -18.5 -35.5t-25 -59.5t-26 -80t-20.5 -96q16 18 32.5 41t31.5 46.5t26 44t16 33.5q9 -2 6.5 -21t-12 -46t-24 -57.5t-30.5 -56.5t-30.5 -43.5t-23.5 -17.5t-20 8t-21 19
t-17 23t-7 20q0 12 1.5 25.5t3.5 28.5q-10 -25 -21 -50t-22 -45.5t-21.5 -33t-19.5 -12.5q-5 0 -14 3t-19 10t-18.5 18t-11.5 26q-5 21 -1 54.5t13 72.5t21.5 79t24.5 72t22.5 52.5t15.5 20.5z" />
    <glyph glyph-name="ucircumflex" unicode="&#xfb;" 
d="M296 621q4 -18 6.5 -47.5t5.5 -58.5q-9 -9 -24.5 -17.5t-26.5 -10.5q-5 17 -9.5 38t-9.5 42q-14 -15 -29.5 -36t-34.5 -44q-3 3 -7.5 16t-3.5 27q6 13 18 32t26 37.5t27 33.5t20 21q3 0 9 -4t12 -9t12 -10.5t9 -9.5zM103 408q9 0 20.5 -3.5t22 -9t17.5 -11t9 -8.5
q-10 -15 -21.5 -41.5t-23.5 -58.5t-22.5 -65t-19 -62t-12.5 -50t-3 -28q3 0 13.5 16.5t26.5 44.5t35.5 66t40.5 81q15 49 30 83.5t23 34.5q9 0 20.5 -3.5t22 -8t19 -10.5t11.5 -10q-7 -11 -18.5 -35.5t-25 -59.5t-26 -80t-20.5 -96q16 18 32.5 41t31.5 46.5t26 44t16 33.5
q9 -2 6.5 -21t-12 -46t-24 -57.5t-30.5 -56.5t-30.5 -43.5t-23.5 -17.5t-20 8t-21 19t-17 23t-7 20q0 12 1.5 25.5t3.5 28.5q-10 -25 -21 -50t-22 -45.5t-21.5 -33t-19.5 -12.5q-5 0 -14 3t-19 10t-18.5 18t-11.5 26q-5 21 -1 54.5t13 72.5t21.5 79t24.5 72t22.5 52.5
t15.5 20.5z" />
    <glyph glyph-name="udieresis" unicode="&#xfc;" 
d="M212 550q0 -6 -2.5 -16t-8 -19.5t-14.5 -16.5t-21 -7q-18 0 -24 15.5t-4 34.5t9.5 34.5t16.5 15.5q20 0 33.5 -11t14.5 -30zM330 553q0 -6 -3 -16.5t-9.5 -21t-16.5 -18t-23 -7.5q-19 0 -25.5 16.5t-4.5 36.5t10 36.5t19 16.5q23 0 37.5 -10.5t15.5 -32.5zM103 408
q9 0 20.5 -3.5t22 -9t17.5 -11t9 -8.5q-10 -15 -21.5 -41.5t-23.5 -58.5t-22.5 -65t-19 -62t-12.5 -50t-3 -28q3 0 13.5 16.5t26.5 44.5t35.5 66t40.5 81q15 49 30 83.5t23 34.5q9 0 20.5 -3.5t22 -8t19 -10.5t11.5 -10q-7 -11 -18.5 -35.5t-25 -59.5t-26 -80t-20.5 -96
q16 18 32.5 41t31.5 46.5t26 44t16 33.5q9 -2 6.5 -21t-12 -46t-24 -57.5t-30.5 -56.5t-30.5 -43.5t-23.5 -17.5t-20 8t-21 19t-17 23t-7 20q0 12 1.5 25.5t3.5 28.5q-10 -25 -21 -50t-22 -45.5t-21.5 -33t-19.5 -12.5q-5 0 -14 3t-19 10t-18.5 18t-11.5 26q-5 21 -1 54.5
t13 72.5t21.5 79t24.5 72t22.5 52.5t15.5 20.5z" />
    <glyph glyph-name="yacute" unicode="&#xfd;" horiz-adv-x="261" 
d="M149 488q12 10 28 28.5t30 38t24 37.5t10 26q9 0 20.5 -4.5t21.5 -11t16.5 -13.5t6.5 -12t-14 -20t-36.5 -31t-50.5 -28t-56 -10zM148 -172q-4 0 -15 3.5t-21.5 9.5t-18.5 15t-6 19q11 62 27.5 126.5t33.5 126.5q-9 -24 -19.5 -47t-20.5 -41t-19.5 -29t-18.5 -11
q-5 0 -14 3t-19 10t-18.5 18t-11.5 26q-5 21 -1 54.5t13 72.5t21.5 79t24.5 72t22.5 52.5t15.5 20.5q9 0 20.5 -3.5t22 -9t17.5 -11t9 -8.5q-10 -15 -21.5 -41.5t-23.5 -58.5t-22.5 -65t-19 -62t-12.5 -50t-3 -28q3 0 16 20t31.5 54t41.5 79t46 95q11 34 18.5 54t9.5 21
q8 4 19.5 2t22.5 -7.5t20 -12t11 -10.5q-15 -35 -33 -81.5t-35.5 -98.5t-33.5 -105.5t-28.5 -101.5t-20 -87.5t-7.5 -63.5z" />
    <glyph glyph-name="thorn" unicode="&#xfe;" horiz-adv-x="271" 
d="M7 -171q-4 0 -15 3.5t-21.5 9.5t-18.5 15t-6 19q10 56 28.5 130.5t41 152.5t46 154t44 136t35.5 96.5t19 36.5q9 0 20 -5.5t21 -12.5t18 -14.5t10 -11.5q-6 -2 -16 -23t-22 -54t-25 -73.5t-26 -80.5q23 44 42.5 69.5t32.5 25.5q5 0 14.5 -6t19.5 -14.5t18 -18.5t10 -18
q3 -13 1.5 -32t-6 -41.5t-12 -47t-16.5 -49.5q29 21 53.5 42.5t38.5 41.5q5 -16 -4 -36t-28 -41.5t-44 -42.5t-51 -40q-12 -21 -25 -39t-27 -30t-28 -17.5t-27 -1.5q-14 4 -26 11.5t-21 17.5q-21 -72 -34.5 -128.5t-13.5 -82.5zM82 84q22 8 45 20q16 25 32 63t27.5 74.5
t18 66.5t5.5 39q-3 0 -15.5 -15.5t-30.5 -44.5t-40 -70.5t-44 -94.5l-8 -25z" />
    <glyph glyph-name="ydieresis" unicode="&#xff;" horiz-adv-x="261" 
d="M210 550q0 -6 -2.5 -16t-8 -19.5t-14.5 -16.5t-21 -7q-18 0 -24 15.5t-4 34.5t9.5 34.5t16.5 15.5q20 0 33.5 -11t14.5 -30zM328 553q0 -6 -3 -16.5t-9.5 -21t-16.5 -18t-23 -7.5q-19 0 -25.5 16.5t-4.5 36.5t10 36.5t19 16.5q23 0 37.5 -10.5t15.5 -32.5zM148 -172
q-4 0 -15 3.5t-21.5 9.5t-18.5 15t-6 19q11 62 27.5 126.5t33.5 126.5q-9 -24 -19.5 -47t-20.5 -41t-19.5 -29t-18.5 -11q-5 0 -14 3t-19 10t-18.5 18t-11.5 26q-5 21 -1 54.5t13 72.5t21.5 79t24.5 72t22.5 52.5t15.5 20.5q9 0 20.5 -3.5t22 -9t17.5 -11t9 -8.5
q-10 -15 -21.5 -41.5t-23.5 -58.5t-22.5 -65t-19 -62t-12.5 -50t-3 -28q3 0 16 20t31.5 54t41.5 79t46 95q11 34 18.5 54t9.5 21q8 4 19.5 2t22.5 -7.5t20 -12t11 -10.5q-15 -35 -33 -81.5t-35.5 -98.5t-33.5 -105.5t-28.5 -101.5t-20 -87.5t-7.5 -63.5z" />
    <glyph glyph-name="Amacron" unicode="&#x100;" horiz-adv-x="479" 
d="M433 629q-6 1 -12 7.5t-10.5 14.5t-7 15t-2.5 9q7 0 35.5 2.5t61.5 6.5t62 7t39 3q6 0 10.5 -9.5t7 -22t3 -24.5t-1.5 -17q-5 5 -30.5 6.5t-56.5 1t-59.5 -1t-38.5 1.5zM485 572q9 0 20.5 -15t21.5 -35t16.5 -39t5.5 -28q-89 -215 -123 -330t-26 -131q-8 0 -20.5 5
t-24.5 12.5t-21 16.5t-9 17q0 18 10 55t26 84q-33 -4 -76 -10.5t-88 -13.5q-25 -34 -45.5 -64.5t-35 -54.5t-21 -40.5t-2.5 -22.5q-12 3 -23.5 9.5t-21 15.5t-15.5 18t-6 16q0 11 18 39t48 68q-23 -3 -40 -5t-24 -2q-3 0 -7 9t-7 21.5t-4.5 26t0.5 22.5q1 -3 13 -4t30.5 -1
t43.5 1.5t52 3.5q47 59 101.5 122t103.5 115t84.5 85.5t45.5 33.5zM486 505q-12 -8 -37.5 -35t-58.5 -65.5t-71 -85t-74 -94.5q45 5 81.5 9t54.5 6q15 40 30.5 80.5t30 76.5t26 64.5t18.5 43.5z" />
    <glyph glyph-name="amacron" unicode="&#x101;" 
d="M150 512q-6 1 -12 7.5t-10.5 14.5t-7 15t-2.5 9q7 0 35.5 2.5t61.5 6.5t62 7t39 3q6 0 10.5 -9.5t7 -22t3 -24.5t-1.5 -17q-5 5 -30.5 6.5t-56.5 1t-59.5 -1t-38.5 1.5zM316 376q-7 -11 -19.5 -36.5t-26 -63t-27 -84t-21.5 -98.5q15 18 32 41t31.5 46t26 44t16.5 34
q9 -2 6.5 -21t-12 -46t-24 -57.5t-30.5 -56.5t-30.5 -43.5t-23.5 -17.5t-20 8t-21 19t-17 23t-7 20q0 11 1 25t3 29q-9 -25 -20 -50t-22 -45.5t-21.5 -33t-19.5 -12.5q-5 0 -14 3t-19 10t-18.5 18t-11.5 26q-5 20 -1.5 56t13 76.5t24.5 82t33.5 73.5t39.5 50t43 12
q17 -5 32 -14.5t29 -20.5q7 17 13 26.5t10 9.5q9 0 20.5 -3.5t22 -8t19 -10.5t11.5 -10zM186 279q5 15 9.5 29t9.5 27q-11 11 -20 10.5t-17 -8.5q-12 -12 -24 -34.5t-23.5 -50t-21 -56.5t-16.5 -54.5t-10.5 -44.5t-2.5 -26q3 0 13.5 16.5t26.5 44.5t35.5 66t40.5 81z" />
    <glyph glyph-name="Abreve" unicode="&#x102;" horiz-adv-x="479" 
d="M524 628q-27 0 -44 10.5t-25.5 26.5t-8.5 35t7 36q1 4 9 8.5t17.5 7.5t18.5 4t13 0q-10 -29 -3.5 -47t24.5 -20q20 -2 39 14.5t23 43.5q6 -3 12 -14.5t8 -22.5q-3 -20 -12.5 -35t-22.5 -25.5t-28 -16t-27 -5.5zM485 572q9 0 20.5 -15t21.5 -35t16.5 -39t5.5 -28
q-89 -215 -123 -330t-26 -131q-8 0 -20.5 5t-24.5 12.5t-21 16.5t-9 17q0 18 10 55t26 84q-33 -4 -76 -10.5t-88 -13.5q-25 -34 -45.5 -64.5t-35 -54.5t-21 -40.5t-2.5 -22.5q-12 3 -23.5 9.5t-21 15.5t-15.5 18t-6 16q0 11 18 39t48 68q-23 -3 -40 -5t-24 -2q-3 0 -7 9
t-7 21.5t-4.5 26t0.5 22.5q1 -3 13 -4t30.5 -1t43.5 1.5t52 3.5q47 59 101.5 122t103.5 115t84.5 85.5t45.5 33.5zM486 505q-12 -8 -37.5 -35t-58.5 -65.5t-71 -85t-74 -94.5q45 5 81.5 9t54.5 6q15 40 30.5 80.5t30 76.5t26 64.5t18.5 43.5z" />
    <glyph glyph-name="abreve" unicode="&#x103;" 
d="M252 492q-27 0 -44 10.5t-25.5 26.5t-8.5 35t7 36q1 4 9 8.5t17.5 7.5t18.5 4t13 0q-10 -29 -3.5 -47t24.5 -20q20 -2 39 14.5t23 43.5q6 -3 12 -14.5t8 -22.5q-3 -20 -12.5 -35t-22.5 -25.5t-28 -16t-27 -5.5zM316 376q-7 -11 -19.5 -36.5t-26 -63t-27 -84t-21.5 -98.5
q15 18 32 41t31.5 46t26 44t16.5 34q9 -2 6.5 -21t-12 -46t-24 -57.5t-30.5 -56.5t-30.5 -43.5t-23.5 -17.5t-20 8t-21 19t-17 23t-7 20q0 11 1 25t3 29q-9 -25 -20 -50t-22 -45.5t-21.5 -33t-19.5 -12.5q-5 0 -14 3t-19 10t-18.5 18t-11.5 26q-5 20 -1.5 56t13 76.5
t24.5 82t33.5 73.5t39.5 50t43 12q17 -5 32 -14.5t29 -20.5q7 17 13 26.5t10 9.5q9 0 20.5 -3.5t22 -8t19 -10.5t11.5 -10zM186 279q5 15 9.5 29t9.5 27q-11 11 -20 10.5t-17 -8.5q-12 -12 -24 -34.5t-23.5 -50t-21 -56.5t-16.5 -54.5t-10.5 -44.5t-2.5 -26q3 0 13.5 16.5
t26.5 44.5t35.5 66t40.5 81z" />
    <glyph glyph-name="Aogonek" unicode="&#x104;" horiz-adv-x="479" 
d="M485 572q9 0 20.5 -15t21.5 -35t16.5 -39t5.5 -28q-89 -215 -123 -330t-26 -131q-18 -9 -34.5 -20.5t-28.5 -23t-19.5 -21t-7.5 -13.5t5 -9t11.5 -10t14.5 -9.5t14 -7.5q-11 -8 -29.5 -9.5t-36.5 2t-31 12t-13 20.5q0 10 9 24t24 29t35 29t43 23q-13 8 -22 17.5t-9 17.5
q0 18 10 55t26 84q-33 -4 -76 -10.5t-88 -13.5q-25 -34 -45.5 -64.5t-35 -54.5t-21 -40.5t-2.5 -22.5q-12 3 -23.5 9.5t-21 15.5t-15.5 18t-6 16q0 11 18 39t48 68q-23 -3 -40 -5t-24 -2q-3 0 -7 9t-7 21.5t-4.5 26t0.5 22.5q1 -3 13 -4t30.5 -1t43.5 1.5t52 3.5
q47 59 101.5 122t103.5 115t84.5 85.5t45.5 33.5zM486 505q-12 -8 -37.5 -35t-58.5 -65.5t-71 -85t-74 -94.5q45 5 81.5 9t54.5 6q15 40 30.5 80.5t30 76.5t26 64.5t18.5 43.5z" />
    <glyph glyph-name="aogonek" unicode="&#x105;" 
d="M316 376q-7 -11 -19.5 -36.5t-26 -63t-27 -84t-21.5 -98.5q15 18 32 41t31.5 46t26 44t16.5 34q8 -2 6.5 -19t-9.5 -41t-21.5 -52.5t-28 -54.5t-28.5 -45.5t-25 -26.5q-12 -14 -23 -28.5t-20 -27.5t-14.5 -23.5t-5.5 -14.5t5 -9t11.5 -10t14.5 -9.5t14 -7.5
q-11 -8 -29.5 -9.5t-36.5 2t-31 12t-13 20.5q0 10 7.5 25t20 31t29 32t35.5 28q-14 12 -25.5 28.5t-11.5 27.5t1 25t3 29q-9 -25 -20 -50t-22 -45.5t-21.5 -33t-19.5 -12.5q-5 0 -14 3t-19 10t-18.5 18t-11.5 26q-5 20 -1.5 56t13 76.5t24.5 82t33.5 73.5t39.5 50t43 12
q17 -5 32 -14.5t29 -20.5q7 17 13 26.5t10 9.5q9 0 20.5 -3.5t22 -8t19 -10.5t11.5 -10zM186 279q5 15 9.5 29t9.5 27q-11 11 -20 10.5t-17 -8.5q-12 -12 -24 -34.5t-23.5 -50t-21 -56.5t-16.5 -54.5t-10.5 -44.5t-2.5 -26q3 0 13.5 16.5t26.5 44.5t35.5 66t40.5 81z" />
    <glyph glyph-name="Cacute" unicode="&#x106;" horiz-adv-x="346" 
d="M251 628q12 10 28 28.5t30 38t24 37.5t10 26q9 0 20.5 -4.5t21.5 -11t16.5 -13.5t6.5 -12t-14 -20t-36.5 -31t-50.5 -28t-56 -10zM418 261q1 -11 -9.5 -36t-29.5 -55t-44.5 -62t-54 -58.5t-57 -43.5t-53.5 -17q-21 0 -44 8.5t-43.5 25t-36 40t-21.5 53.5q-8 36 -1.5 83
t24.5 97.5t45 99t59 86.5t67.5 61.5t70.5 23.5q15 0 35.5 -8.5t39.5 -22.5t32.5 -31.5t13.5 -35.5q0 -24 -16.5 -57.5t-40 -64.5t-48.5 -52.5t-42 -21.5q10 14 21.5 36.5t22.5 48.5t20 52.5t13 47.5t1.5 34.5t-14.5 13.5q-35 0 -72.5 -34t-70 -85.5t-56 -111.5t-30.5 -111.5
t6.5 -85.5t54.5 -34q22 0 56 23t71 56.5t72 71t59 66.5z" />
    <glyph glyph-name="cacute" unicode="&#x107;" horiz-adv-x="219" 
d="M120 488q12 10 28 28.5t30 38t24 37.5t10 26q9 0 20.5 -4.5t21.5 -11t16.5 -13.5t6.5 -12t-14 -20t-36.5 -31t-50.5 -28t-56 -10zM272 243q8 -8 2.5 -29.5t-19 -48.5t-33 -56t-40 -53.5t-39.5 -40t-32 -15.5q-21 0 -40.5 10t-34.5 24.5t-23.5 31t-8.5 29.5q0 45 14 100
t35 102.5t46.5 79.5t48.5 32q4 0 18.5 -8t30.5 -20.5t29 -27.5t14 -28q3 -27 -9 -51t-29.5 -41t-35 -24t-25.5 -1q10 16 19 37.5t15 42t8.5 38t-0.5 27.5q-9 0 -23 -19.5t-28 -49.5t-27.5 -65.5t-21.5 -68t-10 -56.5t7 -30q7 -5 22 3t34.5 24t41 37t40.5 42.5t33.5 41
t20.5 31.5z" />
    <glyph glyph-name="Ccircumflex" unicode="&#x108;" horiz-adv-x="346" 
d="M395 762q4 -18 6.5 -47.5t5.5 -58.5q-9 -9 -24.5 -17.5t-26.5 -10.5q-5 17 -9.5 38t-9.5 42q-14 -15 -29.5 -36t-34.5 -44q-3 3 -7.5 16t-3.5 27q6 13 18 32t26 37.5t27 33.5t20 21q3 0 9 -4t12 -9t12 -10.5t9 -9.5zM418 261q1 -11 -9.5 -36t-29.5 -55t-44.5 -62
t-54 -58.5t-57 -43.5t-53.5 -17q-21 0 -44 8.5t-43.5 25t-36 40t-21.5 53.5q-8 36 -1.5 83t24.5 97.5t45 99t59 86.5t67.5 61.5t70.5 23.5q15 0 35.5 -8.5t39.5 -22.5t32.5 -31.5t13.5 -35.5q0 -24 -16.5 -57.5t-40 -64.5t-48.5 -52.5t-42 -21.5q10 14 21.5 36.5t22.5 48.5
t20 52.5t13 47.5t1.5 34.5t-14.5 13.5q-35 0 -72.5 -34t-70 -85.5t-56 -111.5t-30.5 -111.5t6.5 -85.5t54.5 -34q22 0 56 23t71 56.5t72 71t59 66.5z" />
    <glyph glyph-name="ccircumflex" unicode="&#x109;" horiz-adv-x="219" 
d="M272 621q4 -18 6.5 -47.5t5.5 -58.5q-9 -9 -24.5 -17.5t-26.5 -10.5q-5 17 -9.5 38t-9.5 42q-14 -15 -29.5 -36t-34.5 -44q-3 3 -7.5 16t-3.5 27q6 13 18 32t26 37.5t27 33.5t20 21q3 0 9 -4t12 -9t12 -10.5t9 -9.5zM272 243q8 -8 2.5 -29.5t-19 -48.5t-33 -56t-40 -53.5
t-39.5 -40t-32 -15.5q-21 0 -40.5 10t-34.5 24.5t-23.5 31t-8.5 29.5q0 45 14 100t35 102.5t46.5 79.5t48.5 32q4 0 18.5 -8t30.5 -20.5t29 -27.5t14 -28q3 -27 -9 -51t-29.5 -41t-35 -24t-25.5 -1q10 16 19 37.5t15 42t8.5 38t-0.5 27.5q-9 0 -23 -19.5t-28 -49.5
t-27.5 -65.5t-21.5 -68t-10 -56.5t7 -30q7 -5 22 3t34.5 24t41 37t40.5 42.5t33.5 41t20.5 31.5z" />
    <glyph glyph-name="Cdotaccent" unicode="&#x10a;" horiz-adv-x="346" 
d="M387 703q0 -7 -3.5 -19.5t-11 -25t-19 -21.5t-26.5 -9q-22 0 -29.5 19.5t-5.5 42.5t12 42.5t22 19.5q27 0 43.5 -12.5t17.5 -36.5zM418 261q1 -11 -9.5 -36t-29.5 -55t-44.5 -62t-54 -58.5t-57 -43.5t-53.5 -17q-21 0 -44 8.5t-43.5 25t-36 40t-21.5 53.5q-8 36 -1.5 83
t24.5 97.5t45 99t59 86.5t67.5 61.5t70.5 23.5q15 0 35.5 -8.5t39.5 -22.5t32.5 -31.5t13.5 -35.5q0 -24 -16.5 -57.5t-40 -64.5t-48.5 -52.5t-42 -21.5q10 14 21.5 36.5t22.5 48.5t20 52.5t13 47.5t1.5 34.5t-14.5 13.5q-35 0 -72.5 -34t-70 -85.5t-56 -111.5t-30.5 -111.5
t6.5 -85.5t54.5 -34q22 0 56 23t71 56.5t72 71t59 66.5z" />
    <glyph glyph-name="cdotaccent" unicode="&#x10b;" horiz-adv-x="219" 
d="M254 561q0 -7 -3.5 -19.5t-11 -25t-19 -21.5t-26.5 -9q-22 0 -29.5 19.5t-5.5 42.5t12 42.5t22 19.5q27 0 43.5 -12.5t17.5 -36.5zM272 243q8 -8 2.5 -29.5t-19 -48.5t-33 -56t-40 -53.5t-39.5 -40t-32 -15.5q-21 0 -40.5 10t-34.5 24.5t-23.5 31t-8.5 29.5q0 45 14 100
t35 102.5t46.5 79.5t48.5 32q4 0 18.5 -8t30.5 -20.5t29 -27.5t14 -28q3 -27 -9 -51t-29.5 -41t-35 -24t-25.5 -1q10 16 19 37.5t15 42t8.5 38t-0.5 27.5q-9 0 -23 -19.5t-28 -49.5t-27.5 -65.5t-21.5 -68t-10 -56.5t7 -30q7 -5 22 3t34.5 24t41 37t40.5 42.5t33.5 41
t20.5 31.5z" />
    <glyph glyph-name="Ccaron" unicode="&#x10c;" horiz-adv-x="346" 
d="M272 661q-4 18 -6.5 47.5t-5.5 58.5q9 9 24.5 17.5t26.5 10.5q5 -17 9.5 -38t9.5 -42q14 15 29.5 36t34.5 44q3 -3 7.5 -16t3.5 -27q-6 -13 -18 -32t-26 -37.5t-27 -33.5t-20 -21q-3 0 -9 3.5t-12 9l-12 11t-9 9.5zM418 261q1 -11 -9.5 -36t-29.5 -55t-44.5 -62
t-54 -58.5t-57 -43.5t-53.5 -17q-21 0 -44 8.5t-43.5 25t-36 40t-21.5 53.5q-8 36 -1.5 83t24.5 97.5t45 99t59 86.5t67.5 61.5t70.5 23.5q15 0 35.5 -8.5t39.5 -22.5t32.5 -31.5t13.5 -35.5q0 -24 -16.5 -57.5t-40 -64.5t-48.5 -52.5t-42 -21.5q10 14 21.5 36.5t22.5 48.5
t20 52.5t13 47.5t1.5 34.5t-14.5 13.5q-35 0 -72.5 -34t-70 -85.5t-56 -111.5t-30.5 -111.5t6.5 -85.5t54.5 -34q22 0 56 23t71 56.5t72 71t59 66.5z" />
    <glyph glyph-name="ccaron" unicode="&#x10d;" horiz-adv-x="219" 
d="M175 520q-4 18 -6.5 47.5t-5.5 58.5q9 9 24.5 17.5t26.5 10.5q5 -17 9.5 -38t9.5 -42q14 15 29.5 36t34.5 44q3 -3 7.5 -16t3.5 -27q-6 -13 -18 -32t-26 -37.5t-27 -33.5t-20 -21q-3 0 -9 3.5t-12 9l-12 11t-9 9.5zM272 243q8 -8 2.5 -29.5t-19 -48.5t-33 -56t-40 -53.5
t-39.5 -40t-32 -15.5q-21 0 -40.5 10t-34.5 24.5t-23.5 31t-8.5 29.5q0 45 14 100t35 102.5t46.5 79.5t48.5 32q4 0 18.5 -8t30.5 -20.5t29 -27.5t14 -28q3 -27 -9 -51t-29.5 -41t-35 -24t-25.5 -1q10 16 19 37.5t15 42t8.5 38t-0.5 27.5q-9 0 -23 -19.5t-28 -49.5
t-27.5 -65.5t-21.5 -68t-10 -56.5t7 -30q7 -5 22 3t34.5 24t41 37t40.5 42.5t33.5 41t20.5 31.5z" />
    <glyph glyph-name="Dcaron" unicode="&#x10e;" horiz-adv-x="472" 
d="M320 661q-4 18 -6.5 47.5t-5.5 58.5q9 9 24.5 17.5t26.5 10.5q5 -17 9.5 -38t9.5 -42q14 15 29.5 36t34.5 44q3 -3 7.5 -16t3.5 -27q-6 -13 -18 -32t-26 -37.5t-27 -33.5t-20 -21q-3 0 -9 3.5t-12 9l-12 11t-9 9.5zM79 97q0 11 7.5 40t20 67.5t28 81.5t31.5 82.5
t30.5 70.5t24.5 45q-31 -6 -58.5 -16.5t-48.5 -23.5t-34.5 -27.5t-15.5 -29.5q-2 1 -8 14t-10.5 30t-5 34.5t8.5 28.5q9 10 32.5 22.5t54.5 23.5t65.5 19t65.5 8q47 0 88.5 -19t72 -51.5t48.5 -75t18 -89.5q0 -61 -28.5 -122.5t-76 -110.5t-108 -79.5t-123.5 -30.5
q-47 0 -78 16.5t-46 41t-14 52t19 50.5q-8 -27 5 -49.5t42 -33.5q-3 9 -5 17t-2 14zM423 321q7 33 5.5 63.5t-16.5 54t-45 38t-79 14.5q-20 0 -39 -3q15 -8 33.5 -20.5t22.5 -23.5q-7 2 -19.5 -17.5t-28 -52.5t-33 -75t-33.5 -86t-29.5 -85t-21.5 -71q47 0 93 23t84.5 60
t66.5 84.5t39 96.5z" />
    <glyph glyph-name="dcaron" unicode="&#x10f;" horiz-adv-x="363" 
d="M415 579q9 0 19.5 -3.5t19 -8.5t13.5 -12.5t4 -14.5q-2 -16 -15 -36t-30 -38t-36.5 -30t-35.5 -12q9 15 20 38t20.5 46.5t15.5 43t5 27.5zM205 19q-4 0 -14 7.5t-20.5 19.5t-18 25t-6.5 23q2 11 3.5 23t4.5 25q-10 -26 -21 -51t-22 -45.5t-21.5 -33t-19.5 -12.5
q-5 0 -14 3t-19 10t-18.5 18t-11.5 26q-5 20 -1.5 56t13 76.5t24.5 82t33.5 73.5t39.5 50t43 12q16 -5 31 -14t28 -20q15 43 29 81t26.5 66.5t21.5 45t13 16.5q8 0 19 -3.5t21.5 -9t19 -11t10.5 -9.5q-7 -6 -19 -30.5t-27 -61t-31 -82t-31.5 -93t-29 -93.5t-22.5 -84
q17 20 35.5 45t34 49.5t27.5 45.5t17 33q8 -1 4.5 -21t-14.5 -48.5t-27 -62t-33 -61.5t-32.5 -47t-24.5 -19zM70 71q3 0 14.5 17.5t28.5 47.5t38 70.5t42 85.5q3 11 6 21.5t7 21.5q-12 11 -21 11t-17 -9q-12 -12 -24.5 -34t-24 -49.5t-21 -56.5t-16.5 -55t-10 -45t-2 -26z
" />
    <glyph glyph-name="Dcroat" unicode="&#x110;" horiz-adv-x="472" 
d="M137 292q11 31 23 61t23 55.5t20.5 45t17.5 30.5q-31 -6 -58.5 -16.5t-48.5 -23.5t-34.5 -28t-15.5 -29q-2 1 -8 14t-10.5 30t-5 34.5t8.5 28.5q9 10 32.5 22.5t54.5 23.5t65.5 19t65.5 8q47 0 88.5 -19t72 -51.5t48.5 -75t18 -89.5q0 -61 -28.5 -122.5t-76 -110.5
t-108 -79.5t-123.5 -30.5q-47 0 -78 16.5t-46 41t-14 52t19 50.5q-9 -26 4.5 -49t42.5 -34q-7 17 -7 31t10.5 51.5t27.5 85.5h-42q-3 0 -7 8t-7 19t-4.5 23.5t0.5 21.5q0 -6 23 -9t57 -5zM331 292q3 -7 2 -16t-4.5 -18t-8 -16.5t-7.5 -11.5q-13 2 -44.5 3t-69.5 1
q-18 -49 -34 -96.5t-25 -80.5q47 0 93 23t84.5 60t66.5 84.5t39 96.5q7 33 5.5 63.5t-16.5 54t-45 38t-79 14.5q-20 0 -39 -3q15 -8 33.5 -20.5t22.5 -23.5q-5 1 -14 -10.5t-20 -32.5t-24 -49.5t-26 -61.5q21 0 40.5 0.5t34.5 0.5t24.5 0.5t10.5 0.5z" />
    <glyph glyph-name="dcroat" unicode="&#x111;" horiz-adv-x="272" 
d="M205 19q-4 0 -14 7.5t-20.5 19.5t-18 25t-6.5 23q2 11 3.5 23t4.5 25q-10 -26 -21 -51t-22 -45.5t-21.5 -33t-19.5 -12.5q-5 0 -14 3t-19 10t-18.5 18t-11.5 26q-5 20 -1.5 56t13 76.5t24.5 82t33.5 73.5t39.5 50t43 12q16 -5 31 -14t28 -20q8 22 15 42.5t15 40.5
q-21 -4 -39.5 -6t-29.5 -2q-3 0 -7 7.5t-7 18.5t-5 23.5t0 22.5q0 -5 10.5 -7t26 -2t35.5 1.5t40 3.5q13 30 22 48t14 18q8 0 19 -3.5t21.5 -9t19 -11t10.5 -9.5q-3 -3 -7.5 -9t-9.5 -16q3 -4 5 -11t4 -15.5t3 -16.5t1 -14q-5 2 -14.5 2t-23.5 -1q-15 -36 -32 -82.5
t-33 -95.5t-30 -97t-23 -88q17 20 35.5 45t34 49.5t27.5 45.5t17 33q8 -1 4.5 -21t-14.5 -48.5t-27 -62t-33 -61.5t-32.5 -47t-24.5 -19zM70 71q3 0 14.5 17.5t28.5 47.5t38 70.5t42 85.5q3 11 6 21.5t7 21.5q-12 11 -21 11t-17 -9q-12 -12 -24.5 -34t-24 -49.5t-21 -56.5
t-16.5 -55t-10 -45t-2 -26z" />
    <glyph glyph-name="Emacron" unicode="&#x112;" horiz-adv-x="371" 
d="M258 629q-6 1 -12 7.5t-10.5 14.5t-7 15t-2.5 9q7 0 35.5 2.5t61.5 6.5t62 7t39 3q6 0 10.5 -9.5t7 -22t3 -24.5t-1.5 -17q-5 5 -30.5 6.5t-56.5 1t-59.5 -1t-38.5 1.5zM450 250q-25 -52 -62 -99t-77.5 -83t-79.5 -57t-66 -21q-34 0 -60.5 11t-45.5 27.5t-28.5 34
t-9.5 31.5q0 24 11 48t29.5 46.5t43.5 42t53 34.5q-26 23 -43 51.5t-17 63.5q0 36 23 70.5t61.5 60.5t88 42t103.5 16q11 0 24 -7.5t24 -18.5t18 -23.5t7 -22.5q0 -14 -13 -38t-34 -49t-46 -46.5t-49 -30.5q18 25 32.5 51t24 47.5t12.5 36.5t-1 19q-7 6 -25 4.5t-41 -8
t-48.5 -19t-46 -29t-34 -36.5t-13.5 -42q-2 -18 11.5 -36.5t39.5 -30.5q36 11 69 11q6 0 7.5 -14.5t0 -31.5t-6.5 -31.5t-12 -14.5q-19 0 -42 10q-38 -12 -64.5 -34t-41.5 -45.5t-19 -44.5t4 -32q12 -17 44 -12.5t77.5 28.5t101.5 67t116 104z" />
    <glyph glyph-name="emacron" unicode="&#x113;" horiz-adv-x="219" 
d="M135 512q-6 1 -12 7.5t-10.5 14.5t-7 15t-2.5 9q7 0 32 2.5t53.5 6.5t54.5 7t36 3q6 0 10.5 -9.5t7 -22t3 -24.5t-1.5 -17q-5 5 -27 6.5t-49 1t-52 -1t-35 1.5zM272 243q8 -8 2.5 -29.5t-19 -48.5t-33 -56t-40 -53.5t-39.5 -40t-32 -15.5q-21 0 -40.5 10t-34.5 24.5
t-23.5 31t-8.5 29.5q0 45 14 100t35 102.5t46.5 79.5t48.5 32q4 0 18.5 -8t30.5 -20.5t29 -27.5t14 -28q2 -26 -12 -57.5t-35.5 -54t-47.5 -29t-47 17.5q-8 -24 -14 -47t-9 -41.5t-2 -32t7 -17.5q7 -5 22 3t34.5 24t41 37t40.5 42.5t33.5 41t20.5 31.5zM183 353
q-7 0 -16.5 -11t-20 -29t-21 -42t-19.5 -49q22 6 37.5 22.5t25 36.5t13 39.5t1.5 32.5z" />
    <glyph glyph-name="Ebreve" unicode="&#x114;" horiz-adv-x="371" 
d="M341 628q-27 0 -44 10.5t-25.5 26.5t-8.5 35t7 36q1 4 9 8.5t17.5 7.5t18.5 4t13 0q-10 -29 -3.5 -47t24.5 -20q20 -2 39 14.5t23 43.5q6 -3 12 -14.5t8 -22.5q-3 -20 -12.5 -35t-22.5 -25.5t-28 -16t-27 -5.5zM450 250q-25 -52 -62 -99t-77.5 -83t-79.5 -57t-66 -21
q-34 0 -60.5 11t-45.5 27.5t-28.5 34t-9.5 31.5q0 24 11 48t29.5 46.5t43.5 42t53 34.5q-26 23 -43 51.5t-17 63.5q0 36 23 70.5t61.5 60.5t88 42t103.5 16q11 0 24 -7.5t24 -18.5t18 -23.5t7 -22.5q0 -14 -13 -38t-34 -49t-46 -46.5t-49 -30.5q18 25 32.5 51t24 47.5
t12.5 36.5t-1 19q-7 6 -25 4.5t-41 -8t-48.5 -19t-46 -29t-34 -36.5t-13.5 -42q-2 -18 11.5 -36.5t39.5 -30.5q36 11 69 11q6 0 7.5 -14.5t0 -31.5t-6.5 -31.5t-12 -14.5q-19 0 -42 10q-38 -12 -64.5 -34t-41.5 -45.5t-19 -44.5t4 -32q12 -17 44 -12.5t77.5 28.5t101.5 67
t116 104z" />
    <glyph glyph-name="ebreve" unicode="&#x115;" horiz-adv-x="219" 
d="M211 492q-27 0 -44 10.5t-25.5 26.5t-8.5 35t7 36q1 4 9 8.5t17.5 7.5t18.5 4t13 0q-10 -29 -3.5 -47t24.5 -20q20 -2 39 14.5t23 43.5q6 -3 12 -14.5t8 -22.5q-3 -20 -12.5 -35t-22.5 -25.5t-28 -16t-27 -5.5zM272 243q8 -8 2.5 -29.5t-19 -48.5t-33 -56t-40 -53.5
t-39.5 -40t-32 -15.5q-21 0 -40.5 10t-34.5 24.5t-23.5 31t-8.5 29.5q0 45 14 100t35 102.5t46.5 79.5t48.5 32q4 0 18.5 -8t30.5 -20.5t29 -27.5t14 -28q2 -26 -12 -57.5t-35.5 -54t-47.5 -29t-47 17.5q-8 -24 -14 -47t-9 -41.5t-2 -32t7 -17.5q7 -5 22 3t34.5 24t41 37
t40.5 42.5t33.5 41t20.5 31.5zM183 353q-7 0 -16.5 -11t-20 -29t-21 -42t-19.5 -49q22 6 37.5 22.5t25 36.5t13 39.5t1.5 32.5z" />
    <glyph glyph-name="Edotaccent" unicode="&#x116;" horiz-adv-x="371" 
d="M408 704q0 -7 -3.5 -19.5t-11 -25t-19 -21.5t-26.5 -9q-22 0 -29.5 19.5t-5.5 42.5t12 42.5t22 19.5q27 0 43.5 -12.5t17.5 -36.5zM450 250q-25 -52 -62 -99t-77.5 -83t-79.5 -57t-66 -21q-34 0 -60.5 11t-45.5 27.5t-28.5 34t-9.5 31.5q0 24 11 48t29.5 46.5t43.5 42
t53 34.5q-26 23 -43 51.5t-17 63.5q0 36 23 70.5t61.5 60.5t88 42t103.5 16q11 0 24 -7.5t24 -18.5t18 -23.5t7 -22.5q0 -14 -13 -38t-34 -49t-46 -46.5t-49 -30.5q18 25 32.5 51t24 47.5t12.5 36.5t-1 19q-7 6 -25 4.5t-41 -8t-48.5 -19t-46 -29t-34 -36.5t-13.5 -42
q-2 -18 11.5 -36.5t39.5 -30.5q36 11 69 11q6 0 7.5 -14.5t0 -31.5t-6.5 -31.5t-12 -14.5q-19 0 -42 10q-38 -12 -64.5 -34t-41.5 -45.5t-19 -44.5t4 -32q12 -17 44 -12.5t77.5 28.5t101.5 67t116 104z" />
    <glyph glyph-name="edotaccent" unicode="&#x117;" horiz-adv-x="219" 
d="M255 561q0 -7 -3.5 -19.5t-11 -25t-19 -21.5t-26.5 -9q-22 0 -29.5 19.5t-5.5 42.5t12 42.5t22 19.5q27 0 43.5 -12.5t17.5 -36.5zM272 243q8 -8 2.5 -29.5t-19 -48.5t-33 -56t-40 -53.5t-39.5 -40t-32 -15.5q-21 0 -40.5 10t-34.5 24.5t-23.5 31t-8.5 29.5q0 45 14 100
t35 102.5t46.5 79.5t48.5 32q4 0 18.5 -8t30.5 -20.5t29 -27.5t14 -28q2 -26 -12 -57.5t-35.5 -54t-47.5 -29t-47 17.5q-8 -24 -14 -47t-9 -41.5t-2 -32t7 -17.5q7 -5 22 3t34.5 24t41 37t40.5 42.5t33.5 41t20.5 31.5zM183 353q-7 0 -16.5 -11t-20 -29t-21 -42t-19.5 -49
q22 6 37.5 22.5t25 36.5t13 39.5t1.5 32.5z" />
    <glyph glyph-name="Eogonek" unicode="&#x118;" horiz-adv-x="371" 
d="M450 250q-23 -47 -56 -90.5t-69.5 -78t-73 -58t-65.5 -30.5q-29 -25 -45 -49.5t-16 -32.5q0 -4 5 -9t11.5 -10t14.5 -9.5t14 -7.5q-11 -8 -29.5 -9.5t-36.5 2t-31 12t-13 20.5q0 19 19.5 46.5t50.5 47.5q-26 5 -46.5 17t-34.5 26.5t-21 29.5t-7 27q0 24 11 48t29.5 46.5
t43.5 42t53 34.5q-26 23 -43 51.5t-17 63.5q0 36 23 70.5t61.5 60.5t88 42t103.5 16q11 0 24 -7.5t24 -18.5t18 -23.5t7 -22.5q0 -14 -13 -38t-34 -49t-46 -46.5t-49 -30.5q18 25 32.5 51t24 47.5t12.5 36.5t-1 19q-7 6 -25 4.5t-41 -8t-48.5 -19t-46 -29t-34 -36.5
t-13.5 -42q-2 -18 11.5 -36.5t39.5 -30.5q36 11 69 11q6 0 7.5 -14.5t0 -31.5t-6.5 -31.5t-12 -14.5q-19 0 -42 10q-38 -12 -64.5 -34t-41.5 -45.5t-19 -44.5t4 -32q12 -17 44 -12.5t77.5 28.5t101.5 67t116 104z" />
    <glyph glyph-name="eogonek" unicode="&#x119;" horiz-adv-x="219" 
d="M272 243q7 -7 4 -23.5t-12.5 -38t-24.5 -46t-31.5 -47.5t-34.5 -42.5t-33 -31.5q-13 -13 -24 -26.5t-19.5 -26t-13 -22t-4.5 -13.5t5 -9t11.5 -10t14.5 -9.5t14 -7.5q-11 -8 -29.5 -9.5t-36.5 2t-31 12t-13 20.5q0 18 18.5 44t45.5 47q-16 6 -29.5 17t-23.5 23.5
t-15.5 25t-5.5 23.5q0 45 14 100t35 102.5t46.5 79.5t48.5 32q4 0 18.5 -8t30.5 -20.5t29 -27.5t14 -28q2 -26 -12 -57.5t-35.5 -54t-47.5 -29t-47 17.5q-8 -24 -14 -47t-9 -41.5t-2 -32t7 -17.5q7 -5 22 3t34.5 24t41 37t40.5 42.5t33.5 41t20.5 31.5zM183 353
q-7 0 -16.5 -11t-20 -29t-21 -42t-19.5 -49q22 6 37.5 22.5t25 36.5t13 39.5t1.5 32.5z" />
    <glyph glyph-name="Ecaron" unicode="&#x11a;" horiz-adv-x="371" 
d="M305 661q-4 18 -6.5 47.5t-5.5 58.5q9 9 24.5 17.5t26.5 10.5q5 -17 9.5 -38t9.5 -42q14 15 29.5 36t34.5 44q3 -3 7.5 -16t3.5 -27q-6 -13 -18 -32t-26 -37.5t-27 -33.5t-20 -21q-3 0 -9 3.5t-12 9l-12 11t-9 9.5zM450 250q-25 -52 -62 -99t-77.5 -83t-79.5 -57t-66 -21
q-34 0 -60.5 11t-45.5 27.5t-28.5 34t-9.5 31.5q0 24 11 48t29.5 46.5t43.5 42t53 34.5q-26 23 -43 51.5t-17 63.5q0 36 23 70.5t61.5 60.5t88 42t103.5 16q11 0 24 -7.5t24 -18.5t18 -23.5t7 -22.5q0 -14 -13 -38t-34 -49t-46 -46.5t-49 -30.5q18 25 32.5 51t24 47.5
t12.5 36.5t-1 19q-7 6 -25 4.5t-41 -8t-48.5 -19t-46 -29t-34 -36.5t-13.5 -42q-2 -18 11.5 -36.5t39.5 -30.5q36 11 69 11q6 0 7.5 -14.5t0 -31.5t-6.5 -31.5t-12 -14.5q-19 0 -42 10q-38 -12 -64.5 -34t-41.5 -45.5t-19 -44.5t4 -32q12 -17 44 -12.5t77.5 28.5t101.5 67
t116 104z" />
    <glyph glyph-name="ecaron" unicode="&#x11b;" horiz-adv-x="219" 
d="M174 520q-4 18 -6.5 47.5t-5.5 58.5q9 9 24.5 17.5t26.5 10.5q5 -17 9.5 -38t9.5 -42q14 15 29.5 36t34.5 44q3 -3 7.5 -16t3.5 -27q-6 -13 -18 -32t-26 -37.5t-27 -33.5t-20 -21q-3 0 -9 3.5t-12 9l-12 11t-9 9.5zM272 243q8 -8 2.5 -29.5t-19 -48.5t-33 -56t-40 -53.5
t-39.5 -40t-32 -15.5q-21 0 -40.5 10t-34.5 24.5t-23.5 31t-8.5 29.5q0 45 14 100t35 102.5t46.5 79.5t48.5 32q4 0 18.5 -8t30.5 -20.5t29 -27.5t14 -28q2 -26 -12 -57.5t-35.5 -54t-47.5 -29t-47 17.5q-8 -24 -14 -47t-9 -41.5t-2 -32t7 -17.5q7 -5 22 3t34.5 24t41 37
t40.5 42.5t33.5 41t20.5 31.5zM183 353q-7 0 -16.5 -11t-20 -29t-21 -42t-19.5 -49q22 6 37.5 22.5t25 36.5t13 39.5t1.5 32.5z" />
    <glyph glyph-name="Gcircumflex" unicode="&#x11c;" horiz-adv-x="393" 
d="M399 761q4 -18 6.5 -47.5t5.5 -58.5q-9 -9 -24.5 -17.5t-26.5 -10.5q-5 17 -9.5 38t-9.5 42q-14 -15 -29.5 -36t-34.5 -44q-3 3 -7.5 16t-3.5 27q6 13 18 32t26 37.5t27 33.5t20 21q3 0 9 -4t12 -9t12 -10.5t9 -9.5zM370 235q5 0 8.5 -6t5 -14t2 -16.5t0.5 -13.5
q-13 1 -26.5 0.5t-27.5 -2.5q8 -14 11 -32.5t-5 -35.5q-12 -29 -31.5 -52.5t-42 -40t-47 -25t-47.5 -8.5q-21 0 -44 8.5t-43.5 25t-36 40t-21.5 53.5q-8 36 -1.5 83t24.5 97.5t45 99t59 86.5t68 61.5t71 23.5q14 0 36 -8.5t42.5 -22.5t35 -31.5t14.5 -35.5q0 -24 -12 -51.5
t-30 -50.5t-38.5 -38.5t-37.5 -15.5q13 25 25.5 58t18.5 63t3.5 51t-20.5 21q-35 0 -72.5 -34t-70 -85.5t-56 -111.5t-30.5 -111.5t6.5 -85.5t54.5 -34q19 0 39 11.5t38.5 30.5t34 43t26.5 49q-30 -5 -57 -10.5t-47 -5.5q-5 0 -10.5 8t-10 19.5t-7 23.5t-1.5 20q13 -3 41 -3
t60 1t61 2.5t43 1.5z" />
    <glyph glyph-name="gcircumflex" unicode="&#x11d;" horiz-adv-x="256" 
d="M262 621q4 -18 6.5 -47.5t5.5 -58.5q-9 -9 -24.5 -17.5t-26.5 -10.5q-5 17 -9.5 38t-9.5 42q-14 -15 -29.5 -36t-34.5 -44q-3 3 -7.5 16t-3.5 27q6 13 18 32t26 37.5t27 33.5t20 21q3 0 9 -4t12 -9t12 -10.5t9 -9.5zM166 409q2 0 9 -4.5t15.5 -10.5t15.5 -13.5t10 -13.5
q15 2 30.5 -5.5t20.5 -30.5q14 3 31.5 7t35.5 9.5t35 11.5t29 13q-2 -6 -7 -13q-5 -6 -12.5 -14t-18.5 -18q-25 -20 -50 -31.5t-48 -17.5q-5 -24 -16 -49t-26 -45t-33.5 -33t-39.5 -13q-8 0 -12 1q-11 -6 -18 -11.5t-9 -8.5q33 -18 61 -36.5t46.5 -37t27 -36.5t2.5 -36
q-6 -16 -23.5 -37.5t-41 -40.5t-51 -32.5t-54.5 -13.5q-31 0 -53.5 12t-37 30t-20 39.5t-2.5 39.5q1 15 13 28.5t28.5 24t36.5 18t38 10.5q-10 7 -22.5 19.5t-18 27t2.5 30t38 29.5q2 1 4 1t5 1q-14 9 -25 20.5t-16 25.5q-7 30 1 65.5t25.5 66.5t42 51.5t51.5 20.5zM163 -60
q3 5 2.5 15t-6 22.5t-17.5 26.5t-33 28q-24 -8 -41 -21t-24 -28t-2.5 -30t22.5 -26q14 -8 29.5 -9.5t29.5 1.5t25 9t15 12zM139 185q21 0 40 27t30 61q-17 3 -21 12q-4 14 -0.5 36t5.5 33q-20 -13 -37 -41t-26 -56.5t-8 -50t17 -21.5z" />
    <glyph glyph-name="Gbreve" unicode="&#x11e;" horiz-adv-x="393" 
d="M329 628q-27 0 -44 10.5t-25.5 26.5t-8.5 35t7 36q1 4 9 8.5t17.5 7.5t18.5 4t13 0q-10 -29 -3.5 -47t24.5 -20q20 -2 39 14.5t23 43.5q6 -3 12 -14.5t8 -22.5q-3 -20 -12.5 -35t-22.5 -25.5t-28 -16t-27 -5.5zM370 235q5 0 8.5 -6t5 -14t2 -16.5t0.5 -13.5
q-13 1 -26.5 0.5t-27.5 -2.5q8 -14 11 -32.5t-5 -35.5q-12 -29 -31.5 -52.5t-42 -40t-47 -25t-47.5 -8.5q-21 0 -44 8.5t-43.5 25t-36 40t-21.5 53.5q-8 36 -1.5 83t24.5 97.5t45 99t59 86.5t68 61.5t71 23.5q14 0 36 -8.5t42.5 -22.5t35 -31.5t14.5 -35.5q0 -24 -12 -51.5
t-30 -50.5t-38.5 -38.5t-37.5 -15.5q13 25 25.5 58t18.5 63t3.5 51t-20.5 21q-35 0 -72.5 -34t-70 -85.5t-56 -111.5t-30.5 -111.5t6.5 -85.5t54.5 -34q19 0 39 11.5t38.5 30.5t34 43t26.5 49q-30 -5 -57 -10.5t-47 -5.5q-5 0 -10.5 8t-10 19.5t-7 23.5t-1.5 20q13 -3 41 -3
t60 1t61 2.5t43 1.5z" />
    <glyph glyph-name="gbreve" unicode="&#x11f;" horiz-adv-x="256" 
d="M207 492q-27 0 -44 10.5t-25.5 26.5t-8.5 35t7 36q1 4 9 8.5t17.5 7.5t18.5 4t13 0q-10 -29 -3.5 -47t24.5 -20q20 -2 39 14.5t23 43.5q6 -3 12 -14.5t8 -22.5q-3 -20 -12.5 -35t-22.5 -25.5t-28 -16t-27 -5.5zM166 409q2 0 9 -4.5t15.5 -10.5t15.5 -13.5t10 -13.5
q15 2 30.5 -5.5t20.5 -30.5q14 3 31.5 7t35.5 9.5t35 11.5t29 13q-2 -6 -7 -13q-5 -6 -12.5 -14t-18.5 -18q-25 -20 -50 -31.5t-48 -17.5q-5 -24 -16 -49t-26 -45t-33.5 -33t-39.5 -13q-8 0 -12 1q-11 -6 -18 -11.5t-9 -8.5q33 -18 61 -36.5t46.5 -37t27 -36.5t2.5 -36
q-6 -16 -23.5 -37.5t-41 -40.5t-51 -32.5t-54.5 -13.5q-31 0 -53.5 12t-37 30t-20 39.5t-2.5 39.5q1 15 13 28.5t28.5 24t36.5 18t38 10.5q-10 7 -22.5 19.5t-18 27t2.5 30t38 29.5q2 1 4 1t5 1q-14 9 -25 20.5t-16 25.5q-7 30 1 65.5t25.5 66.5t42 51.5t51.5 20.5zM163 -60
q3 5 2.5 15t-6 22.5t-17.5 26.5t-33 28q-24 -8 -41 -21t-24 -28t-2.5 -30t22.5 -26q14 -8 29.5 -9.5t29.5 1.5t25 9t15 12zM139 185q21 0 40 27t30 61q-17 3 -21 12q-4 14 -0.5 36t5.5 33q-20 -13 -37 -41t-26 -56.5t-8 -50t17 -21.5z" />
    <glyph glyph-name="Gdotaccent" unicode="&#x120;" horiz-adv-x="393" 
d="M383 703q0 -7 -3.5 -19.5t-11 -25t-19 -21.5t-26.5 -9q-22 0 -29.5 19.5t-5.5 42.5t12 42.5t22 19.5q27 0 43.5 -12.5t17.5 -36.5zM370 235q5 0 8.5 -6t5 -14t2 -16.5t0.5 -13.5q-13 1 -26.5 0.5t-27.5 -2.5q8 -14 11 -32.5t-5 -35.5q-12 -29 -31.5 -52.5t-42 -40
t-47 -25t-47.5 -8.5q-21 0 -44 8.5t-43.5 25t-36 40t-21.5 53.5q-8 36 -1.5 83t24.5 97.5t45 99t59 86.5t68 61.5t71 23.5q14 0 36 -8.5t42.5 -22.5t35 -31.5t14.5 -35.5q0 -24 -12 -51.5t-30 -50.5t-38.5 -38.5t-37.5 -15.5q13 25 25.5 58t18.5 63t3.5 51t-20.5 21
q-35 0 -72.5 -34t-70 -85.5t-56 -111.5t-30.5 -111.5t6.5 -85.5t54.5 -34q19 0 39 11.5t38.5 30.5t34 43t26.5 49q-30 -5 -57 -10.5t-47 -5.5q-5 0 -10.5 8t-10 19.5t-7 23.5t-1.5 20q13 -3 41 -3t60 1t61 2.5t43 1.5z" />
    <glyph glyph-name="gdotaccent" unicode="&#x121;" horiz-adv-x="256" 
d="M252 561q0 -7 -3.5 -19.5t-11 -25t-19 -21.5t-26.5 -9q-22 0 -29.5 19.5t-5.5 42.5t12 42.5t22 19.5q27 0 43.5 -12.5t17.5 -36.5zM166 409q2 0 9 -4.5t15.5 -10.5t15.5 -13.5t10 -13.5q15 2 30.5 -5.5t20.5 -30.5q14 3 31.5 7t35.5 9.5t35 11.5t29 13q-2 -6 -7 -13
q-5 -6 -12.5 -14t-18.5 -18q-25 -20 -50 -31.5t-48 -17.5q-5 -24 -16 -49t-26 -45t-33.5 -33t-39.5 -13q-8 0 -12 1q-11 -6 -18 -11.5t-9 -8.5q33 -18 61 -36.5t46.5 -37t27 -36.5t2.5 -36q-6 -16 -23.5 -37.5t-41 -40.5t-51 -32.5t-54.5 -13.5q-31 0 -53.5 12t-37 30
t-20 39.5t-2.5 39.5q1 15 13 28.5t28.5 24t36.5 18t38 10.5q-10 7 -22.5 19.5t-18 27t2.5 30t38 29.5q2 1 4 1t5 1q-14 9 -25 20.5t-16 25.5q-7 30 1 65.5t25.5 66.5t42 51.5t51.5 20.5zM163 -60q3 5 2.5 15t-6 22.5t-17.5 26.5t-33 28q-24 -8 -41 -21t-24 -28t-2.5 -30
t22.5 -26q14 -8 29.5 -9.5t29.5 1.5t25 9t15 12zM139 185q21 0 40 27t30 61q-17 3 -21 12q-4 14 -0.5 36t5.5 33q-20 -13 -37 -41t-26 -56.5t-8 -50t17 -21.5z" />
    <glyph glyph-name="uni0122" unicode="&#x122;" horiz-adv-x="393" 
d="M122 -29q9 0 20.5 -3.5t21 -8.5t16 -12.5t5.5 -14.5q-2 -16 -16 -36t-32.5 -38t-39 -30t-36.5 -12q9 15 20 38t20.5 46.5t15.5 43t5 27.5zM370 235q5 0 8.5 -6t5 -14t2 -16.5t0.5 -13.5q-13 1 -26.5 0.5t-27.5 -2.5q8 -14 11 -32.5t-5 -35.5q-12 -29 -31.5 -52.5t-42 -40
t-47 -25t-47.5 -8.5q-21 0 -44 8.5t-43.5 25t-36 40t-21.5 53.5q-8 36 -1.5 83t24.5 97.5t45 99t59 86.5t68 61.5t71 23.5q14 0 36 -8.5t42.5 -22.5t35 -31.5t14.5 -35.5q0 -24 -12 -51.5t-30 -50.5t-38.5 -38.5t-37.5 -15.5q13 25 25.5 58t18.5 63t3.5 51t-20.5 21
q-35 0 -72.5 -34t-70 -85.5t-56 -111.5t-30.5 -111.5t6.5 -85.5t54.5 -34q19 0 39 11.5t38.5 30.5t34 43t26.5 49q-30 -5 -57 -10.5t-47 -5.5q-5 0 -10.5 8t-10 19.5t-7 23.5t-1.5 20q13 -3 41 -3t60 1t61 2.5t43 1.5z" />
    <glyph glyph-name="uni0123" unicode="&#x123;" horiz-adv-x="256" 
d="M259 483q-9 0 -20.5 3.5t-21 8.5t-16 12t-5.5 15q2 16 16 36t32.5 38t39 30t36.5 12q-9 -15 -20 -38t-20.5 -46.5t-15.5 -43t-5 -27.5zM166 409q2 0 9 -4.5t15.5 -10.5t15.5 -13.5t10 -13.5q15 2 30.5 -5.5t20.5 -30.5q14 3 31.5 7t35.5 9.5t35 11.5t29 13q-2 -6 -7 -13
q-5 -6 -12.5 -14t-18.5 -18q-25 -20 -50 -31.5t-48 -17.5q-5 -24 -16 -49t-26 -45t-33.5 -33t-39.5 -13q-8 0 -12 1q-11 -6 -18 -11.5t-9 -8.5q33 -18 61 -36.5t46.5 -37t27 -36.5t2.5 -36q-6 -16 -23.5 -37.5t-41 -40.5t-51 -32.5t-54.5 -13.5q-31 0 -53.5 12t-37 30
t-20 39.5t-2.5 39.5q1 15 13 28.5t28.5 24t36.5 18t38 10.5q-10 7 -22.5 19.5t-18 27t2.5 30t38 29.5q2 1 4 1t5 1q-14 9 -25 20.5t-16 25.5q-7 30 1 65.5t25.5 66.5t42 51.5t51.5 20.5zM163 -60q3 5 2.5 15t-6 22.5t-17.5 26.5t-33 28q-24 -8 -41 -21t-24 -28t-2.5 -30
t22.5 -26q14 -8 29.5 -9.5t29.5 1.5t25 9t15 12zM139 185q21 0 40 27t30 61q-17 3 -21 12q-4 14 -0.5 36t5.5 33q-20 -13 -37 -41t-26 -56.5t-8 -50t17 -21.5z" />
    <glyph glyph-name="Hcircumflex" unicode="&#x124;" horiz-adv-x="501" 
d="M533 762q4 -18 6.5 -47.5t5.5 -58.5q-9 -9 -24.5 -17.5t-26.5 -10.5q-5 17 -9.5 38t-9.5 42q-14 -15 -29.5 -36t-34.5 -44q-3 3 -7.5 16t-3.5 27q6 13 18 32t26 37.5t27 33.5t20 21q3 0 9 -4t12 -9t12 -10.5t9 -9.5zM308 570q7 0 19.5 -6t24.5 -14t21 -17t11 -15
q-9 0 -25 -26.5t-36 -69t-41.5 -96t-41.5 -106.5q51 5 94 9.5t60 6.5q20 57 43 116.5t43.5 107.5t36.5 79t23 31t19.5 -6t24.5 -14t21 -17t11 -15q-8 0 -21.5 -21t-30.5 -56t-36 -80t-37.5 -92.5t-34.5 -94.5t-28 -85.5t-18 -65t-4 -33.5q-8 0 -19.5 5t-23 13t-19.5 17
t-8 17q0 13 10.5 50.5t27.5 88.5q-31 -4 -72 -10t-83 -12q-23 -64 -35.5 -111t-9.5 -58q-7 0 -19 5t-23 13t-19.5 17t-8.5 17q0 11 7 38t20 65q-34 -5 -58.5 -8t-33.5 -3q-3 0 -7 9t-7 21t-4.5 25.5t0.5 22.5q1 -3 12 -4t29 -1t41.5 1.5t49.5 3.5q21 58 45 121.5t46 116
t39.5 86.5t24.5 34z" />
    <glyph glyph-name="hcircumflex" unicode="&#x125;" horiz-adv-x="284" 
d="M322 749q4 -18 6.5 -47.5t5.5 -58.5q-9 -9 -24.5 -17.5t-26.5 -10.5q-5 17 -9.5 38t-9.5 42q-14 -15 -29.5 -36t-34.5 -44q-3 3 -7.5 16t-3.5 27q6 13 18 32t26 37.5t27 33.5t20 21q3 0 9 -4t12 -9t12 -10.5t9 -9.5zM249 385q4 0 13 -4t19.5 -10.5t19.5 -14.5t13 -17
q-8 -14 -20.5 -41.5t-25.5 -61.5t-25 -72.5t-18 -75.5q15 17 32.5 40.5t33 48t27.5 46.5t17 36q8 -1 6 -19.5t-11 -45t-22.5 -57.5t-28 -57t-28.5 -43.5t-23 -17.5t-22 6.5t-25 15.5t-20.5 19t-8.5 17q0 16 4 37.5t10.5 46t15.5 50t18 50.5q-18 -27 -40.5 -64.5t-42.5 -76
t-35 -71.5t-19 -49q-4 0 -14 7.5t-20 19t-17.5 24.5t-6.5 23q5 41 18.5 94.5t30.5 110t36.5 110.5t36.5 97t30 69t18 26q8 0 19 -3.5t21.5 -9t19 -11t10.5 -9.5q-9 -8 -25 -43t-35.5 -85.5t-40 -110.5t-38.5 -117q19 36 41.5 71t43 62t36.5 43.5t22 16.5z" />
    <glyph glyph-name="Hbar" unicode="&#x126;" horiz-adv-x="504" 
d="M308 570q7 0 19.5 -6t24.5 -14t21 -17t11 -15q-10 0 -28.5 -33t-41.5 -84q38 2 75.5 4t69.5 4q14 34 27 63t23.5 51t18.5 34.5t12 12.5q7 0 19.5 -6t24.5 -14t21 -17t11 -15q-10 0 -27 -29.5t-39 -76.5q8 -8 12 -24.5t4 -27.5h-16t-23 -1q-23 -55 -46 -116t-40.5 -114.5
t-27.5 -91.5t-7 -47q-8 0 -19.5 5t-23 13t-19.5 17t-8 17q0 13 10.5 50.5t27.5 88.5q-31 -4 -72 -10t-83 -12q-23 -64 -35.5 -111t-9.5 -58q-7 0 -19 5t-23 13t-19.5 17t-8.5 17q0 11 7 38t20 65q-34 -5 -58.5 -8t-33.5 -3q-3 0 -7 9t-7 21t-4.5 25.5t0.5 22.5q1 -3 12 -4
t29 -1t41.5 1.5t49.5 3.5q10 27 20.5 56t21.5 58q-14 -1 -24 -1.5t-15 -0.5q-3 0 -7 9.5t-7 23t-5 27.5t0 24q0 -5 24.5 -7t61.5 -2q14 36 27.5 67t24.5 54t19.5 36.5t13.5 13.5zM285 335q-12 -28 -23 -57l-22 -58q51 5 94 9.5t60 6.5l42 115z" />
    <glyph glyph-name="hbar" unicode="&#x127;" horiz-adv-x="284" 
d="M249 385q4 0 13 -4t19.5 -10.5t19.5 -14.5t13 -17q-8 -14 -20.5 -41.5t-25.5 -61.5t-25 -72.5t-18 -75.5q15 17 32.5 40.5t33 48t27.5 46.5t17 36q8 -1 6 -19.5t-11 -45t-22.5 -57.5t-28 -57t-28.5 -43.5t-23 -17.5t-22 6.5t-25 15.5t-20.5 19t-8.5 17q0 16 4 37.5
t10.5 46t15.5 50t18 50.5q-18 -27 -40.5 -64.5t-42.5 -76t-35 -71.5t-19 -49q-4 0 -14 7.5t-20 19t-17.5 24.5t-6.5 23q4 36 15.5 82.5t26 96.5t31.5 100t33 93q-5 12 -7 27.5t0 27.5q0 -7 25 -9q17 40 29 64.5t17 24.5q8 0 19 -3.5t21.5 -9t19 -11t10.5 -9.5
q-10 -9 -29 -51q32 4 57 7.5t29 3.5q3 0 6 -7t5 -16.5t3.5 -19.5t1.5 -17q-5 3 -18.5 2.5t-31 -2.5t-38 -5t-39.5 -6q-21 -53 -43.5 -117.5t-41.5 -127.5q19 36 41.5 71t43 62t36.5 43.5t22 16.5z" />
    <glyph glyph-name="Itilde" unicode="&#x128;" horiz-adv-x="350" 
d="M275 628q-9 0 -16.5 8t-12.5 18.5t-8 22t-3 19.5q11 -4 26 -4q18 0 37.5 4t39 9t37.5 9t32 4q10 0 18.5 -10.5t13.5 -25t7.5 -29t0.5 -22.5q-8 9 -20.5 12.5t-26.5 3.5q-16 0 -33 -3t-33.5 -6.5t-31.5 -6.5t-27 -3zM302 51q7 -2 8.5 -11t-0.5 -19.5t-7 -20t-11 -11.5
q-3 4 -20.5 5t-44 0.5t-57 -2t-58.5 -2t-49.5 -0.5t-29.5 3q-7 3 -11.5 10t-7 15t-3.5 15t1 10q13 -7 52 -5.5t84 5.5q-10 10 -17 19.5t-7 12.5q0 5 6.5 26.5t17.5 54.5t25.5 73.5t30 83t31 83.5t29.5 75q-25 -2 -47.5 -4t-39.5 -5t-26.5 -8t-8.5 -12q-8 6 -14.5 19.5
t-9.5 28t-2 26.5t9 16q6 3 25.5 2t46 -3.5t55.5 -4t54 -0.5q5 2 13.5 7.5t18.5 11.5t21 12t22 9q10 3 26 -6t30.5 -21t22.5 -23.5t2 -13.5q-9 -11 -39.5 -17t-71.5 -9q-17 -36 -39 -92t-44 -117t-42 -119.5t-32 -100.5q35 3 64.5 4.5t43.5 -0.5z" />
    <glyph glyph-name="itilde" unicode="&#x129;" horiz-adv-x="136" 
d="M113 496q-9 0 -16.5 8t-12.5 18.5t-8 22t-3 19.5q11 -4 26 -4q13 0 29 4t33.5 9t34.5 9t31 4q10 0 18.5 -10.5t13.5 -25t7.5 -29t0.5 -22.5q-8 9 -20.5 12.5t-26.5 3.5q-32 0 -58 -9.5t-49 -9.5zM177 376q-7 -11 -20 -38t-28 -66.5t-29.5 -88t-24.5 -101.5q16 19 34 44.5
t33.5 50.5t27.5 47t17 35q9 -2 6.5 -22t-13 -49t-26.5 -62t-32.5 -61t-32 -46.5t-24.5 -18.5q-8 0 -18.5 8t-20 19t-16 23t-6.5 20q1 26 7.5 61t16.5 72.5t22 74.5t23.5 65.5t20.5 46.5t14 18q9 0 20 -3.5t21 -8t17.5 -10.5t10.5 -10z" />
    <glyph glyph-name="Imacron" unicode="&#x12a;" horiz-adv-x="350" 
d="M246 629q-6 1 -12 7.5t-10.5 14.5t-7 15t-2.5 9q7 0 35.5 2.5t61.5 6.5t62 7t39 3q6 0 10.5 -9.5t7 -22t3 -24.5t-1.5 -17q-5 5 -30.5 6.5t-56.5 1t-59.5 -1t-38.5 1.5zM302 51q7 -2 8.5 -11t-0.5 -19.5t-7 -20t-11 -11.5q-3 4 -20.5 5t-44 0.5t-57 -2t-58.5 -2
t-49.5 -0.5t-29.5 3q-7 3 -11.5 10t-7 15t-3.5 15t1 10q13 -7 52 -5.5t84 5.5q-10 10 -17 19.5t-7 12.5q0 5 6.5 26.5t17.5 54.5t25.5 73.5t30 83t31 83.5t29.5 75q-25 -2 -47.5 -4t-39.5 -5t-26.5 -8t-8.5 -12q-8 6 -14.5 19.5t-9.5 28t-2 26.5t9 16q6 3 25.5 2t46 -3.5
t55.5 -4t54 -0.5q5 2 13.5 7.5t18.5 11.5t21 12t22 9q10 3 26 -6t30.5 -21t22.5 -23.5t2 -13.5q-9 -11 -39.5 -17t-71.5 -9q-17 -36 -39 -92t-44 -117t-42 -119.5t-32 -100.5q35 3 64.5 4.5t43.5 -0.5z" />
    <glyph glyph-name="imacron" unicode="&#x12b;" horiz-adv-x="136" 
d="M120 512q-6 1 -12 7.5t-10.5 14.5t-7 15t-2.5 9q7 0 29.5 2.5t48.5 6.5t49.5 7t33.5 3q6 0 10.5 -9.5t7 -22t3 -24.5t-1.5 -17q-5 5 -24.5 6.5t-43.5 1t-47 -1t-33 1.5zM177 376q-7 -11 -20 -38t-28 -66.5t-29.5 -88t-24.5 -101.5q16 19 34 44.5t33.5 50.5t27.5 47t17 35
q9 -2 6.5 -22t-13 -49t-26.5 -62t-32.5 -61t-32 -46.5t-24.5 -18.5q-8 0 -18.5 8t-20 19t-16 23t-6.5 20q1 26 7.5 61t16.5 72.5t22 74.5t23.5 65.5t20.5 46.5t14 18q9 0 20 -3.5t21 -8t17.5 -10.5t10.5 -10z" />
    <glyph glyph-name="Iogonek" unicode="&#x12e;" horiz-adv-x="350" 
d="M302 51q7 -2 8.5 -11t-0.5 -19.5t-7 -20t-11 -11.5q-4 5 -31.5 5.5t-64.5 -0.5q-32 -26 -51.5 -50.5t-19.5 -32.5q0 -4 5 -9t11.5 -10t14.5 -9.5t14 -7.5q-11 -8 -29.5 -9.5t-36.5 2t-31 12t-13 20.5q0 20 23 46t58 45q-37 -2 -67.5 -1.5t-40.5 3.5q-7 3 -11.5 10t-7 15
t-3.5 15t1 10q13 -7 52 -5.5t84 5.5q-10 10 -17 19.5t-7 12.5q0 5 6.5 26.5t17.5 54.5t25.5 73.5t30 83t31 83.5t29.5 75q-25 -2 -47.5 -4t-39.5 -5t-26.5 -8t-8.5 -12q-8 6 -14.5 19.5t-9.5 28t-2 26.5t9 16q6 3 25.5 2t46 -3.5t55.5 -4t54 -0.5q5 2 13.5 7.5t18.5 11.5
t21 12t22 9q10 3 26 -6t30.5 -21t22.5 -23.5t2 -13.5q-9 -11 -39.5 -17t-71.5 -9q-17 -36 -39 -92t-44 -117t-42 -119.5t-32 -100.5q35 3 64.5 4.5t43.5 -0.5z" />
    <glyph glyph-name="iogonek" unicode="&#x12f;" horiz-adv-x="138" 
d="M76 -110q-11 -8 -29.5 -9.5t-36.5 2t-31 12t-13 20.5q0 20 21.5 49t51.5 51q-13 12 -23 28t-10 27q0 26 7 61t17 72.5t22 74.5t23.5 65.5t20.5 46.5t14 18q9 0 20 -3.5t21 -8t17.5 -10.5t10.5 -10q-7 -11 -20 -38t-28 -66.5t-29.5 -88t-24.5 -101.5q16 19 34 44.5
t33.5 50.5t27.5 47t17 35q7 -2 6.5 -16t-7 -35.5t-17.5 -47.5t-24 -51.5t-27 -48.5t-26 -38h2q-12 -14 -24 -29t-21 -28.5t-14.5 -24t-5.5 -14.5t5 -9t11.5 -10t14.5 -9.5t14 -7.5zM274 612q-6 -5 -15.5 -18.5t-19 -31t-17.5 -37t-12 -37.5q-6 0 -13 5t-14 12t-11.5 14.5
t-4.5 12.5q0 22 5.5 42.5t13.5 36t16.5 24.5t14.5 9q8 0 16.5 -3.5t16.5 -8.5t14.5 -10.5t9.5 -9.5z" />
    <glyph glyph-name="Idotaccent" unicode="&#x130;" horiz-adv-x="350" 
d="M397 703q0 -7 -3.5 -19.5t-11 -25t-19 -21.5t-26.5 -9q-22 0 -29.5 19.5t-5.5 42.5t12 42.5t22 19.5q27 0 43.5 -12.5t17.5 -36.5zM302 51q7 -2 8.5 -11t-0.5 -19.5t-7 -20t-11 -11.5q-3 4 -20.5 5t-44 0.5t-57 -2t-58.5 -2t-49.5 -0.5t-29.5 3q-7 3 -11.5 10t-7 15
t-3.5 15t1 10q13 -7 52 -5.5t84 5.5q-10 10 -17 19.5t-7 12.5q0 5 6.5 26.5t17.5 54.5t25.5 73.5t30 83t31 83.5t29.5 75q-25 -2 -47.5 -4t-39.5 -5t-26.5 -8t-8.5 -12q-8 6 -14.5 19.5t-9.5 28t-2 26.5t9 16q6 3 25.5 2t46 -3.5t55.5 -4t54 -0.5q5 2 13.5 7.5t18.5 11.5
t21 12t22 9q10 3 26 -6t30.5 -21t22.5 -23.5t2 -13.5q-9 -11 -39.5 -17t-71.5 -9q-17 -36 -39 -92t-44 -117t-42 -119.5t-32 -100.5q35 3 64.5 4.5t43.5 -0.5z" />
    <glyph glyph-name="dotlessi" unicode="&#x131;" horiz-adv-x="136" 
d="M177 376q-7 -11 -20 -38t-28 -66.5t-29.5 -88t-24.5 -101.5q16 19 34 44.5t33.5 50.5t27.5 47t17 35q9 -2 6.5 -22t-13 -49t-26.5 -62t-32.5 -61t-32 -46.5t-24.5 -18.5q-8 0 -18.5 8t-20 19t-16 23t-6.5 20q1 26 7.5 61t16.5 72.5t22 74.5t23.5 65.5t20.5 46.5t14 18
q9 0 20 -3.5t21 -8t17.5 -10.5t10.5 -10z" />
    <glyph glyph-name="IJ" unicode="&#x132;" horiz-adv-x="719" 
d="M302 51q7 -2 8.5 -11t-0.5 -19.5t-7 -20t-11 -11.5q-3 4 -20.5 5t-44 0.5t-57 -2t-58.5 -2t-49.5 -0.5t-29.5 3q-7 3 -11.5 10t-7 15t-3.5 15t1 10q13 -7 52 -5.5t84 5.5q-10 10 -17 19.5t-7 12.5q0 5 6.5 26.5t17.5 54.5t25.5 73.5t30 83t31 83.5t29.5 75
q-25 -2 -47.5 -4t-39.5 -5t-26.5 -8t-8.5 -12q-8 6 -14.5 19.5t-9.5 28t-2 26.5t9 16q6 3 25.5 2t46 -3.5t55.5 -4t54 -0.5q5 2 13.5 7.5t18.5 11.5t21 12t22 9q10 3 26 -6t30.5 -21t22.5 -23.5t2 -13.5q-9 -11 -39.5 -17t-71.5 -9q-17 -36 -39 -92t-44 -117t-42 -119.5
t-32 -100.5q35 3 64.5 4.5t43.5 -0.5zM800 601q6 0 13 -12.5t12 -28.5t6.5 -29.5t-4.5 -15.5q-4 -2 -10 -2.5t-14 -2.5q-37 -74 -64.5 -151.5t-56.5 -154.5q-26 -69 -54 -111.5t-56.5 -65.5t-56 -30.5t-52.5 -7.5q-24 0 -45.5 14t-38 34.5t-26 44t-9.5 41.5q0 10 8.5 21
t21.5 19.5t26.5 14t24.5 6.5q-9 -14 -5.5 -38.5t12.5 -48.5t20.5 -41.5t19.5 -17.5q20 0 47 24t49 72q18 39 37 87.5t37.5 99t35 97t30.5 81.5q-34 -5 -69 -11t-63.5 -15t-47 -20.5t-19.5 -27.5q-8 6 -17 20.5t-15 30t-7.5 28.5t5.5 18q21 13 53.5 18.5t68.5 6.5t70.5 0
t59.5 0q3 3 12.5 11.5t20.5 18t22 17t18 7.5z" />
    <glyph glyph-name="ij" unicode="&#x133;" horiz-adv-x="261" 
d="M177 376q-7 -11 -20 -38t-28 -66.5t-29.5 -88t-24.5 -101.5q19 23 39.5 52.5t37.5 58.5q12 42 25 81t24.5 68.5t20.5 47t15 17.5q20 0 41 -11t26 -19q-26 -51 -52.5 -120.5t-50.5 -148.5q36 36 72 78t56 80q4 -23 -10.5 -55.5t-38.5 -68.5t-53.5 -71.5t-54.5 -63.5
q-8 -27 -19 -58t-22 -57.5t-21 -44.5t-16 -18q-3 0 -11.5 6t-17.5 15t-16 18t-7 15t7 21t17.5 35t22 41t20.5 39q2 10 4 19.5t4 20.5q-16 -26 -30 -42.5t-22 -16.5t-18.5 8t-20 19t-16 23t-6.5 20q1 26 7.5 61t16.5 72.5t22 74.5t23.5 65.5t20.5 46.5t14 18q9 0 20 -3.5
t21 -8t17.5 -10.5t10.5 -10zM268 612q-6 -5 -15.5 -18.5t-19 -31t-17.5 -37t-12 -37.5q-6 0 -13 5t-14 12t-11.5 14.5t-4.5 12.5q0 22 5.5 42.5t13.5 36t16.5 24.5t14.5 9q8 0 16.5 -3.5t16.5 -8.5t14.5 -10.5t9.5 -9.5zM396 612q-6 -5 -15.5 -18.5t-19 -31t-17.5 -37
t-12 -37.5q-6 0 -13 5t-14 12t-11.5 14.5t-4.5 12.5q0 22 5.5 42.5t13.5 36t16.5 24.5t14.5 9q8 0 16.5 -3.5t16.5 -8.5t14.5 -10.5t9.5 -9.5z" />
    <glyph glyph-name="Jcircumflex" unicode="&#x134;" horiz-adv-x="395" 
d="M466 762q4 -18 6.5 -47.5t5.5 -58.5q-9 -9 -24.5 -17.5t-26.5 -10.5q-5 17 -9.5 38t-9.5 42q-14 -15 -29.5 -36t-34.5 -44q-3 3 -7.5 16t-3.5 27q6 13 18 32t26 37.5t27 33.5t20 21q3 0 9 -4t12 -9t12 -10.5t9 -9.5zM476 601q6 0 13 -12.5t12 -28.5t6.5 -29.5t-4.5 -15.5
q-4 -2 -10 -2.5t-14 -2.5q-37 -74 -64.5 -151.5t-56.5 -154.5q-26 -69 -54 -111.5t-56.5 -65.5t-56 -30.5t-52.5 -7.5q-24 0 -45.5 14t-38 34.5t-26 44t-9.5 41.5q0 10 8.5 21t21.5 19.5t26.5 14t24.5 6.5q-9 -14 -5.5 -38.5t12.5 -48.5t20.5 -41.5t19.5 -17.5q20 0 47 24
t49 72q18 39 37 87.5t37.5 99t35 97t30.5 81.5q-34 -5 -69 -11t-63.5 -15t-47 -20.5t-19.5 -27.5q-8 6 -17 20.5t-15 30t-7.5 28.5t5.5 18q21 13 53.5 18.5t68.5 6.5t70.5 0t59.5 0q3 3 12.5 11.5t20.5 18t22 17t18 7.5z" />
    <glyph glyph-name="jcircumflex" unicode="&#x135;" horiz-adv-x="125" 
d="M-42 -171q-3 0 -11.5 6t-17.5 15t-16 18t-7 15t7 21t17.5 35t22 41t20.5 39q8 39 19 82.5t23 86.5t25 82.5t25 70t21 48.5t15 18q20 0 41 -11t26 -19q-26 -51 -52.5 -120.5t-50.5 -148.5q36 36 72 78t56 80q4 -23 -10.5 -55.5t-38.5 -68.5t-53.5 -71.5t-54.5 -63.5
q-8 -27 -19 -58t-22 -57.5t-21 -44.5t-16 -18zM237 621q4 -18 6.5 -47.5t5.5 -58.5q-9 -9 -24.5 -17.5t-26.5 -10.5q-5 17 -9.5 38t-9.5 42q-14 -15 -29.5 -36t-34.5 -44q-3 3 -7.5 16t-3.5 27q6 13 18 32t26 37.5t27 33.5t20 21q3 0 9 -4t12 -9t12 -10.5t9 -9.5z" />
    <glyph glyph-name="uni0136" unicode="&#x136;" horiz-adv-x="425" 
d="M167 -22q9 0 20.5 -3.5t21 -8.5t16 -12.5t5.5 -14.5q-2 -16 -16 -36t-32.5 -38t-39 -30t-36.5 -12q9 15 20 38t20.5 46.5t15.5 43t5 27.5zM224 574q7 0 19.5 -6t24.5 -14t21 -17t11 -15q-8 0 -21.5 -21t-30.5 -56t-36 -80t-37 -93q5 0 9 -0.5t9 -1.5q27 20 59 49.5
t63.5 62t60.5 65t50 59.5t32 45.5t7 22.5q7 -3 16 -13.5t17.5 -22.5t14.5 -23.5t6 -16.5q0 -11 -28 -41t-69.5 -67.5t-90 -77.5t-89.5 -71q26 -48 51 -84.5t46 -61t37.5 -35.5t25.5 -6q-3 -6 -12.5 -16t-21.5 -19.5t-23.5 -17t-17.5 -7.5q-12 0 -29.5 19t-38 49t-41 66
t-36.5 70q-5 -3 -9 -5.5t-8 -4.5q-12 -7 -25 -10q-12 -35 -22 -66t-17 -55.5t-10 -41t-1 -21.5q-8 0 -19.5 5t-23 13t-19.5 17t-8 17q0 7 3.5 23t10 38.5t15.5 50t20 57.5q-5 10 -7.5 18.5t-0.5 12.5q4 2 9 5t13 5q20 55 42.5 112t42 102.5t35 74.5t21.5 29z" />
    <glyph glyph-name="uni0137" unicode="&#x137;" horiz-adv-x="272" 
d="M89 -10q9 0 20.5 -3.5t21 -8.5t16 -12.5t5.5 -14.5q-2 -16 -16 -36t-32.5 -38t-39 -30t-36.5 -12q9 15 20 38t20.5 46.5t15.5 43t5 27.5zM63 1q-4 0 -14 7.5t-20 19t-17.5 24.5t-6.5 23q5 41 18.5 94.5t30.5 110t36.5 110.5t36.5 97t30 69t18 26q8 0 19 -3.5t21.5 -9
t19 -11t10.5 -9.5q-6 -6 -17 -27t-24.5 -52.5t-28 -71.5t-29.5 -83q23 40 47.5 67t41.5 27q4 0 12.5 -8t18 -20.5t17 -27.5t8.5 -28q1 -18 -9.5 -43t-28.5 -49.5t-41 -46t-46 -33.5q5 -15 17 -36t30 -42q16 17 33 40t33 46.5t28 44.5t17 34q9 -2 4.5 -25t-17.5 -55.5
t-31.5 -67.5t-35.5 -59q-11 -15 -29.5 -24t-25.5 -9q-16 6 -30.5 20t-27 33.5t-22.5 42.5t-17 47q-14 -48 -21.5 -85t-7.5 -57zM234 353q-7 0 -22.5 -16t-34 -41.5t-38 -56.5t-33.5 -61q25 9 49 33t42.5 51.5t28.5 53t8 37.5z" />
    <glyph glyph-name="kgreenlandic" unicode="&#x138;" horiz-adv-x="272" 
d="M63 1q-4 0 -14 7.5t-20 19t-17.5 24.5t-6.5 23q8 61 24 125t33.5 115.5t33 84.5t22.5 33q8 0 18.5 -2t21 -5t18.5 -7t10 -8q-11 -9 -26 -44.5t-32 -84.5q13 25 27.5 48.5t28.5 40.5t27 27.5t24 10.5q4 0 12.5 -8t18 -20.5t17 -27.5t8.5 -28q1 -18 -9.5 -43t-28.5 -49.5
t-41 -46t-46 -33.5q5 -15 17 -36t30 -42q16 17 33 40t33 46.5t28 44.5t17 34q9 -2 4.5 -25t-17.5 -55.5t-31.5 -67.5t-35.5 -59q-11 -15 -29.5 -24t-25.5 -9q-16 6 -30.5 20.5t-27 34t-22.5 42.5t-17 46q-2 -3 -2.5 -6t-1.5 -5l-2 6q-11 -42 -17 -78t-6 -59zM234 353
q-7 0 -22.5 -16t-34 -41.5t-38 -56.5t-33.5 -61q25 9 49 33t42.5 51.5t28.5 53t8 37.5z" />
    <glyph glyph-name="Lacute" unicode="&#x139;" horiz-adv-x="339" 
d="M217 628q12 10 28 28.5t30 38t24 37.5t10 26q9 0 20.5 -4.5t21.5 -11t16.5 -13.5t6.5 -12t-14 -20t-36.5 -31t-50.5 -28t-56 -10zM240 563q7 0 19.5 -6t24.5 -14t21 -17t11 -15q-9 0 -24.5 -24t-34 -63t-38.5 -89t-39.5 -100.5t-36.5 -98t-29 -82.5q27 14 56 29t54.5 27
t44.5 18.5t27 3.5q10 -5 22.5 -14.5t23 -20t17.5 -19.5t8 -12q-10 6 -33.5 1.5t-53.5 -14.5t-63 -23.5t-61.5 -25.5t-50 -20.5t-27.5 -8.5t-14.5 4t-17 10t-16 13.5t-10.5 15.5q9 0 22.5 4.5t30.5 12.5q-7 13 -12.5 26t-8.5 22q3 17 16.5 59.5t32 96t40 111t41.5 105
t35.5 78t22.5 30.5z" />
    <glyph glyph-name="lacute" unicode="&#x13a;" horiz-adv-x="184" 
d="M194 638q12 10 28 28.5t30 38t24 37.5t10 26q9 0 20.5 -4.5t21.5 -11t16.5 -13.5t6.5 -12t-14 -20t-36.5 -31t-50.5 -28t-56 -10zM62 -1q-6 0 -15.5 9t-18.5 22.5t-15.5 27.5t-6.5 25q0 40 11.5 93t29 108.5t39.5 109.5t42.5 96t37.5 68t25 26h1q7 -1 21.5 -11t29 -25
t25.5 -33.5t11 -34.5q0 -9 -8.5 -29.5t-23 -48.5t-34 -60t-40 -63t-42 -57.5t-39.5 -43.5q-7 -26 -12 -51.5t-10 -50.5q22 18 48.5 43.5t52 52.5t46.5 51.5t32 39.5q4 -11 -6 -34.5t-28.5 -52t-42.5 -59.5t-46 -56.5t-39.5 -42.5t-24.5 -18v-1zM224 518q-10 -17 -23.5 -44
t-28 -61t-29.5 -74t-28 -83q27 45 51 91.5t40.5 84.5t22 62t-4.5 24z" />
    <glyph glyph-name="uni013B" unicode="&#x13b;" horiz-adv-x="339" 
d="M163 -22q9 0 20.5 -3.5t21 -8.5t16 -12.5t5.5 -14.5q-2 -16 -16 -36t-32.5 -38t-39 -30t-36.5 -12q9 15 20 38t20.5 46.5t15.5 43t5 27.5zM240 563q7 0 19.5 -6t24.5 -14t21 -17t11 -15q-9 0 -24.5 -24t-34 -63t-38.5 -89t-39.5 -100.5t-36.5 -98t-29 -82.5q27 14 56 29
t54.5 27t44.5 18.5t27 3.5q10 -5 22.5 -14.5t23 -20t17.5 -19.5t8 -12q-10 6 -33.5 1.5t-53.5 -14.5t-63 -23.5t-61.5 -25.5t-50 -20.5t-27.5 -8.5t-14.5 4t-17 10t-16 13.5t-10.5 15.5q9 0 22.5 4.5t30.5 12.5q-7 13 -12.5 26t-8.5 22q3 17 16.5 59.5t32 96t40 111
t41.5 105t35.5 78t22.5 30.5z" />
    <glyph glyph-name="uni013C" unicode="&#x13c;" horiz-adv-x="186" 
d="M21 -19q9 0 20.5 -3.5t21 -8.5t16 -12.5t5.5 -14.5q-2 -16 -16 -36t-32.5 -38t-39 -30t-36.5 -12q9 15 20 38t20.5 46.5t15.5 43t5 27.5zM62 -1q-6 0 -15.5 9t-18.5 22.5t-15.5 27.5t-6.5 25q0 40 11.5 93t29 108.5t39.5 109.5t42.5 96t37.5 68t25 26h1q7 -1 21.5 -11
t29 -25t25.5 -33.5t11 -34.5q0 -9 -8.5 -29.5t-23 -48.5t-34 -60t-40 -63t-42 -57.5t-39.5 -43.5q-7 -26 -12 -51.5t-10 -50.5q22 18 48.5 43.5t52 52.5t46.5 51.5t32 39.5q4 -11 -6 -34.5t-28.5 -52t-42.5 -59.5t-46 -56.5t-39.5 -42.5t-24.5 -18v-1zM224 518
q-10 -17 -23.5 -44t-28 -61t-29.5 -74t-28 -83q27 45 51 91.5t40.5 84.5t22 62t-4.5 24z" />
    <glyph glyph-name="Lcaron" unicode="&#x13d;" horiz-adv-x="339" 
d="M283 659q-4 18 -6.5 47.5t-5.5 58.5q9 9 24.5 17.5t26.5 10.5q5 -17 9.5 -38t9.5 -42q14 15 29.5 36t34.5 44q3 -3 7.5 -16t3.5 -27q-6 -13 -18 -32t-26 -37.5t-27 -33.5t-20 -21q-3 0 -9 3.5t-12 9l-12 11t-9 9.5zM240 563q7 0 19.5 -6t24.5 -14t21 -17t11 -15
q-9 0 -24.5 -24t-34 -63t-38.5 -89t-39.5 -100.5t-36.5 -98t-29 -82.5q27 14 56 29t54.5 27t44.5 18.5t27 3.5q10 -5 22.5 -14.5t23 -20t17.5 -19.5t8 -12q-10 6 -33.5 1.5t-53.5 -14.5t-63 -23.5t-61.5 -25.5t-50 -20.5t-27.5 -8.5t-14.5 4t-17 10t-16 13.5t-10.5 15.5
q9 0 22.5 4.5t30.5 12.5q-7 13 -12.5 26t-8.5 22q3 17 16.5 59.5t32 96t40 111t41.5 105t35.5 78t22.5 30.5z" />
    <glyph glyph-name="lcaron" unicode="&#x13e;" horiz-adv-x="292" 
d="M344 579q9 0 19.5 -3.5t19 -8.5t13.5 -12.5t4 -14.5q-2 -16 -15 -36t-30 -38t-36.5 -30t-35.5 -12q9 15 20 38t20.5 46.5t15.5 43t5 27.5zM63 -1q-6 0 -15.5 9t-18.5 22.5t-15.5 27.5t-6.5 25q0 40 11.5 93t29 108.5t39.5 109.5t42.5 96t37.5 68t25 26h1q7 -1 21.5 -11
t29 -25t25.5 -33.5t11 -34.5q0 -9 -8.5 -29.5t-23 -48.5t-34 -60t-40 -63t-42 -57.5t-39.5 -43.5q-7 -26 -12 -51.5t-10 -50.5q22 18 48.5 43.5t52 52.5t46.5 51.5t32 39.5q4 -11 -6 -34.5t-28.5 -52t-42.5 -59.5t-46 -56.5t-39.5 -42.5t-24.5 -18v-1zM225 518
q-10 -17 -23.5 -44t-28 -61t-29.5 -74t-28 -83q27 45 51 91.5t40.5 84.5t22 62t-4.5 24z" />
    <glyph glyph-name="Ldot" unicode="&#x13f;" horiz-adv-x="339" 
d="M240 563q7 0 19.5 -6t24.5 -14t21 -17t11 -15q-9 0 -24.5 -24t-34 -63t-38.5 -89t-39.5 -100.5t-36.5 -98t-29 -82.5q27 14 56 29t54.5 27t44.5 18.5t27 3.5q10 -5 22.5 -14.5t23 -20t17.5 -19.5t8 -12q-10 6 -33.5 1.5t-53.5 -14.5t-63 -23.5t-61.5 -25.5t-50 -20.5
t-27.5 -8.5t-14.5 4t-17 10t-16 13.5t-10.5 15.5q9 0 22.5 4.5t30.5 12.5q-7 13 -12.5 26t-8.5 22q3 17 16.5 59.5t32 96t40 111t41.5 105t35.5 78t22.5 30.5zM314 230q0 -5 -3.5 -15t-10.5 -20t-18 -17t-27 -7q-22 0 -29.5 15.5t-5 34.5t12 34.5t21.5 15.5q26 0 42.5 -10
t17.5 -31z" />
    <glyph glyph-name="ldot" unicode="&#x140;" horiz-adv-x="344" 
d="M56 0q-8 3 -17 12.5t-16.5 22t-12 25.5t-4.5 23q0 40 11.5 93t29 108.5t39.5 109.5t42.5 96t37.5 68t25 26q7 0 21.5 -10t29 -25t26 -33.5t11.5 -35.5q0 -9 -8.5 -29.5t-23 -48.5t-34 -60t-40 -63t-42 -57.5t-39.5 -43.5q-7 -26 -12.5 -52.5t-9.5 -52.5q32 24 67.5 56.5
t57.5 58.5q8 -8 -5.5 -36.5t-37 -60.5t-49 -59t-41.5 -32v-1q-1 0 -1.5 0.5t-1.5 0.5t-2 -1zM330 263q0 -5 -3.5 -15t-10.5 -20t-18 -17t-27 -7q-22 0 -29.5 15.5t-5 34.5t12 34.5t21.5 15.5q26 0 42.5 -10t17.5 -31zM224 518q-10 -17 -23.5 -44t-28 -61t-29.5 -74t-28 -83
q27 45 51 91.5t40.5 84.5t22 62t-4.5 24z" />
    <glyph glyph-name="Lslash" unicode="&#x141;" horiz-adv-x="339" 
d="M240 563q7 0 19.5 -6t24.5 -14t21 -17t11 -15q-7 0 -18 -14.5t-24.5 -40t-28.5 -59t-30 -71.5q26 10 44 16.5t21 6.5q4 0 8 -7.5t7 -16.5t5 -17.5t2 -10.5q-4 0 -15.5 -4t-27 -10.5t-35 -15t-38.5 -16.5q-22 -55 -40.5 -107t-31.5 -90q27 14 56 29t54.5 27t44.5 18.5
t27 3.5q10 -5 22.5 -14.5t23 -20t17.5 -19.5t8 -12q-10 6 -33.5 1.5t-53.5 -14.5t-63 -23.5t-61.5 -25.5t-50 -20.5t-27.5 -8.5t-14.5 4t-17 10t-16 13.5t-10.5 15.5q9 0 22.5 4.5t30.5 12.5q-7 13 -12.5 26t-8.5 22q3 15 13.5 50.5t26.5 80.5q-10 -2 -12 -2q-3 0 -10.5 6.5
t-15 16.5t-14 20.5t-8.5 18.5q4 -5 28.5 1t58.5 17q18 49 36.5 97.5t35 87t30 62.5t19.5 24z" />
    <glyph glyph-name="lslash" unicode="&#x142;" horiz-adv-x="198" 
d="M60 0q-8 3 -17 12.5t-16.5 22t-12 25.5t-4.5 23q0 29 6.5 66t17.5 78q-8 10 -15.5 21.5t-9.5 19.5q2 -3 12.5 -1.5t25.5 6.5q18 57 40 112.5t43 100t38.5 71.5t26.5 27q7 0 21.5 -10t29 -25t26 -33.5t11.5 -35.5q0 -8 -6.5 -23.5t-17.5 -35t-26 -42t-32 -44.5q13 5 14 5
q4 0 8 -7.5t7 -16.5t5 -17.5t2 -10.5q-5 0 -18.5 -6t-31.5 -15t-38.5 -20t-38.5 -20q-12 -41 -22 -82t-16 -80q22 18 49.5 44.5t53 54.5t47 53t32.5 40q7 -9 -1 -30.5t-25 -48.5t-40 -57t-46.5 -55.5t-44 -43.5t-31.5 -22v-1q-1 0 -1.5 0.5t-1.5 0.5t-2 -1zM228 518
q-17 -28 -41.5 -82.5t-48.5 -123.5q25 38 46 75t34.5 66t16.5 47t-7 18z" />
    <glyph glyph-name="Nacute" unicode="&#x143;" horiz-adv-x="430" 
d="M342 628q12 10 28 28.5t30 38t24 37.5t10 26q9 0 20.5 -4.5t21.5 -11t16.5 -13.5t6.5 -12t-14 -20t-36.5 -31t-50.5 -28t-56 -10zM469 568q7 0 19.5 -6t24.5 -14t21 -16.5t11 -14.5q-8 0 -21.5 -21t-30.5 -56t-36 -80t-37.5 -92.5t-34.5 -94.5t-28 -85.5t-18 -65
t-4 -33.5q-8 0 -20.5 3t-25.5 8.5t-22 12.5t-9 15q0 7 1 12q-1 29 0.5 74t4 95.5t5.5 100.5t5 90t2.5 64.5t-1.5 23.5q-3 -2 -14 -23.5t-26 -56t-32.5 -78t-35 -89.5t-33.5 -91t-27 -82t-16 -62.5t-1 -32.5q-6 1 -17.5 9t-23.5 18.5t-20.5 22.5t-8.5 21q0 13 14.5 56.5
t37.5 101.5t50.5 122.5t53.5 118t46.5 88.5t30.5 35q13 0 29 -11.5t30 -27t23.5 -30.5t8.5 -22q-1 -12 -4 -37.5t-6.5 -59t-7.5 -73t-8 -79.5q21 58 44.5 119t45 110.5t38 81t23.5 31.5z" />
    <glyph glyph-name="nacute" unicode="&#x144;" horiz-adv-x="276" 
d="M185 496q-9 0 -16.5 8t-12.5 18.5t-8 22t-3 19.5q11 -4 26 -4q18 0 37.5 4t39 9t37.5 9t32 4q10 0 18.5 -10.5t13.5 -25t7.5 -29t0.5 -22.5q-8 9 -20.5 12.5t-26.5 3.5q-16 0 -33 -3t-33.5 -6.5t-31.5 -6.5t-27 -3zM241 385q4 0 13 -4t19.5 -10.5t19.5 -14.5t13 -17
q-8 -14 -20.5 -41.5t-26 -62.5t-25.5 -73.5t-18 -75.5q15 17 32.5 41t33 48.5t28 47t17.5 36.5q8 -1 6 -19.5t-11 -45t-22.5 -57.5t-28 -57t-28.5 -43.5t-23 -17.5t-22 6.5t-25 15.5t-20.5 19t-8.5 17q0 16 4.5 38t11.5 47t16.5 51t18.5 51q-18 -26 -39 -64t-40 -77
t-33 -72.5t-18 -50.5q-8 0 -18.5 8t-20 19t-16 23t-6.5 20q0 26 6 61t15.5 72.5t21 74.5t22 65.5t19.5 46.5t14 18q9 0 20 -3.5t21 -8t17.5 -10t10.5 -9.5q-6 -9 -15.5 -29t-20.5 -48.5t-23 -64.5t-22 -76q18 40 41 80.5t45 72.5t40 52.5t25 20.5z" />
    <glyph glyph-name="uni0145" unicode="&#x145;" horiz-adv-x="430" 
d="M134 -22q9 0 20.5 -3.5t21 -8.5t16 -12.5t5.5 -14.5q-2 -16 -16 -36t-32.5 -38t-39 -30t-36.5 -12q9 15 20 38t20.5 46.5t15.5 43t5 27.5zM469 568q7 0 19.5 -6t24.5 -14t21 -16.5t11 -14.5q-8 0 -21.5 -21t-30.5 -56t-36 -80t-37.5 -92.5t-34.5 -94.5t-28 -85.5t-18 -65
t-4 -33.5q-8 0 -20.5 3t-25.5 8.5t-22 12.5t-9 15q0 7 1 12q-1 29 0.5 74t4 95.5t5.5 100.5t5 90t2.5 64.5t-1.5 23.5q-3 -2 -14 -23.5t-26 -56t-32.5 -78t-35 -89.5t-33.5 -91t-27 -82t-16 -62.5t-1 -32.5q-6 1 -17.5 9t-23.5 18.5t-20.5 22.5t-8.5 21q0 13 14.5 56.5
t37.5 101.5t50.5 122.5t53.5 118t46.5 88.5t30.5 35q13 0 29 -11.5t30 -27t23.5 -30.5t8.5 -22q-1 -12 -4 -37.5t-6.5 -59t-7.5 -73t-8 -79.5q21 58 44.5 119t45 110.5t38 81t23.5 31.5z" />
    <glyph glyph-name="uni0146" unicode="&#x146;" horiz-adv-x="276" 
d="M96 -10q9 0 20.5 -3.5t21 -8.5t16 -12.5t5.5 -14.5q-2 -16 -16 -36t-32.5 -38t-39 -30t-36.5 -12q9 15 20 38t20.5 46.5t15.5 43t5 27.5zM241 385q4 0 13 -4t19.5 -10.5t19.5 -14.5t13 -17q-8 -14 -20.5 -41.5t-26 -62.5t-25.5 -73.5t-18 -75.5q15 17 32.5 41t33 48.5
t28 47t17.5 36.5q8 -1 6 -19.5t-11 -45t-22.5 -57.5t-28 -57t-28.5 -43.5t-23 -17.5t-22 6.5t-25 15.5t-20.5 19t-8.5 17q0 16 4.5 38t11.5 47t16.5 51t18.5 51q-18 -26 -39 -64t-40 -77t-33 -72.5t-18 -50.5q-8 0 -18.5 8t-20 19t-16 23t-6.5 20q0 26 6 61t15.5 72.5
t21 74.5t22 65.5t19.5 46.5t14 18q9 0 20 -3.5t21 -8t17.5 -10t10.5 -9.5q-6 -9 -15.5 -29t-20.5 -48.5t-23 -64.5t-22 -76q18 40 41 80.5t45 72.5t40 52.5t25 20.5z" />
    <glyph glyph-name="Ncaron" unicode="&#x147;" horiz-adv-x="430" 
d="M358 660q-4 18 -6.5 47.5t-5.5 58.5q9 9 24.5 17.5t26.5 10.5q5 -17 9.5 -38t9.5 -42q14 15 29.5 36t34.5 44q3 -3 7.5 -16t3.5 -27q-6 -13 -18 -32t-26 -37.5t-27 -33.5t-20 -21q-3 0 -9 3.5t-12 9l-12 11t-9 9.5zM469 568q7 0 19.5 -6t24.5 -14t21 -16.5t11 -14.5
q-8 0 -21.5 -21t-30.5 -56t-36 -80t-37.5 -92.5t-34.5 -94.5t-28 -85.5t-18 -65t-4 -33.5q-8 0 -20.5 3t-25.5 8.5t-22 12.5t-9 15q0 7 1 12q-1 29 0.5 74t4 95.5t5.5 100.5t5 90t2.5 64.5t-1.5 23.5q-3 -2 -14 -23.5t-26 -56t-32.5 -78t-35 -89.5t-33.5 -91t-27 -82
t-16 -62.5t-1 -32.5q-6 1 -17.5 9t-23.5 18.5t-20.5 22.5t-8.5 21q0 13 14.5 56.5t37.5 101.5t50.5 122.5t53.5 118t46.5 88.5t30.5 35q13 0 29 -11.5t30 -27t23.5 -30.5t8.5 -22q-1 -12 -4 -37.5t-6.5 -59t-7.5 -73t-8 -79.5q21 58 44.5 119t45 110.5t38 81t23.5 31.5z" />
    <glyph glyph-name="ncaron" unicode="&#x148;" horiz-adv-x="276" 
d="M211 520q-4 18 -6.5 47.5t-5.5 58.5q9 9 24.5 17.5t26.5 10.5q5 -17 9.5 -38t9.5 -42q14 15 29.5 36t34.5 44q3 -3 7.5 -16t3.5 -27q-6 -13 -18 -32t-26 -37.5t-27 -33.5t-20 -21q-3 0 -9 3.5t-12 9l-12 11t-9 9.5zM241 385q4 0 13 -4t19.5 -10.5t19.5 -14.5t13 -17
q-8 -14 -20.5 -41.5t-26 -62.5t-25.5 -73.5t-18 -75.5q15 17 32.5 41t33 48.5t28 47t17.5 36.5q8 -1 6 -19.5t-11 -45t-22.5 -57.5t-28 -57t-28.5 -43.5t-23 -17.5t-22 6.5t-25 15.5t-20.5 19t-8.5 17q0 16 4.5 38t11.5 47t16.5 51t18.5 51q-18 -26 -39 -64t-40 -77
t-33 -72.5t-18 -50.5q-8 0 -18.5 8t-20 19t-16 23t-6.5 20q0 26 6 61t15.5 72.5t21 74.5t22 65.5t19.5 46.5t14 18q9 0 20 -3.5t21 -8t17.5 -10t10.5 -9.5q-6 -9 -15.5 -29t-20.5 -48.5t-23 -64.5t-22 -76q18 40 41 80.5t45 72.5t40 52.5t25 20.5z" />
    <glyph glyph-name="napostrophe" unicode="&#x149;" horiz-adv-x="372" 
d="M110 472q7 10 18 31t20.5 43.5t16 43t5.5 28.5q7 0 16.5 -4.5t17.5 -11t14 -13.5t7 -12t-9 -22.5t-26.5 -36.5t-37.5 -33.5t-42 -12.5zM337 385q4 0 13 -4t19.5 -10.5t19.5 -14.5t13 -17q-8 -14 -20.5 -41.5t-26 -62.5t-25.5 -73.5t-18 -75.5q15 17 32.5 41t33 48.5
t28 47t17.5 36.5q8 -1 6 -19.5t-11 -45t-22.5 -57.5t-28 -57t-28.5 -43.5t-23 -17.5t-22 6.5t-25 15.5t-20.5 19t-8.5 17q0 16 4.5 38t11.5 47t16.5 51t18.5 51q-18 -26 -39 -64t-40 -77t-33 -72.5t-18 -50.5q-8 0 -18.5 8t-20 19t-16 23t-6.5 20q0 26 6 61t15.5 72.5
t21 74.5t22 65.5t19.5 46.5t14 18q9 0 20 -3.5t21 -8t17.5 -10t10.5 -9.5q-6 -9 -15.5 -29t-20.5 -48.5t-23 -64.5t-22 -76q18 40 41 80.5t45 72.5t40 52.5t25 20.5z" />
    <glyph glyph-name="Omacron" unicode="&#x14c;" horiz-adv-x="404" 
d="M257 629q-6 1 -12 7.5t-10.5 14.5t-7 15t-2.5 9q7 0 35.5 2.5t61.5 6.5t62 7t39 3q6 0 10.5 -9.5t7 -22t3 -24.5t-1.5 -17q-5 5 -30.5 6.5t-56.5 1t-59.5 -1t-38.5 1.5zM180 -11q-19 0 -46 9t-51.5 30t-40.5 55.5t-13 85.5q2 43 13 89t28.5 90t41 83t51.5 68.5t58.5 47
t63.5 17.5q27 0 53.5 -15.5t46.5 -42.5t32.5 -63t11.5 -78q-1 -34 -10 -75.5t-26 -83t-40 -81t-50.5 -69.5t-58.5 -48.5t-64 -18.5zM135 46q34 -12 70 16.5t67 78.5t53.5 111.5t31 116.5t-1.5 93t-43 41q-35 0 -68.5 -31.5t-61.5 -79.5t-47.5 -105t-27.5 -107.5t-2 -88
t30 -45.5z" />
    <glyph glyph-name="omacron" unicode="&#x14d;" horiz-adv-x="251" 
d="M146 512q-6 1 -12 7.5t-10.5 14.5t-7 15t-2.5 9q7 0 30.5 2.5t50 6.5t50.5 7t34 3q6 0 10.5 -9.5t7 -22t3 -24.5t-1.5 -17q-5 5 -25.5 6.5t-45 1t-48 -1t-33.5 1.5zM367 333q-5 -8 -17 -18.5t-28 -20.5t-35.5 -19t-39.5 -15q-4 -42 -18 -88t-34 -84.5t-44 -63t-48 -24.5
q-10 0 -26.5 6t-32 19t-26.5 31.5t-11 44.5t6 59t16.5 66.5t26 65.5t33.5 57t38.5 40t42.5 15q11 0 21.5 -7.5t20.5 -19t18.5 -25t15.5 -24.5l3 -23q26 2 51.5 9t66.5 19zM172 249q-15 3 -15 30q0 11 2.5 25t5.5 29q-14 -17 -28.5 -49.5t-26 -69.5t-19 -72t-7.5 -56
q0 -24 10 -24t23.5 16.5t26.5 43.5t25 60.5t19 67.5q-5 -1 -9.5 -1h-6.5z" />
    <glyph glyph-name="Obreve" unicode="&#x14e;" horiz-adv-x="404" 
d="M337 628q-27 0 -44 10.5t-25.5 26.5t-8.5 35t7 36q1 4 9 8.5t17.5 7.5t18.5 4t13 0q-10 -29 -3.5 -47t24.5 -20q20 -2 39 14.5t23 43.5q6 -3 12 -14.5t8 -22.5q-3 -20 -12.5 -35t-22.5 -25.5t-28 -16t-27 -5.5zM180 -11q-19 0 -46 9t-51.5 30t-40.5 55.5t-13 85.5
q2 43 13 89t28.5 90t41 83t51.5 68.5t58.5 47t63.5 17.5q27 0 53.5 -15.5t46.5 -42.5t32.5 -63t11.5 -78q-1 -34 -10 -75.5t-26 -83t-40 -81t-50.5 -69.5t-58.5 -48.5t-64 -18.5zM135 46q34 -12 70 16.5t67 78.5t53.5 111.5t31 116.5t-1.5 93t-43 41q-35 0 -68.5 -31.5
t-61.5 -79.5t-47.5 -105t-27.5 -107.5t-2 -88t30 -45.5z" />
    <glyph glyph-name="obreve" unicode="&#x14f;" horiz-adv-x="251" 
d="M210 492q-27 0 -44 10.5t-25.5 26.5t-8.5 35t7 36q1 4 9 8.5t17.5 7.5t18.5 4t13 0q-10 -29 -3.5 -47t24.5 -20q20 -2 39 14.5t23 43.5q6 -3 12 -14.5t8 -22.5q-3 -20 -12.5 -35t-22.5 -25.5t-28 -16t-27 -5.5zM367 333q-5 -8 -17 -18.5t-28 -20.5t-35.5 -19t-39.5 -15
q-4 -42 -18 -88t-34 -84.5t-44 -63t-48 -24.5q-10 0 -26.5 6t-32 19t-26.5 31.5t-11 44.5t6 59t16.5 66.5t26 65.5t33.5 57t38.5 40t42.5 15q11 0 21.5 -7.5t20.5 -19t18.5 -25t15.5 -24.5l3 -23q26 2 51.5 9t66.5 19zM172 249q-15 3 -15 30q0 11 2.5 25t5.5 29
q-14 -17 -28.5 -49.5t-26 -69.5t-19 -72t-7.5 -56q0 -24 10 -24t23.5 16.5t26.5 43.5t25 60.5t19 67.5q-5 -1 -9.5 -1h-6.5z" />
    <glyph glyph-name="Ohungarumlaut" unicode="&#x150;" horiz-adv-x="404" 
d="M234 628q9 10 20.5 31t22 43.5t18 43t6.5 28.5q8 0 18 -4.5t19.5 -11t16 -13.5t7.5 -12t-10 -22.5t-29 -36.5t-41.5 -33.5t-47.5 -12.5zM334 628q9 10 20.5 31t22.5 43.5t18 43t7 28.5q7 0 17.5 -4.5t19.5 -11t15.5 -13.5t7.5 -12t-10 -22.5t-29 -36.5t-41.5 -33.5
t-47.5 -12.5zM180 -11q-19 0 -46 9t-51.5 30t-40.5 55.5t-13 85.5q2 43 13 89t28.5 90t41 83t51.5 68.5t58.5 47t63.5 17.5q27 0 53.5 -15.5t46.5 -42.5t32.5 -63t11.5 -78q-1 -34 -10 -75.5t-26 -83t-40 -81t-50.5 -69.5t-58.5 -48.5t-64 -18.5zM135 46q34 -12 70 16.5
t67 78.5t53.5 111.5t31 116.5t-1.5 93t-43 41q-35 0 -68.5 -31.5t-61.5 -79.5t-47.5 -105t-27.5 -107.5t-2 -88t30 -45.5z" />
    <glyph glyph-name="ohungarumlaut" unicode="&#x151;" horiz-adv-x="251" 
d="M124 472q7 10 18 31t20.5 43.5t16 43t5.5 28.5q7 0 16.5 -4.5t17.5 -11t14 -13.5t7 -12t-9 -22.5t-26.5 -36.5t-37.5 -33.5t-42 -12.5zM210 472q8 10 18.5 31t20 43.5t16 43t6.5 28.5q7 0 16 -4.5t17.5 -11t14.5 -13.5t6 -12q1 -5 -8.5 -22.5t-26 -36.5t-37.5 -33.5
t-43 -12.5zM367 333q-5 -8 -17 -18.5t-28 -20.5t-35.5 -19t-39.5 -15q-4 -42 -18 -88t-34 -84.5t-44 -63t-48 -24.5q-10 0 -26.5 6t-32 19t-26.5 31.5t-11 44.5t6 59t16.5 66.5t26 65.5t33.5 57t38.5 40t42.5 15q11 0 21.5 -7.5t20.5 -19t18.5 -25t15.5 -24.5l3 -23
q26 2 51.5 9t66.5 19zM172 249q-15 3 -15 30q0 11 2.5 25t5.5 29q-14 -17 -28.5 -49.5t-26 -69.5t-19 -72t-7.5 -56q0 -24 10 -24t23.5 16.5t26.5 43.5t25 60.5t19 67.5q-5 -1 -9.5 -1h-6.5z" />
    <glyph glyph-name="OE" unicode="&#x152;" horiz-adv-x="565" 
d="M588 547q8 0 18.5 -9t19.5 -21t15 -22.5t6 -13.5q0 -6 -15 -29t-38.5 -50t-51.5 -51.5t-55 -33.5q12 15 29.5 40t32 49.5t23 44t2.5 23.5q-2 1 -18 -1t-39.5 -6t-50 -9.5t-50.5 -11.5q6 -19 9.5 -39t3.5 -42q-1 -22 -4.5 -47t-11.5 -51q32 3 59.5 6t41.5 3q6 0 10 -6.5
t6.5 -16t4 -19.5t1.5 -16q-10 0 -26 -1t-35.5 -3.5t-41 -5.5t-42.5 -6q-16 -38 -36 -73t-44 -64q27 4 57 10.5t57.5 12.5t50.5 10.5t38 4.5q2 0 5.5 -5t7 -12.5t6.5 -15t5 -11.5q-7 4 -23.5 0t-38 -12t-46 -18t-45.5 -19t-36.5 -15.5t-19.5 -6.5q-5 0 -22.5 12.5t-31.5 28.5
q-22 -19 -46 -29.5t-49 -10.5q-19 0 -46 9t-51.5 30t-40.5 55.5t-13 85.5q2 43 13 89t28.5 90t41 83t51.5 68.5t58.5 47t63.5 17.5q26 0 51.5 -14.5t45.5 -39.5q22 5 54.5 11.5t64 12t56 9.5t31.5 4zM135 46q21 -8 43 0.5t43 28.5t40.5 49.5t36.5 63.5h-10q-3 0 -7 9
t-7 21.5t-4.5 26.5t0.5 23q0 -6 16.5 -7.5t41.5 -0.5q15 44 23.5 86.5t8 76.5t-12 56t-35.5 24q-35 0 -68.5 -31.5t-61.5 -79.5t-47.5 -105t-27.5 -107.5t-2 -88t30 -45.5z" />
    <glyph glyph-name="oe" unicode="&#x153;" horiz-adv-x="372" 
d="M425 243q8 -8 2.5 -29.5t-19 -48.5t-33 -56t-40 -53.5t-39.5 -40t-32 -15.5q-28 0 -51.5 16t-38.5 36q-15 -23 -32.5 -36.5t-34.5 -13.5q-6 0 -20 4.5t-29 14t-28.5 23t-18.5 31.5q-6 23 -3 56.5t13.5 70t26 73.5t36 66t43.5 47t47 18q11 0 26.5 -18t29.5 -43
q17 29 35.5 46.5t35.5 17.5q4 0 18.5 -8t30.5 -20.5t29 -27.5t14 -28q2 -26 -12 -57.5t-35.5 -54t-47.5 -29t-47 17.5q-8 -24 -14 -47t-9 -41.5t-2 -32t7 -17.5q7 -5 22 3t34.5 24t41 37t40.5 42.5t33.5 41t20.5 31.5zM96 64q11 0 24.5 18.5t26.5 47.5t23.5 64.5t15.5 70.5
q-14 6 -20.5 26.5t-5.5 46.5q-11 -13 -22.5 -38.5t-21.5 -56t-17.5 -62t-10.5 -58t-1.5 -43t9.5 -16.5zM336 353q-7 0 -16.5 -11t-20 -29t-21 -42t-19.5 -49q22 6 37.5 22.5t25 36.5t13 39.5t1.5 32.5z" />
    <glyph glyph-name="Racute" unicode="&#x154;" horiz-adv-x="412" 
d="M258 628q12 10 28 28.5t30 38t24 37.5t10 26q9 0 20.5 -4.5t21.5 -11t16.5 -13.5t6.5 -12t-14 -20t-36.5 -31t-50.5 -28t-56 -10zM72 241q6 5 26 10q13 36 27 71.5t27.5 66.5t25.5 55.5t21 38.5q-32 -6 -59 -16.5t-48 -23.5t-34 -27.5t-16 -28.5q-4 5 -9 19t-8.5 30.5
t-3.5 32.5t6 25q7 9 29.5 21t53.5 23.5t67.5 19t71.5 7.5q48 0 87.5 -16.5t68 -41.5t44 -55.5t15.5 -58.5q0 -34 -20 -64t-51 -54t-69 -41t-74 -25q49 -83 89 -125.5t57 -34.5q-3 -6 -12.5 -16t-21.5 -19.5t-23.5 -17t-17.5 -7.5q-12 0 -29 18t-36.5 46.5t-39.5 63.5t-36 68
l-4 -2q-12 -6 -21 -9q-12 -33 -21.5 -63.5t-16.5 -55.5t-9.5 -42t-0.5 -23q-6 0 -17.5 4.5t-23 12t-20.5 17.5t-9 22q0 14 12.5 58t32.5 101q-7 11 -9.5 21.5t-0.5 14.5zM185 256q11 -1 24 -5q45 16 82.5 41t63 51.5t37 52.5t6.5 45q-13 50 -117 50q-22 0 -43 -3
q15 -8 31 -21t18 -20q-7 0 -18.5 -15.5t-25 -42t-28.5 -61t-30 -72.5z" />
    <glyph glyph-name="racute" unicode="&#x155;" horiz-adv-x="251" 
d="M152 514q12 10 28 28.5t30 38t24 37.5t10 26q9 0 20.5 -4.5t21.5 -11t16.5 -13.5t6.5 -12t-14 -20t-36.5 -31t-50.5 -28t-56 -10zM180 306q-2 8 -11 19.5t-23 22.5q-11 -22 -24.5 -53.5t-27 -66.5t-26.5 -71t-22.5 -67.5t-13.5 -55t0 -34.5q-7 0 -16.5 5.5t-18.5 13.5
t-15 18t-6 19q0 11 7.5 35t19 54.5t26 65t29 66t27 58t20.5 42.5q-11 7 -10.5 24t7 35t17.5 32.5t22 16.5q6 1 15.5 -3t19 -10.5t18 -13.5t13.5 -12q-7 -5 -14.5 -13.5t-12 -17.5t-4.5 -18.5t8 -16.5q35 -31 49.5 -50.5t17 -33.5t-3 -25.5t-10.5 -26.5q-12 -32 -26 -75
t-23 -88q16 19 34 44.5t34 51t28.5 47.5t17.5 35q9 -2 6 -22t-14 -49t-27 -62t-32.5 -61t-32 -46.5t-24.5 -18.5q-8 0 -20.5 8t-23.5 19.5t-19 23t-8 17.5q0 21 7.5 48.5t18 58.5t23 64.5t24.5 66.5z" />
    <glyph glyph-name="uni0156" unicode="&#x156;" horiz-adv-x="412" 
d="M170 -22q9 0 20.5 -3.5t21 -8.5t16 -12.5t5.5 -14.5q-2 -16 -16 -36t-32.5 -38t-39 -30t-36.5 -12q9 15 20 38t20.5 46.5t15.5 43t5 27.5zM72 241q6 5 26 10q13 36 27 71.5t27.5 66.5t25.5 55.5t21 38.5q-32 -6 -59 -16.5t-48 -23.5t-34 -27.5t-16 -28.5q-4 5 -9 19
t-8.5 30.5t-3.5 32.5t6 25q7 9 29.5 21t53.5 23.5t67.5 19t71.5 7.5q48 0 87.5 -16.5t68 -41.5t44 -55.5t15.5 -58.5q0 -34 -20 -64t-51 -54t-69 -41t-74 -25q49 -83 89 -125.5t57 -34.5q-3 -6 -12.5 -16t-21.5 -19.5t-23.5 -17t-17.5 -7.5q-12 0 -29 18t-36.5 46.5
t-39.5 63.5t-36 68l-4 -2q-12 -6 -21 -9q-12 -33 -21.5 -63.5t-16.5 -55.5t-9.5 -42t-0.5 -23q-6 0 -17.5 4.5t-23 12t-20.5 17.5t-9 22q0 14 12.5 58t32.5 101q-7 11 -9.5 21.5t-0.5 14.5zM185 256q11 -1 24 -5q45 16 82.5 41t63 51.5t37 52.5t6.5 45q-13 50 -117 50
q-22 0 -43 -3q15 -8 31 -21t18 -20q-7 0 -18.5 -15.5t-25 -42t-28.5 -61t-30 -72.5z" />
    <glyph glyph-name="uni0157" unicode="&#x157;" horiz-adv-x="251" 
d="M65 -10q9 0 20.5 -3.5t21 -8.5t16 -12.5t5.5 -14.5q-2 -16 -16 -36t-32.5 -38t-39 -30t-36.5 -12q9 15 20 38t20.5 46.5t15.5 43t5 27.5zM180 306q-2 8 -11 19.5t-23 22.5q-11 -22 -24.5 -53.5t-27 -66.5t-26.5 -71t-22.5 -67.5t-13.5 -55t0 -34.5q-7 0 -16.5 5.5
t-18.5 13.5t-15 18t-6 19q0 11 7.5 35t19 54.5t26 65t29 66t27 58t20.5 42.5q-11 7 -10.5 24t7 35t17.5 32.5t22 16.5q6 1 15.5 -3t19 -10.5t18 -13.5t13.5 -12q-7 -5 -14.5 -13.5t-12 -17.5t-4.5 -18.5t8 -16.5q35 -31 49.5 -50.5t17 -33.5t-3 -25.5t-10.5 -26.5
q-12 -32 -26 -75t-23 -88q16 19 34 44.5t34 51t28.5 47.5t17.5 35q9 -2 6 -22t-14 -49t-27 -62t-32.5 -61t-32 -46.5t-24.5 -18.5q-8 0 -20.5 8t-23.5 19.5t-19 23t-8 17.5q0 21 7.5 48.5t18 58.5t23 64.5t24.5 66.5z" />
    <glyph glyph-name="Rcaron" unicode="&#x158;" horiz-adv-x="412" 
d="M298 661q-4 18 -6.5 47.5t-5.5 58.5q9 9 24.5 17.5t26.5 10.5q5 -17 9.5 -38t9.5 -42q14 15 29.5 36t34.5 44q3 -3 7.5 -16t3.5 -27q-6 -13 -18 -32t-26 -37.5t-27 -33.5t-20 -21q-3 0 -9 3.5t-12 9l-12 11t-9 9.5zM72 241q6 5 26 10q13 36 27 71.5t27.5 66.5t25.5 55.5
t21 38.5q-32 -6 -59 -16.5t-48 -23.5t-34 -27.5t-16 -28.5q-4 5 -9 19t-8.5 30.5t-3.5 32.5t6 25q7 9 29.5 21t53.5 23.5t67.5 19t71.5 7.5q48 0 87.5 -16.5t68 -41.5t44 -55.5t15.5 -58.5q0 -34 -20 -64t-51 -54t-69 -41t-74 -25q49 -83 89 -125.5t57 -34.5
q-3 -6 -12.5 -16t-21.5 -19.5t-23.5 -17t-17.5 -7.5q-12 0 -29 18t-36.5 46.5t-39.5 63.5t-36 68l-4 -2q-12 -6 -21 -9q-12 -33 -21.5 -63.5t-16.5 -55.5t-9.5 -42t-0.5 -23q-6 0 -17.5 4.5t-23 12t-20.5 17.5t-9 22q0 14 12.5 58t32.5 101q-7 11 -9.5 21.5t-0.5 14.5z
M185 256q11 -1 24 -5q45 16 82.5 41t63 51.5t37 52.5t6.5 45q-13 50 -117 50q-22 0 -43 -3q15 -8 31 -21t18 -20q-7 0 -18.5 -15.5t-25 -42t-28.5 -61t-30 -72.5z" />
    <glyph glyph-name="rcaron" unicode="&#x159;" horiz-adv-x="251" 
d="M182 520q-4 18 -6.5 47.5t-5.5 58.5q9 9 24.5 17.5t26.5 10.5q5 -17 9.5 -38t9.5 -42q14 15 29.5 36t34.5 44q3 -3 7.5 -16t3.5 -27q-6 -13 -18 -32t-26 -37.5t-27 -33.5t-20 -21q-3 0 -9 3.5t-12 9l-12 11t-9 9.5zM180 306q-2 8 -11 19.5t-23 22.5q-11 -22 -24.5 -53.5
t-27 -66.5t-26.5 -71t-22.5 -67.5t-13.5 -55t0 -34.5q-7 0 -16.5 5.5t-18.5 13.5t-15 18t-6 19q0 11 7.5 35t19 54.5t26 65t29 66t27 58t20.5 42.5q-11 7 -10.5 24t7 35t17.5 32.5t22 16.5q6 1 15.5 -3t19 -10.5t18 -13.5t13.5 -12q-7 -5 -14.5 -13.5t-12 -17.5t-4.5 -18.5
t8 -16.5q35 -31 49.5 -50.5t17 -33.5t-3 -25.5t-10.5 -26.5q-12 -32 -26 -75t-23 -88q16 19 34 44.5t34 51t28.5 47.5t17.5 35q9 -2 6 -22t-14 -49t-27 -62t-32.5 -61t-32 -46.5t-24.5 -18.5q-8 0 -20.5 8t-23.5 19.5t-19 23t-8 17.5q0 21 7.5 48.5t18 58.5t23 64.5
t24.5 66.5z" />
    <glyph glyph-name="Sacute" unicode="&#x15a;" horiz-adv-x="376" 
d="M271 628q12 10 28 28.5t30 38t24 37.5t10 26q9 0 20.5 -4.5t21.5 -11t16.5 -13.5t6.5 -12t-14 -20t-36.5 -31t-50.5 -28t-56 -10zM74 335q-2 60 23.5 103.5t65.5 72.5t87.5 43t90.5 14q7 0 24.5 -10t36.5 -27t35 -40.5t20 -50.5q-1 -15 -25 -35.5t-54.5 -38t-59 -29.5
t-38.5 -10q38 51 63 82.5t35.5 49.5t7 24t-21.5 6q-29 0 -66.5 -7t-72.5 -23t-61.5 -42.5t-32.5 -66.5q-4 -22 12 -38t41.5 -29t56 -25t56 -25.5t41.5 -29.5t13 -37q-14 -90 -62 -135.5t-113 -41.5q-34 2 -64.5 21t-53 46t-34.5 58t-9 58q1 12 6 25.5t11.5 25.5t13.5 21
t12 11q8 -63 26 -104t41 -64.5t48 -32t46.5 -5t36.5 15.5t18 29q4 24 -9.5 42.5t-35.5 35t-49 32.5t-50.5 35t-39.5 42t-16 54z" />
    <glyph glyph-name="sacute" unicode="&#x15b;" horiz-adv-x="217" 
d="M138 488q12 10 28 28.5t30 38t24 37.5t10 26q9 0 20.5 -4.5t21.5 -11t16.5 -13.5t6.5 -12t-14 -20t-36.5 -31t-50.5 -28t-56 -10zM345 348q-17 -17 -50.5 -43t-75.5 -42q-11 -20 -23 -35.5t-22 -15.5q-9 4 -13.5 17t-6.5 28t-0.5 27.5t4.5 15.5q10 0 27 3q4 16 3.5 28.5
t-2.5 18.5q-8 0 -17.5 -6t-19 -15.5t-16.5 -22.5t-9 -27q-3 -19 6.5 -41.5t22 -45t23 -44.5t9.5 -39q-1 -12 -9.5 -30.5t-23 -36t-35 -30t-45.5 -12.5q-19 0 -34.5 19.5t-25.5 46t-13.5 54t1.5 42.5q10 -28 26.5 -48t33 -32t30 -15.5t18.5 1.5q8 9 -1 31t-23 51.5t-26.5 63
t-11.5 64.5q1 33 13.5 57.5t28.5 41t32.5 25t26.5 8.5t27 -8.5t33.5 -20.5t28 -24.5t11.5 -20.5q0 -6 -5 -21q17 4 33.5 8.5t30.5 9t24.5 8.5t14.5 7z" />
    <glyph glyph-name="Scircumflex" unicode="&#x15c;" horiz-adv-x="376" 
d="M405 762q4 -18 6.5 -47.5t5.5 -58.5q-9 -9 -24.5 -17.5t-26.5 -10.5q-5 17 -9.5 38t-9.5 42q-14 -15 -29.5 -36t-34.5 -44q-3 3 -7.5 16t-3.5 27q6 13 18 32t26 37.5t27 33.5t20 21q3 0 9 -4t12 -9t12 -10.5t9 -9.5zM74 335q-2 60 23.5 103.5t65.5 72.5t87.5 43t90.5 14
q7 0 24.5 -10t36.5 -27t35 -40.5t20 -50.5q-1 -15 -25 -35.5t-54.5 -38t-59 -29.5t-38.5 -10q38 51 63 82.5t35.5 49.5t7 24t-21.5 6q-29 0 -66.5 -7t-72.5 -23t-61.5 -42.5t-32.5 -66.5q-4 -22 12 -38t41.5 -29t56 -25t56 -25.5t41.5 -29.5t13 -37q-14 -90 -62 -135.5
t-113 -41.5q-34 2 -64.5 21t-53 46t-34.5 58t-9 58q1 12 6 25.5t11.5 25.5t13.5 21t12 11q8 -63 26 -104t41 -64.5t48 -32t46.5 -5t36.5 15.5t18 29q4 24 -9.5 42.5t-35.5 35t-49 32.5t-50.5 35t-39.5 42t-16 54z" />
    <glyph glyph-name="scircumflex" unicode="&#x15d;" horiz-adv-x="217" 
d="M276 621q4 -18 6.5 -47.5t5.5 -58.5q-9 -9 -24.5 -17.5t-26.5 -10.5q-5 17 -9.5 38t-9.5 42q-14 -15 -29.5 -36t-34.5 -44q-3 3 -7.5 16t-3.5 27q6 13 18 32t26 37.5t27 33.5t20 21q3 0 9 -4t12 -9t12 -10.5t9 -9.5zM345 348q-17 -17 -50.5 -43t-75.5 -42
q-11 -20 -23 -35.5t-22 -15.5q-9 4 -13.5 17t-6.5 28t-0.5 27.5t4.5 15.5q10 0 27 3q4 16 3.5 28.5t-2.5 18.5q-8 0 -17.5 -6t-19 -15.5t-16.5 -22.5t-9 -27q-3 -19 6.5 -41.5t22 -45t23 -44.5t9.5 -39q-1 -12 -9.5 -30.5t-23 -36t-35 -30t-45.5 -12.5q-19 0 -34.5 19.5
t-25.5 46t-13.5 54t1.5 42.5q10 -28 26.5 -48t33 -32t30 -15.5t18.5 1.5q8 9 -1 31t-23 51.5t-26.5 63t-11.5 64.5q1 33 13.5 57.5t28.5 41t32.5 25t26.5 8.5t27 -8.5t33.5 -20.5t28 -24.5t11.5 -20.5q0 -6 -5 -21q17 4 33.5 8.5t30.5 9t24.5 8.5t14.5 7z" />
    <glyph glyph-name="Scedilla" unicode="&#x15e;" horiz-adv-x="376" 
d="M74 335q-2 60 23.5 103.5t65.5 72.5t87.5 43t90.5 14q7 0 24.5 -10t36.5 -27t35 -40.5t20 -50.5q-1 -15 -25 -35.5t-54.5 -38t-59 -29.5t-38.5 -10q38 51 63 82.5t35.5 49.5t7 24t-21.5 6q-29 0 -66.5 -7t-72.5 -23t-61.5 -42.5t-32.5 -66.5q-4 -22 12 -38t41.5 -29
t56 -25t56 -25.5t41.5 -29.5t13 -37q-13 -81 -54 -126t-98 -50q-2 -21 -9 -45.5t-16 -45t-19.5 -34t-17.5 -13.5q-14 0 -28.5 8t-25.5 21t-18 28t-7 29q9 -11 24 -18.5t26 -7.5q5 0 11.5 7.5t13.5 19t13.5 25.5t12.5 27q-31 6 -58.5 25.5t-48 45.5t-30.5 55t-7 55
q1 12 6 25.5t11.5 25.5t13.5 21t12 11q8 -63 26 -104t41 -64.5t48 -32t46.5 -5t36.5 15.5t18 29q4 24 -9.5 42.5t-35.5 35t-49 32.5t-50.5 35t-39.5 42t-16 54z" />
    <glyph glyph-name="scedilla" unicode="&#x15f;" horiz-adv-x="226" 
d="M354 348q-17 -17 -50.5 -43t-75.5 -42q-11 -20 -23 -35.5t-22 -15.5q-9 4 -13.5 17t-6.5 28t-0.5 27.5t4.5 15.5q10 0 27 3q4 16 3.5 28.5t-2.5 18.5q-8 0 -17.5 -6t-19 -15.5t-16.5 -22.5t-9 -27q-3 -19 6.5 -41.5t22 -45t23 -44.5t9.5 -39q-1 -10 -7.5 -25.5t-18 -31.5
t-28 -29.5t-35.5 -19.5q-3 -21 -10.5 -43t-16.5 -40t-18 -29.5t-16 -11.5q-14 0 -28.5 8t-25.5 21t-18 28t-7 29q9 -11 24 -18.5t26 -7.5q10 0 23 21t25 45q-15 9 -27 29.5t-19.5 44.5t-9.5 46.5t2 36.5q10 -28 26.5 -48t33 -32t30 -15.5t18.5 1.5q8 9 -1 31t-23 51.5
t-26.5 63t-11.5 64.5q1 33 13.5 57.5t28.5 41t32.5 25t26.5 8.5t27 -8.5t33.5 -20.5t28 -24.5t11.5 -20.5q0 -6 -5 -21q17 4 33.5 8.5t30.5 9t24.5 8.5t14.5 7z" />
    <glyph glyph-name="Scaron" unicode="&#x160;" horiz-adv-x="376" 
d="M307 659q-4 18 -6.5 47.5t-5.5 58.5q9 9 24.5 17.5t26.5 10.5q5 -17 9.5 -38t9.5 -42q14 15 29.5 36t34.5 44q3 -3 7.5 -16t3.5 -27q-6 -13 -18 -32t-26 -37.5t-27 -33.5t-20 -21q-3 0 -9 3.5t-12 9l-12 11t-9 9.5zM74 335q-2 60 23.5 103.5t65.5 72.5t87.5 43t90.5 14
q7 0 24.5 -10t36.5 -27t35 -40.5t20 -50.5q-1 -15 -25 -35.5t-54.5 -38t-59 -29.5t-38.5 -10q38 51 63 82.5t35.5 49.5t7 24t-21.5 6q-29 0 -66.5 -7t-72.5 -23t-61.5 -42.5t-32.5 -66.5q-4 -22 12 -38t41.5 -29t56 -25t56 -25.5t41.5 -29.5t13 -37q-14 -90 -62 -135.5
t-113 -41.5q-34 2 -64.5 21t-53 46t-34.5 58t-9 58q1 12 6 25.5t11.5 25.5t13.5 21t12 11q8 -63 26 -104t41 -64.5t48 -32t46.5 -5t36.5 15.5t18 29q4 24 -9.5 42.5t-35.5 35t-49 32.5t-50.5 35t-39.5 42t-16 54z" />
    <glyph glyph-name="scaron" unicode="&#x161;" horiz-adv-x="217" 
d="M191 520q-4 18 -6.5 47.5t-5.5 58.5q9 9 24.5 17.5t26.5 10.5q5 -17 9.5 -38t9.5 -42q14 15 29.5 36t34.5 44q3 -3 7.5 -16t3.5 -27q-6 -13 -18 -32t-26 -37.5t-27 -33.5t-20 -21q-3 0 -9 3.5t-12 9l-12 11t-9 9.5zM345 348q-17 -17 -50.5 -43t-75.5 -42
q-11 -20 -23 -35.5t-22 -15.5q-9 4 -13.5 17t-6.5 28t-0.5 27.5t4.5 15.5q10 0 27 3q4 16 3.5 28.5t-2.5 18.5q-8 0 -17.5 -6t-19 -15.5t-16.5 -22.5t-9 -27q-3 -19 6.5 -41.5t22 -45t23 -44.5t9.5 -39q-1 -12 -9.5 -30.5t-23 -36t-35 -30t-45.5 -12.5q-19 0 -34.5 19.5
t-25.5 46t-13.5 54t1.5 42.5q10 -28 26.5 -48t33 -32t30 -15.5t18.5 1.5q8 9 -1 31t-23 51.5t-26.5 63t-11.5 64.5q1 33 13.5 57.5t28.5 41t32.5 25t26.5 8.5t27 -8.5t33.5 -20.5t28 -24.5t11.5 -20.5q0 -6 -5 -21q17 4 33.5 8.5t30.5 9t24.5 8.5t14.5 7z" />
    <glyph glyph-name="uni0162" unicode="&#x162;" horiz-adv-x="351" 
d="M378 563q2 0 4 1t4 1t5 1q14 7 30 14.5t30 13t24.5 9t14.5 3.5q6 0 14 -13t15 -29.5t11 -30.5t2 -15q-4 -2 -17 -4t-31 -3.5t-38 -2.5t-38 -2q-16 -35 -37.5 -83.5t-44.5 -103t-44 -109t-36 -100.5t-21 -79t1 -43q-3 -22 -12.5 -46t-22 -44t-24.5 -33t-19 -13
q-14 0 -28.5 8t-25.5 21t-18 28t-7 29q9 -11 24 -18.5t26 -7.5q4 0 13.5 8.5t20 21.5t20.5 29t16 32q-16 10 -29.5 24t-13.5 29q1 16 15.5 60.5t40 105.5t60 134t74.5 146q-51 -5 -97.5 -10.5t-83 -14.5t-60.5 -22t-28 -32q-6 2 -15 16t-16.5 30.5t-12 31.5t-1.5 19
q6 9 24.5 16t44.5 12t57.5 8t63.5 5q75 4 166 2z" />
    <glyph glyph-name="uni0163" unicode="&#x163;" horiz-adv-x="145" 
d="M18 432q-23 2 -35.5 14t-8.5 17q10 0 22 1t29 2.5t40 3t56 2.5q15 39 27 62.5t17 23.5q8 0 19 -3.5t21.5 -9t19 -11t10.5 -9.5q-5 -5 -12.5 -17.5t-16.5 -32.5q55 1 97 0.5t54 -5.5q5 -2 9.5 -9t7.5 -15t4.5 -15.5t0.5 -10.5q-10 3 -29 5.5t-44.5 3.5t-56 2t-61.5 1
q-14 -36 -29.5 -80t-30.5 -89.5t-28 -90.5t-22 -82q17 18 36 42.5t36 48.5t30 45t18 34q10 -2 6.5 -21.5t-15.5 -48t-30 -62t-36.5 -61.5t-35 -47.5t-24.5 -19.5q-3 -21 -10.5 -42.5t-16 -39t-17.5 -28.5t-16 -11q-14 0 -28.5 8t-25.5 21t-18 28t-7 29q9 -11 24 -18.5
t26 -7.5q6 0 12.5 9t13.5 22t14 28.5t13 29.5q-10 11 -16.5 24t-5.5 23q4 36 14.5 81.5t24.5 93t30 94.5t31 87h-37.5h-22.5h-14.5t-12.5 1z" />
    <glyph glyph-name="Tcaron" unicode="&#x164;" horiz-adv-x="332" 
d="M357 688q-4 18 -6.5 47.5t-5.5 58.5q9 9 24.5 17.5t26.5 10.5q5 -17 9.5 -38t9.5 -42q14 15 29.5 36t34.5 44q3 -3 7.5 -16t3.5 -27q-6 -13 -18 -32t-26 -37.5t-27 -33.5t-20 -21q-3 0 -9 3.5t-12 9l-12 11t-9 9.5zM359 563q2 0 4 1t4 1t5 1q14 7 30 14.5t30 13t24.5 9
t14.5 3.5q6 0 14 -13t15 -29.5t11 -30.5t2 -15q-4 -2 -17 -4t-31 -3.5t-38 -2.5t-38 -2q-16 -35 -37.5 -83.5t-44.5 -103t-44 -109t-36 -100.5t-21 -79t1 -43q-6 0 -19 6t-26.5 15.5t-24 21.5t-10.5 25q1 16 15.5 60.5t40 105.5t60 134t74.5 146q-51 -5 -94.5 -10.5
t-76.5 -14.5t-54 -22t-25 -32q-6 2 -15 16t-16.5 30.5t-12 31.5t-1.5 19q6 9 23.5 16t42.5 12t54.5 8t59.5 5q70 4 157 2z" />
    <glyph glyph-name="tcaron" unicode="&#x165;" horiz-adv-x="148" 
d="M267 508q7 10 18 31t20.5 43.5t16 43t5.5 28.5q7 0 16.5 -4.5t17.5 -11t14 -13.5t7 -12t-9 -22.5t-26.5 -36.5t-37.5 -33.5t-42 -12.5zM16 433q-23 2 -35.5 14t-8.5 17q20 1 52 3.5t97 4.5q15 39 27 62.5t17 23.5q8 0 19 -3.5t21.5 -9t19 -11t10.5 -9.5
q-5 -5 -12.5 -17.5t-16.5 -32.5q55 1 97 0.5t54 -5.5q5 -2 9.5 -9t7.5 -15t4.5 -15.5t0.5 -10.5q-10 3 -29 5.5t-44.5 3.5t-56 2t-61.5 1q-14 -36 -29.5 -80t-30.5 -89.5t-28 -90.5t-22 -82q17 18 36 42.5t36 48.5t30 45t18 34q10 -2 6.5 -21.5t-16 -48.5t-30.5 -62.5
t-36.5 -61.5t-34.5 -47t-24 -19q-4 0 -14 7.5t-20 19.5t-17.5 25t-6.5 23q4 36 14.5 81.5t24.5 93t30 94.5t31 87h-38h-23t-15 0.5t-13 1.5z" />
    <glyph glyph-name="Tbar" unicode="&#x166;" horiz-adv-x="396" 
d="M378 563q2 0 4 1t4 1t5 1q14 7 30 14.5t30 13t24.5 9t14.5 3.5q6 0 14 -13t15 -29.5t11 -30.5t2 -15q-4 -2 -17 -4t-31 -3.5t-38 -2.5t-38 -2q-8 -17 -17 -37t-19 -43q32 1 55 1.5t26 0.5q3 -7 2 -16.5t-5 -19t-8.5 -17.5t-7.5 -12q-11 2 -35 2.5t-53 1.5
q-25 -58 -50 -120.5t-43.5 -116t-26.5 -92.5t0 -50q-6 0 -19 6t-26.5 15.5t-24 21.5t-10.5 25q0 12 9 41.5t25 71t38 92.5t49 106h-84q-3 0 -7 8t-7 20t-5 25t0 23q0 -4 11.5 -7t30 -5t42 -3t48.5 -1q10 19 19.5 37.5t20.5 37.5q-51 -5 -94.5 -10.5t-76.5 -14.5t-54 -22
t-25 -32q-6 2 -15 16t-16.5 30.5t-12 31.5t-1.5 19q6 9 23.5 16t42.5 12t54.5 8t59.5 5q70 4 157 2z" />
    <glyph glyph-name="tbar" unicode="&#x167;" horiz-adv-x="145" 
d="M16 433q-23 2 -35.5 14t-8.5 17q20 1 52 3.5t97 4.5q15 39 27 62.5t17 23.5q8 0 19 -3.5t21.5 -9t19 -11t10.5 -9.5q-5 -5 -12.5 -17.5t-16.5 -32.5q55 1 97 0.5t54 -5.5q5 -2 9.5 -9t7.5 -15t4.5 -15.5t0.5 -10.5q-10 3 -29 5.5t-44.5 3.5t-56 2t-61.5 1
q-5 -12 -9.5 -24.5t-9.5 -26.5q14 2 24.5 2.5t14.5 0.5q6 0 13 -7t13.5 -16t10.5 -18t3 -12q-20 2 -45 3t-51 1q-22 -62 -41.5 -127t-32.5 -118q17 18 36 42.5t36 48.5t30 45t18 34q10 -2 6.5 -21.5t-16 -48.5t-30.5 -62.5t-36.5 -61.5t-34.5 -47t-24 -19q-4 0 -14 7.5
t-20 19.5t-17.5 25t-6.5 23q7 54 25.5 124t41.5 139q-6 0 -8 1q-23 2 -39.5 13.5t-17.5 16.5q15 0 35 1.5t42 3.5l21 57h-38h-23t-15 0.5t-13 1.5z" />
    <glyph glyph-name="Utilde" unicode="&#x168;" horiz-adv-x="379" 
d="M280 628q-9 0 -16.5 8t-12.5 18.5t-8 22t-3 19.5q11 -4 26 -4q18 0 37.5 4t39 9t37.5 9t32 4q10 0 18.5 -10.5t13.5 -25t7.5 -29t0.5 -22.5q-8 9 -20.5 12.5t-26.5 3.5q-16 0 -33 -3t-33.5 -6.5t-31.5 -6.5t-27 -3zM489 520q-16 -10 -37 -48.5t-42 -91.5t-39.5 -114.5
t-30.5 -116.5t-16 -98t5 -59q-5 0 -15.5 4t-22 10t-21.5 13.5t-13 15.5q-4 9 -3.5 27.5t4 43t10 54t14.5 61.5q-20 -50 -39 -92.5t-38 -73t-37.5 -48t-37.5 -17.5q-16 0 -35.5 11t-36 30t-27.5 42.5t-11 49.5q0 29 10.5 73t26.5 94t35 100t37 90.5t31.5 65.5t19.5 25
q8 0 20 -6t24 -14.5t21 -17t11 -13.5q-8 -1 -22 -21t-30 -52.5t-33.5 -73.5t-32.5 -84.5t-27 -85.5t-18 -75.5t-4 -55.5t15 -25q14 -4 39 29t54.5 86t61.5 117.5t60.5 123.5t51 103.5t34.5 58.5l3 3l1 1h1l1 1q6 1 16.5 -3t22 -11.5t22 -17t17.5 -18.5z" />
    <glyph glyph-name="utilde" unicode="&#x169;" 
d="M161 496q-9 0 -16.5 8t-12.5 18.5t-8 22t-3 19.5q11 -4 26 -4q18 0 37.5 4t39 9t37.5 9t32 4q10 0 18.5 -10.5t13.5 -25t7.5 -29t0.5 -22.5q-8 9 -20.5 12.5t-26.5 3.5q-16 0 -33 -3t-33.5 -6.5t-31.5 -6.5t-27 -3zM103 408q9 0 20.5 -3.5t22 -9t17.5 -11t9 -8.5
q-10 -15 -21.5 -41.5t-23.5 -58.5t-22.5 -65t-19 -62t-12.5 -50t-3 -28q3 0 13.5 16.5t26.5 44.5t35.5 66t40.5 81q15 49 30 83.5t23 34.5q9 0 20.5 -3.5t22 -8t19 -10.5t11.5 -10q-7 -11 -18.5 -35.5t-25 -59.5t-26 -80t-20.5 -96q16 18 32.5 41t31.5 46.5t26 44t16 33.5
q9 -2 6.5 -21t-12 -46t-24 -57.5t-30.5 -56.5t-30.5 -43.5t-23.5 -17.5t-20 8t-21 19t-17 23t-7 20q0 12 1.5 25.5t3.5 28.5q-10 -25 -21 -50t-22 -45.5t-21.5 -33t-19.5 -12.5q-5 0 -14 3t-19 10t-18.5 18t-11.5 26q-5 21 -1 54.5t13 72.5t21.5 79t24.5 72t22.5 52.5
t15.5 20.5z" />
    <glyph glyph-name="Umacron" unicode="&#x16a;" horiz-adv-x="379" 
d="M260 629q-6 1 -12 7.5t-10.5 14.5t-7 15t-2.5 9q7 0 35.5 2.5t61.5 6.5t62 7t39 3q6 0 10.5 -9.5t7 -22t3 -24.5t-1.5 -17q-5 5 -30.5 6.5t-56.5 1t-59.5 -1t-38.5 1.5zM489 520q-16 -10 -37 -48.5t-42 -91.5t-39.5 -114.5t-30.5 -116.5t-16 -98t5 -59q-5 0 -15.5 4
t-22 10t-21.5 13.5t-13 15.5q-4 9 -3.5 27.5t4 43t10 54t14.5 61.5q-20 -50 -39 -92.5t-38 -73t-37.5 -48t-37.5 -17.5q-16 0 -35.5 11t-36 30t-27.5 42.5t-11 49.5q0 29 10.5 73t26.5 94t35 100t37 90.5t31.5 65.5t19.5 25q8 0 20 -6t24 -14.5t21 -17t11 -13.5
q-8 -1 -22 -21t-30 -52.5t-33.5 -73.5t-32.5 -84.5t-27 -85.5t-18 -75.5t-4 -55.5t15 -25q14 -4 39 29t54.5 86t61.5 117.5t60.5 123.5t51 103.5t34.5 58.5l3 3l1 1h1l1 1q6 1 16.5 -3t22 -11.5t22 -17t17.5 -18.5z" />
    <glyph glyph-name="umacron" unicode="&#x16b;" 
d="M150 512q-6 1 -12 7.5t-10.5 14.5t-7 15t-2.5 9q7 0 35.5 2.5t61.5 6.5t62 7t39 3q6 0 10.5 -9.5t7 -22t3 -24.5t-1.5 -17q-5 5 -30.5 6.5t-56.5 1t-59.5 -1t-38.5 1.5zM103 408q9 0 20.5 -3.5t22 -9t17.5 -11t9 -8.5q-10 -15 -21.5 -41.5t-23.5 -58.5t-22.5 -65t-19 -62
t-12.5 -50t-3 -28q3 0 13.5 16.5t26.5 44.5t35.5 66t40.5 81q15 49 30 83.5t23 34.5q9 0 20.5 -3.5t22 -8t19 -10.5t11.5 -10q-7 -11 -18.5 -35.5t-25 -59.5t-26 -80t-20.5 -96q16 18 32.5 41t31.5 46.5t26 44t16 33.5q9 -2 6.5 -21t-12 -46t-24 -57.5t-30.5 -56.5
t-30.5 -43.5t-23.5 -17.5t-20 8t-21 19t-17 23t-7 20q0 12 1.5 25.5t3.5 28.5q-10 -25 -21 -50t-22 -45.5t-21.5 -33t-19.5 -12.5q-5 0 -14 3t-19 10t-18.5 18t-11.5 26q-5 21 -1 54.5t13 72.5t21.5 79t24.5 72t22.5 52.5t15.5 20.5z" />
    <glyph glyph-name="Ubreve" unicode="&#x16c;" horiz-adv-x="379" 
d="M356 628q-27 0 -44 10.5t-25.5 26.5t-8.5 35t7 36q1 4 9 8.5t17.5 7.5t18.5 4t13 0q-10 -29 -3.5 -47t24.5 -20q20 -2 39 14.5t23 43.5q6 -3 12 -14.5t8 -22.5q-3 -20 -12.5 -35t-22.5 -25.5t-28 -16t-27 -5.5zM489 520q-16 -10 -37 -48.5t-42 -91.5t-39.5 -114.5
t-30.5 -116.5t-16 -98t5 -59q-5 0 -15.5 4t-22 10t-21.5 13.5t-13 15.5q-4 9 -3.5 27.5t4 43t10 54t14.5 61.5q-20 -50 -39 -92.5t-38 -73t-37.5 -48t-37.5 -17.5q-16 0 -35.5 11t-36 30t-27.5 42.5t-11 49.5q0 29 10.5 73t26.5 94t35 100t37 90.5t31.5 65.5t19.5 25
q8 0 20 -6t24 -14.5t21 -17t11 -13.5q-8 -1 -22 -21t-30 -52.5t-33.5 -73.5t-32.5 -84.5t-27 -85.5t-18 -75.5t-4 -55.5t15 -25q14 -4 39 29t54.5 86t61.5 117.5t60.5 123.5t51 103.5t34.5 58.5l3 3l1 1h1l1 1q6 1 16.5 -3t22 -11.5t22 -17t17.5 -18.5z" />
    <glyph glyph-name="ubreve" unicode="&#x16d;" 
d="M239 492q-27 0 -44 10.5t-25.5 26.5t-8.5 35t7 36q1 4 9 8.5t17.5 7.5t18.5 4t13 0q-10 -29 -3.5 -47t24.5 -20q20 -2 39 14.5t23 43.5q6 -3 12 -14.5t8 -22.5q-3 -20 -12.5 -35t-22.5 -25.5t-28 -16t-27 -5.5zM103 408q9 0 20.5 -3.5t22 -9t17.5 -11t9 -8.5
q-10 -15 -21.5 -41.5t-23.5 -58.5t-22.5 -65t-19 -62t-12.5 -50t-3 -28q3 0 13.5 16.5t26.5 44.5t35.5 66t40.5 81q15 49 30 83.5t23 34.5q9 0 20.5 -3.5t22 -8t19 -10.5t11.5 -10q-7 -11 -18.5 -35.5t-25 -59.5t-26 -80t-20.5 -96q16 18 32.5 41t31.5 46.5t26 44t16 33.5
q9 -2 6.5 -21t-12 -46t-24 -57.5t-30.5 -56.5t-30.5 -43.5t-23.5 -17.5t-20 8t-21 19t-17 23t-7 20q0 12 1.5 25.5t3.5 28.5q-10 -25 -21 -50t-22 -45.5t-21.5 -33t-19.5 -12.5q-5 0 -14 3t-19 10t-18.5 18t-11.5 26q-5 21 -1 54.5t13 72.5t21.5 79t24.5 72t22.5 52.5
t15.5 20.5z" />
    <glyph glyph-name="Uring" unicode="&#x16e;" horiz-adv-x="379" 
d="M489 520q-16 -10 -37 -48.5t-42 -91.5t-39.5 -114.5t-30.5 -116.5t-16 -98t5 -59q-5 0 -15.5 4t-22 10t-21.5 13.5t-13 15.5q-4 9 -3.5 27.5t4 43t10 54t14.5 61.5q-20 -50 -39 -92.5t-38 -73t-37.5 -48t-37.5 -17.5q-16 0 -35.5 11t-36 30t-27.5 42.5t-11 49.5
q0 29 10.5 73t26.5 94t35 100t37 90.5t31.5 65.5t19.5 25q8 0 20 -6t24 -14.5t21 -17t11 -13.5q-8 -1 -22 -21t-30 -52.5t-33.5 -73.5t-32.5 -84.5t-27 -85.5t-18 -75.5t-4 -55.5t15 -25q14 -4 39 29t54.5 86t61.5 117.5t60.5 123.5t51 103.5t34.5 58.5l3 3l1 1h1l1 1
q6 1 16.5 -3t22 -11.5t22 -17t17.5 -18.5z" />
    <glyph glyph-name="uring" unicode="&#x16f;" 
d="M293 657q22 -6 34 -20.5t15 -33.5t-2.5 -39t-17.5 -37t-29.5 -28t-39.5 -11q-27 0 -51 15.5t-32 35.5q-8 23 -1.5 51.5t24 49.5t43.5 28.5t57 -11.5zM238 535q15 -3 26.5 9.5t16.5 28.5t2 31t-17 17q-14 3 -24.5 -9t-15.5 -28.5t-2.5 -31t14.5 -17.5zM103 408
q9 0 20.5 -3.5t22 -9t17.5 -11t9 -8.5q-10 -15 -21.5 -41.5t-23.5 -58.5t-22.5 -65t-19 -62t-12.5 -50t-3 -28q3 0 13.5 16.5t26.5 44.5t35.5 66t40.5 81q15 49 30 83.5t23 34.5q9 0 20.5 -3.5t22 -8t19 -10.5t11.5 -10q-7 -11 -18.5 -35.5t-25 -59.5t-26 -80t-20.5 -96
q16 18 32.5 41t31.5 46.5t26 44t16 33.5q9 -2 6.5 -21t-12 -46t-24 -57.5t-30.5 -56.5t-30.5 -43.5t-23.5 -17.5t-20 8t-21 19t-17 23t-7 20q0 12 1.5 25.5t3.5 28.5q-10 -25 -21 -50t-22 -45.5t-21.5 -33t-19.5 -12.5q-5 0 -14 3t-19 10t-18.5 18t-11.5 26q-5 21 -1 54.5
t13 72.5t21.5 79t24.5 72t22.5 52.5t15.5 20.5z" />
    <glyph glyph-name="Uhungarumlaut" unicode="&#x170;" horiz-adv-x="379" 
d="M262 628q9 10 20.5 31t22 43.5t18 43t6.5 28.5q8 0 18 -4.5t19.5 -11t16 -13.5t7.5 -12t-10 -22.5t-29 -36.5t-41.5 -33.5t-47.5 -12.5zM362 628q9 10 20.5 31t22.5 43.5t18 43t7 28.5q7 0 17.5 -4.5t19.5 -11t15.5 -13.5t7.5 -12t-10 -22.5t-29 -36.5t-41.5 -33.5
t-47.5 -12.5zM489 520q-16 -10 -37 -48.5t-42 -91.5t-39.5 -114.5t-30.5 -116.5t-16 -98t5 -59q-5 0 -15.5 4t-22 10t-21.5 13.5t-13 15.5q-4 9 -3.5 27.5t4 43t10 54t14.5 61.5q-20 -50 -39 -92.5t-38 -73t-37.5 -48t-37.5 -17.5q-16 0 -35.5 11t-36 30t-27.5 42.5
t-11 49.5q0 29 10.5 73t26.5 94t35 100t37 90.5t31.5 65.5t19.5 25q8 0 20 -6t24 -14.5t21 -17t11 -13.5q-8 -1 -22 -21t-30 -52.5t-33.5 -73.5t-32.5 -84.5t-27 -85.5t-18 -75.5t-4 -55.5t15 -25q14 -4 39 29t54.5 86t61.5 117.5t60.5 123.5t51 103.5t34.5 58.5l3 3l1 1h1
l1 1q6 1 16.5 -3t22 -11.5t22 -17t17.5 -18.5z" />
    <glyph glyph-name="uhungarumlaut" unicode="&#x171;" 
d="M153 472q7 10 18 31t20.5 43.5t16 43t5.5 28.5q7 0 16.5 -4.5t17.5 -11t14 -13.5t7 -12t-9 -22.5t-26.5 -36.5t-37.5 -33.5t-42 -12.5zM239 472q8 10 18.5 31t20 43.5t16 43t6.5 28.5q7 0 16 -4.5t17.5 -11t14.5 -13.5t6 -12q1 -5 -8.5 -22.5t-26 -36.5t-37.5 -33.5
t-43 -12.5zM103 408q9 0 20.5 -3.5t22 -9t17.5 -11t9 -8.5q-10 -15 -21.5 -41.5t-23.5 -58.5t-22.5 -65t-19 -62t-12.5 -50t-3 -28q3 0 13.5 16.5t26.5 44.5t35.5 66t40.5 81q15 49 30 83.5t23 34.5q9 0 20.5 -3.5t22 -8t19 -10.5t11.5 -10q-7 -11 -18.5 -35.5t-25 -59.5
t-26 -80t-20.5 -96q16 18 32.5 41t31.5 46.5t26 44t16 33.5q9 -2 6.5 -21t-12 -46t-24 -57.5t-30.5 -56.5t-30.5 -43.5t-23.5 -17.5t-20 8t-21 19t-17 23t-7 20q0 12 1.5 25.5t3.5 28.5q-10 -25 -21 -50t-22 -45.5t-21.5 -33t-19.5 -12.5q-5 0 -14 3t-19 10t-18.5 18
t-11.5 26q-5 21 -1 54.5t13 72.5t21.5 79t24.5 72t22.5 52.5t15.5 20.5z" />
    <glyph glyph-name="Uogonek" unicode="&#x172;" horiz-adv-x="379" 
d="M489 520q-16 -10 -37 -48.5t-42 -91.5t-39.5 -114.5t-30.5 -116.5t-16 -98t5 -59q-18 -14 -34 -26.5t-28 -23t-19.5 -18.5t-7.5 -12t5 -9t11.5 -10t14.5 -9.5t14 -7.5q-11 -8 -29.5 -9.5t-36.5 2t-31 12t-13 20.5q0 10 8.5 24t22.5 29t33.5 30t42.5 26q-9 6 -16 12t-9 13
q-4 9 -3.5 27.5t4 43t10 54t14.5 61.5q-20 -50 -39 -92.5t-38 -73t-37.5 -48t-37.5 -17.5q-16 0 -35.5 11t-36 30t-27.5 42.5t-11 49.5q0 29 10.5 73t26.5 94t35 100t37 90.5t31.5 65.5t19.5 25q8 0 20 -6t24 -14.5t21 -17t11 -13.5q-8 -1 -22 -21t-30 -52.5t-33.5 -73.5
t-32.5 -84.5t-27 -85.5t-18 -75.5t-4 -55.5t15 -25q14 -4 39 29t54.5 86t61.5 117.5t60.5 123.5t51 103.5t34.5 58.5l3 3l1 1h1l1 1q6 1 16.5 -3t22 -11.5t22 -17t17.5 -18.5z" />
    <glyph glyph-name="uogonek" unicode="&#x173;" 
d="M103 408q9 0 20.5 -3.5t22 -9t17.5 -11t9 -8.5q-10 -15 -21.5 -41.5t-23.5 -58.5t-22.5 -65t-19 -62t-12.5 -50t-3 -28q3 0 13.5 16.5t26.5 44.5t35.5 66t40.5 81q15 49 30 83.5t23 34.5q9 0 20.5 -3.5t22 -8t19 -10.5t11.5 -10q-7 -11 -18.5 -35.5t-25 -59.5t-26 -80
t-20.5 -96q16 18 32.5 41t31.5 46.5t26 44t16 33.5q8 -2 6.5 -18t-9 -39t-20 -51t-26.5 -53.5t-28 -46t-25 -29.5q-12 -14 -24 -29t-21 -28.5t-15 -24t-6 -14.5t5 -9t11.5 -10t14.5 -9.5t14 -7.5q-11 -8 -29.5 -9.5t-36.5 2t-31 12t-13 20.5q0 10 7 25t19.5 30.5t29.5 31.5
t36 28q-14 12 -26 29t-12 28q0 12 1.5 25.5t3.5 28.5q-10 -25 -21 -50t-22 -45.5t-21.5 -33t-19.5 -12.5q-5 0 -14 3t-19 10t-18.5 18t-11.5 26q-5 21 -1 54.5t13 72.5t21.5 79t24.5 72t22.5 52.5t15.5 20.5z" />
    <glyph glyph-name="Wcircumflex" unicode="&#x174;" horiz-adv-x="516" 
d="M460 762q4 -18 6.5 -47.5t5.5 -58.5q-9 -9 -24.5 -17.5t-26.5 -10.5q-5 17 -9.5 38t-9.5 42q-14 -15 -29.5 -36t-34.5 -44q-3 3 -7.5 16t-3.5 27q6 13 18 32t26 37.5t27 33.5t20 21q3 0 9 -4t12 -9t12 -10.5t9 -9.5zM91 47q21 14 48 57.5t54.5 100.5t53 119.5t44.5 114.5
q10 44 18.5 72t14.5 28h2q9 -1 21 -7.5t24 -14.5t21 -16t11 -13q-5 0 -12.5 -18t-16 -47.5t-18 -68t-18 -78.5t-16 -79.5t-12 -71t-5.5 -53t3 -25.5q14 9 31.5 36t37 64t39 82t37 90.5t32.5 89t24 78t12 56.5t-3 26q10 0 25 -9t28.5 -21.5t22.5 -25.5t8 -20
q-16 -50 -36.5 -107t-44 -113t-47.5 -107t-47 -90t-44 -62.5t-36 -23.5q-9 0 -26 8.5t-34 22t-30 31t-14 34.5q-2 23 2 65t11 93q-18 -52 -36 -98t-36 -80.5t-35 -55t-32 -20.5q-9 0 -24.5 8.5t-31 22t-27.5 31t-13 34.5q-1 22 6.5 67t19.5 99t27.5 110.5t30.5 103.5
t26.5 76.5t17.5 29.5q7 0 20.5 -6t26.5 -14.5t23 -17t12 -14.5q-11 -1 -27 -34.5t-33.5 -84t-33.5 -110.5t-28 -112t-17.5 -89t-0.5 -43z" />
    <glyph glyph-name="wcircumflex" unicode="&#x175;" horiz-adv-x="401" 
d="M354 621q4 -18 6.5 -47.5t5.5 -58.5q-9 -9 -24.5 -17.5t-26.5 -10.5q-5 17 -9.5 38t-9.5 42q-14 -15 -29.5 -36t-34.5 -44q-3 3 -7.5 16t-3.5 27q6 13 18 32t26 37.5t27 33.5t20 21q3 0 9 -4t12 -9t12 -10.5t9 -9.5zM101 71q10 7 33.5 55.5t55.5 136.5q10 54 21 91.5
t19 38.5q9 0 20.5 -3.5t22 -8.5t17.5 -10.5t9 -8.5q-5 -1 -12.5 -22.5t-16 -52.5t-15.5 -67t-12.5 -68t-7 -54.5t2.5 -26.5q10 7 36.5 63t60.5 150q-7 28 -2.5 51t14 39t20.5 24.5t17 8.5q3 0 10.5 -4t16 -9.5t16.5 -12t11 -12.5l-16 -44q13 3 31 8.5t36 12t34.5 13.5
t27.5 13q-1 -6 -5 -13q-4 -6 -11 -14t-18 -18q-29 -24 -60 -36.5t-55 -16.5q-21 -51 -43.5 -100t-43.5 -88t-39 -62.5t-30 -23.5q-5 0 -16.5 5t-23.5 13t-22 18t-11 21q-2 14 -2.5 32.5t1.5 39.5q-23 -57 -44.5 -93t-37.5 -36q-5 0 -14.5 5t-19 13t-17.5 18t-9 21
q-3 23 -0.5 58t8.5 73.5t15 77.5t18 70t17 51t13 20q9 0 20.5 -3.5t22 -8.5t17.5 -10.5t9 -8.5q-5 -2 -13.5 -24t-17 -54.5t-17.5 -70.5t-14.5 -71.5t-8 -57t1.5 -27.5z" />
    </font>
</defs>
</svg>
